<svg class="animated" id="freepik_stories-electrician" xmlns="http://www.w3.org/2000/svg" viewBox="0 0 500 500" version="1.1" xmlns:xlink="http://www.w3.org/1999/xlink" xmlns:svgjs="http://svgjs.com/svgjs"><style>svg#freepik_stories-electrician:not(.animated) .animable {opacity: 0;}svg#freepik_stories-electrician.animated #freepik--background-simple--inject-318 {animation: 1s 1 forwards cubic-bezier(.36,-0.01,.5,1.38) slideDown;animation-delay: 0s;}svg#freepik_stories-electrician.animated #freepik--Picture--inject-318 {animation: 1s 1 forwards cubic-bezier(.36,-0.01,.5,1.38) slideUp;animation-delay: 0s;}svg#freepik_stories-electrician.animated #freepik--Window--inject-318 {animation: 1s 1 forwards cubic-bezier(.36,-0.01,.5,1.38) zoomIn;animation-delay: 0s;}svg#freepik_stories-electrician.animated #freepik--Floor--inject-318 {animation: 1s 1 forwards cubic-bezier(.36,-0.01,.5,1.38) lightSpeedLeft;animation-delay: 0s;}svg#freepik_stories-electrician.animated #freepik--Plants--inject-318 {animation: 1s 1 forwards cubic-bezier(.36,-0.01,.5,1.38) fadeIn;animation-delay: 0s;}svg#freepik_stories-electrician.animated #freepik--Character--inject-318 {animation: 1s 1 forwards cubic-bezier(.36,-0.01,.5,1.38) fadeIn;animation-delay: 0s;}            @keyframes slideDown {                0% {                    opacity: 0;                    transform: translateY(-30px);                }                100% {                    opacity: 1;                    transform: translateY(0);                }            }                    @keyframes slideUp {                0% {                    opacity: 0;                    transform: translateY(30px);                }                100% {                    opacity: 1;                    transform: inherit;                }            }                    @keyframes zoomIn {                0% {                    opacity: 0;                    transform: scale(0.5);                }                100% {                    opacity: 1;                    transform: scale(1);                }            }                    @keyframes lightSpeedLeft {              from {                transform: translate3d(-50%, 0, 0) skewX(20deg);                opacity: 0;              }              60% {                transform: skewX(-10deg);                opacity: 1;              }              80% {                transform: skewX(2deg);              }              to {                opacity: 1;                transform: translate3d(0, 0, 0);              }            }                    @keyframes fadeIn {                0% {                    opacity: 0;                }                100% {                    opacity: 1;                }            }        </style><g id="freepik--background-simple--inject-318" class="animable" style="transform-origin: 250.711px 249.808px;"><path d="M332.3,54.7s-77-27.37-152.56,16.21S66,201,33.29,270.32s-13.9,139.8,43.79,171.94S174,427,254.93,424.71,357.62,434,424.78,388.26s79.29-153.69,26.32-233.58S332.3,54.7,332.3,54.7Z" style="fill: rgb(25, 118, 210); transform-origin: 250.711px 249.808px;" id="elhsfkdlxltn" class="animable"></path><g id="elfuhukq0ycbk"><path d="M332.3,54.7s-77-27.37-152.56,16.21S66,201,33.29,270.32s-13.9,139.8,43.79,171.94S174,427,254.93,424.71,357.62,434,424.78,388.26s79.29-153.69,26.32-233.58S332.3,54.7,332.3,54.7Z" style="fill: rgb(255, 255, 255); opacity: 0.7; transform-origin: 250.711px 249.808px;" class="animable"></path></g></g><g id="freepik--Picture--inject-318" class="animable" style="transform-origin: 120px 145.215px;"><rect x="31" y="60.4" width="98.02" height="131.63" style="fill: none; stroke: rgb(103, 111, 116); stroke-linecap: round; stroke-linejoin: round; transform-origin: 80.01px 126.215px;" id="ellx2pbwguizl" class="animable"></rect><rect x="40.38" y="73" width="79.25" height="106.42" style="fill: none; stroke: rgb(103, 111, 116); stroke-linecap: round; stroke-linejoin: round; transform-origin: 80.005px 126.21px;" id="ell39k500d9a" class="animable"></rect><rect x="141.34" y="139.17" width="67.66" height="90.86" style="fill: none; stroke: rgb(103, 111, 116); stroke-linecap: round; stroke-linejoin: round; transform-origin: 175.17px 184.6px;" id="el3y16mli0z2n" class="animable"></rect><rect x="147.82" y="147.87" width="54.7" height="73.46" style="fill: none; stroke: rgb(103, 111, 116); stroke-linecap: round; stroke-linejoin: round; transform-origin: 175.17px 184.6px;" id="elw6jbr1xt42" class="animable"></rect></g><g id="freepik--Window--inject-318" class="animable" style="transform-origin: 254.24px 243.135px;"><path d="M417.28,40.05H421a62,62,0,0,1,62,62V333.53a0,0,0,0,1,0,0H355.28a0,0,0,0,1,0,0V102.05A62,62,0,0,1,417.28,40.05Z" style="fill: none; stroke: rgb(103, 111, 116); stroke-linecap: round; stroke-linejoin: round; transform-origin: 419.14px 186.79px;" id="elc5x29557npl" class="animable"></path><path d="M369.7,332.84V106a49.43,49.43,0,0,1,49.43-49.43h0A49.42,49.42,0,0,1,468.55,106V332.84" style="fill: none; stroke: rgb(103, 111, 116); stroke-linecap: round; stroke-linejoin: round; transform-origin: 419.125px 194.705px;" id="elc2n3wqfiahq" class="animable"></path><line x1="419.13" y1="40.05" x2="419.13" y2="333.18" style="fill: none; stroke: rgb(103, 111, 116); stroke-linecap: round; stroke-linejoin: round; transform-origin: 419.13px 186.615px;" id="elgpt8kszbyhs" class="animable"></line><line x1="355.97" y1="96.52" x2="482.11" y2="96.52" style="fill: none; stroke: rgb(103, 111, 116); stroke-linecap: round; stroke-linejoin: round; transform-origin: 419.04px 96.52px;" id="elps7nwsr00r" class="animable"></line><line x1="432.02" y1="126.47" x2="429.38" y2="128.47" style="fill: none; stroke: rgb(103, 111, 116); stroke-linecap: round; stroke-linejoin: round; transform-origin: 430.7px 127.47px;" id="eld2idhbrbve" class="animable"></line><line x1="465.12" y1="101.31" x2="437.31" y2="122.45" style="fill: none; stroke: rgb(103, 111, 116); stroke-linecap: round; stroke-linejoin: round; transform-origin: 451.215px 111.88px;" id="elfo3dutcfya4" class="animable"></line><line x1="452.97" y1="117.75" x2="437.96" y2="129.19" style="fill: none; stroke: rgb(103, 111, 116); stroke-linecap: round; stroke-linejoin: round; transform-origin: 445.465px 123.47px;" id="elqa0xqnhwet" class="animable"></line><line x1="404.77" y1="228.05" x2="380.06" y2="248.55" style="fill: none; stroke: rgb(103, 111, 116); stroke-linecap: round; stroke-linejoin: round; transform-origin: 392.415px 238.3px;" id="elxdhihotl8zh" class="animable"></line><line x1="413.66" y1="220.68" x2="409.36" y2="224.24" style="fill: none; stroke: rgb(103, 111, 116); stroke-linecap: round; stroke-linejoin: round; transform-origin: 411.51px 222.46px;" id="elwsbkghszxq" class="animable"></line><line x1="391.5" y1="232.11" x2="375.06" y2="244.98" style="fill: none; stroke: rgb(103, 111, 116); stroke-linecap: round; stroke-linejoin: round; transform-origin: 383.28px 238.545px;" id="el8u1sy5i38s4" class="animable"></line><line x1="435.54" y1="283.79" x2="432.24" y2="286.43" style="fill: none; stroke: rgb(103, 111, 116); stroke-linecap: round; stroke-linejoin: round; transform-origin: 433.89px 285.11px;" id="ela3ob3upih4s" class="animable"></line><line x1="460.83" y1="263.56" x2="440.79" y2="279.59" style="fill: none; stroke: rgb(103, 111, 116); stroke-linecap: round; stroke-linejoin: round; transform-origin: 450.81px 271.575px;" id="elotl7cb1pysg" class="animable"></line><line x1="449.39" y1="280" x2="440.1" y2="287.15" style="fill: none; stroke: rgb(103, 111, 116); stroke-linecap: round; stroke-linejoin: round; transform-origin: 444.745px 283.575px;" id="elosx62b3jew" class="animable"></line><line x1="355.97" y1="136.33" x2="482.11" y2="136.33" style="fill: none; stroke: rgb(103, 111, 116); stroke-linecap: round; stroke-linejoin: round; transform-origin: 419.04px 136.33px;" id="elsto8yfhdrf" class="animable"></line><line x1="355.97" y1="176.15" x2="482.11" y2="176.15" style="fill: none; stroke: rgb(103, 111, 116); stroke-linecap: round; stroke-linejoin: round; transform-origin: 419.04px 176.15px;" id="eltmmyo5i3j7o" class="animable"></line><line x1="355.97" y1="215.97" x2="482.11" y2="215.97" style="fill: none; stroke: rgb(103, 111, 116); stroke-linecap: round; stroke-linejoin: round; transform-origin: 419.04px 215.97px;" id="el8atam3c1m2j" class="animable"></line><line x1="355.97" y1="255.78" x2="482.11" y2="255.78" style="fill: none; stroke: rgb(103, 111, 116); stroke-linecap: round; stroke-linejoin: round; transform-origin: 419.04px 255.78px;" id="elijgnxkpd9i" class="animable"></line><line x1="355.97" y1="295.6" x2="482.11" y2="295.6" style="fill: none; stroke: rgb(103, 111, 116); stroke-linecap: round; stroke-linejoin: round; transform-origin: 419.04px 295.6px;" id="elk6tdg83vk7" class="animable"></line><line x1="372.84" y1="59.98" x2="384.28" y2="70.4" style="fill: none; stroke: rgb(103, 111, 116); stroke-linecap: round; stroke-linejoin: round; transform-origin: 378.56px 65.19px;" id="elt4qhx472gh" class="animable"></line><line x1="464.94" y1="59.98" x2="453.5" y2="70.4" style="fill: none; stroke: rgb(103, 111, 116); stroke-linecap: round; stroke-linejoin: round; transform-origin: 459.22px 65.19px;" id="elpqn1aeztjs" class="animable"></line><line x1="16.48" y1="257.25" x2="355.29" y2="257.25" style="fill: none; stroke: rgb(103, 111, 116); stroke-linecap: round; stroke-linejoin: round; transform-origin: 185.885px 257.25px;" id="elxmek00nb36" class="animable"></line><line x1="16.48" y1="263.22" x2="355.29" y2="263.22" style="fill: none; stroke: rgb(103, 111, 116); stroke-linecap: round; stroke-linejoin: round; transform-origin: 185.885px 263.22px;" id="ellgj4s4xq19a" class="animable"></line><line x1="16.48" y1="446.22" x2="492" y2="446.22" style="fill: none; stroke: rgb(103, 111, 116); stroke-linecap: round; stroke-linejoin: round; transform-origin: 254.24px 446.22px;" id="elnuxr3uoaj79" class="animable"></line><line x1="115" y1="263" x2="115" y2="446" style="fill: none; stroke: rgb(103, 111, 116); stroke-linecap: round; stroke-linejoin: round; transform-origin: 115px 354.5px;" id="eltxnymtqgzjh" class="animable"></line><line x1="222" y1="263" x2="222" y2="446" style="fill: none; stroke: rgb(103, 111, 116); stroke-linecap: round; stroke-linejoin: round; transform-origin: 222px 354.5px;" id="elb5styo0o38l" class="animable"></line><line x1="329" y1="263" x2="329" y2="446" style="fill: none; stroke: rgb(103, 111, 116); stroke-linecap: round; stroke-linejoin: round; transform-origin: 329px 354.5px;" id="elgv3weu84ps" class="animable"></line><line x1="436" y1="342" x2="436" y2="446" style="fill: none; stroke: rgb(103, 111, 116); stroke-linecap: round; stroke-linejoin: round; transform-origin: 436px 394px;" id="elahvmn7wjjc" class="animable"></line><rect x="352" y="333.67" width="135" height="8.33" style="fill: none; stroke: rgb(103, 111, 116); stroke-linecap: round; stroke-linejoin: round; transform-origin: 419.5px 337.835px;" id="eljlxx8ktq6c8" class="animable"></rect></g><g id="freepik--Floor--inject-318" class="animable" style="transform-origin: 254.74px 477px;"><line x1="16.48" y1="477" x2="493" y2="477" style="fill: none; stroke: rgb(38, 50, 56); stroke-linecap: round; stroke-linejoin: round; transform-origin: 254.74px 477px;" id="elyczbz0nicdq" class="animable"></line></g><g id="freepik--Plants--inject-318" class="animable" style="transform-origin: 61.6982px 342.85px;"><path d="M83.62,234.4s0-5.59-7.82-13.41S63,208.7,63,208.7,59,221.55,66.3,229.37a137.61,137.61,0,0,0,17.32,15.09Z" style="fill: rgb(25, 118, 210); transform-origin: 72.7632px 226.58px;" id="el8ii32qmhc1r" class="animable"></path><path d="M72.27,269.29s0-5.59-7.83-13.41-12.85-12.29-12.85-12.29S47.68,256.44,55,264.26a137.61,137.61,0,0,0,17.32,15.09Z" style="fill: rgb(25, 118, 210); transform-origin: 61.4334px 261.47px;" id="ela0ry9p3zdlu" class="animable"></path><path d="M83.13,243.92s.59-5.56,9.19-12.51,14.08-10.87,14.08-10.87,2.53,13.19-5.52,20.21a137.47,137.47,0,0,1-18.82,13.17Z" style="fill: rgb(25, 118, 210); transform-origin: 94.4184px 237.23px;" id="elhqof6fvamrv" class="animable"></path><path d="M69.41,285.12s1.17-5.46,10.46-11.47S95,264.32,95,264.32s1.13,13.39-7.61,19.51A137.58,137.58,0,0,1,67.31,295Z" style="fill: rgb(25, 118, 210); transform-origin: 81.1788px 279.66px;" id="elrdjhzo8x54" class="animable"></path><path d="M72,330.05s0-5.59,7.82-13.41,12.85-12.29,12.85-12.29S96.57,317.2,89.31,325A137.61,137.61,0,0,1,72,340.11Z" style="fill: rgb(25, 118, 210); transform-origin: 82.8581px 322.23px;" id="elx6tp67ksf2s" class="animable"></path><path d="M71.86,341s.79-5.53-5.84-14.39-11-14-11-14-5.7,12.16.38,20.94a137.86,137.86,0,0,0,15,17.39Z" style="fill: rgb(25, 118, 210); transform-origin: 62.2424px 331.775px;" id="elf3w6h9lu5ad" class="animable"></path><path d="M64.15,373.51s0-5.58,7.82-13.4,12.85-12.29,12.85-12.29,3.91,12.85-3.35,20.67a137.87,137.87,0,0,1-17.32,15.08Z" style="fill: rgb(25, 118, 210); transform-origin: 75.0107px 365.695px;" id="eleqxfnsivkmn" class="animable"></path><path d="M69.37,403s-1.42-5.4,4.17-15,9.32-15.15,9.32-15.15,7,11.44,2,20.85a136.84,136.84,0,0,1-12.93,19Z" style="fill: rgb(25, 118, 210); transform-origin: 77.9347px 392.775px;" id="elv43y9qhqml" class="animable"></path><path d="M84.33,233a159,159,0,0,1-2.15,17.35c-3.09,16-10.82,26.28-13.91,40.71s5.78,33,3.41,51.55-9.59,28.83-7.53,41.2S77,429.65,77,429.65" style="fill: none; stroke: rgb(38, 50, 56); stroke-linecap: round; stroke-linejoin: round; transform-origin: 74.0574px 331.325px;" id="eliiv4tfk9ubp" class="animable"></path><line x1="83.05" y1="247.63" x2="91.48" y2="241.16" style="fill: none; stroke: rgb(38, 50, 56); stroke-linecap: round; stroke-linejoin: round; transform-origin: 87.265px 244.395px;" id="el3yhsjfzxov" class="animable"></line><line x1="83.44" y1="240.18" x2="79.91" y2="233.91" style="fill: none; stroke: rgb(38, 50, 56); stroke-linecap: round; stroke-linejoin: round; transform-origin: 81.675px 237.045px;" id="elrxqgrebw17j" class="animable"></line><path d="M68.74,290.36s7.06-5.29,14.31-10.58" style="fill: none; stroke: rgb(38, 50, 56); stroke-linecap: round; stroke-linejoin: round; transform-origin: 75.895px 285.07px;" id="elw9t2zmckb4" class="animable"></path><path d="M72.27,279.35s-5.88-11.53-12.55-19.18" style="fill: none; stroke: rgb(38, 50, 56); stroke-linecap: round; stroke-linejoin: round; transform-origin: 65.995px 269.76px;" id="el5dhn18npeeh" class="animable"></path><path d="M72.27,338a87.43,87.43,0,0,1,15.09-20.19" style="fill: none; stroke: rgb(38, 50, 56); stroke-linecap: round; stroke-linejoin: round; transform-origin: 79.815px 327.905px;" id="eln17cqvy2m0q" class="animable"></path><path d="M70.89,345.84a98.17,98.17,0,0,0-7.64-14.51c-4.12-6.07-4.71-6.86-4.71-6.86" style="fill: none; stroke: rgb(38, 50, 56); stroke-linecap: round; stroke-linejoin: round; transform-origin: 64.715px 335.155px;" id="elg60scmqw9g5" class="animable"></path><path d="M64.15,383.78a93,93,0,0,1,6.35-12.85,82.44,82.44,0,0,1,8.24-10.78" style="fill: none; stroke: rgb(38, 50, 56); stroke-linecap: round; stroke-linejoin: round; transform-origin: 71.445px 371.965px;" id="elqliz4n73hls" class="animable"></path><path d="M71.92,412.71S71.09,406,74,400.33s6.27-13.13,7.65-16.07" style="fill: none; stroke: rgb(38, 50, 56); stroke-linecap: round; stroke-linejoin: round; transform-origin: 76.7302px 398.485px;" id="elsd0uv4hfnxm" class="animable"></path><path d="M32.4,309s-.61-3.51,3.45-9.26,6.72-9.1,6.72-9.1,3.85,7.63.14,13.32a86.57,86.57,0,0,1-9.22,11.34Z" style="fill: rgb(25, 118, 210); transform-origin: 38.3454px 302.97px;" id="el0m6rpykqbtq" class="animable"></path><path d="M43.3,329.69s-.6-3.51,3.45-9.26,6.73-9.1,6.73-9.1,3.84,7.63.14,13.32A87.49,87.49,0,0,1,44.4,336Z" style="fill: rgb(25, 118, 210); transform-origin: 49.2488px 323.665px;" id="elsbdvguplrlr" class="animable"></path><path d="M33.74,315s-1-3.42-7.12-6.84-10-5.29-10-5.29-.16,8.55,5.65,12.07a88,88,0,0,0,13.23,6.22Z" style="fill: rgb(25, 118, 210); transform-origin: 26.0598px 312.015px;" id="elmgh7u8tkvj" class="animable"></path><path d="M46.81,339.3s-1.33-3.3-7.8-6.06S28.5,329,28.5,329s.75,8.52,6.89,11.41a87.79,87.79,0,0,0,13.81,4.79Z" style="fill: rgb(25, 118, 210); transform-origin: 38.85px 337.1px;" id="ellivimbds9wi" class="animable"></path><path d="M50.07,367.76s-.6-3.51-6.36-7.56-9.39-6.32-9.39-6.32-1.06,8.49,4.35,12.6a87.05,87.05,0,0,0,12.49,7.58Z" style="fill: rgb(25, 118, 210); transform-origin: 42.698px 363.97px;" id="el070nv590xmsu" class="animable"></path><path d="M51.34,374.62s-1.09-3.38,2.1-9.66,5.37-10,5.37-10,4.89,7,2,13.17a87.44,87.44,0,0,1-7.52,12.53Z" style="fill: rgb(25, 118, 210); transform-origin: 56.442px 367.81px;" id="el25w6dldrxba" class="animable"></path><path d="M61.16,402.88s.41-3.53,5.92-7.91,9-6.84,9-6.84,1.54,8.41-3.62,12.83a88.2,88.2,0,0,1-12.05,8.28Z" style="fill: rgb(25, 118, 210); transform-origin: 68.3526px 398.685px;" id="elvk20si6rt4d" class="animable"></path><path d="M59.71,394.16s-.61-3.5-6.36-7.56S44,380.29,44,380.29s-1.06,8.48,4.34,12.6a88.55,88.55,0,0,0,12.5,7.58Z" style="fill: rgb(25, 118, 210); transform-origin: 52.3779px 390.38px;" id="eldx4e0jix5gc" class="animable"></path><path d="M59.63,413.2s.3-3.54-4.24-8.92-7.48-8.48-7.48-8.48-3.17,7.93,1,13.28a87.25,87.25,0,0,0,10.17,10.5Z" style="fill: rgb(25, 118, 210); transform-origin: 53.1953px 407.69px;" id="el6f9pe1pp29a" class="animable"></path><path d="M31.8,308.22A101.63,101.63,0,0,0,35,318.86c3.68,9.68,9.64,15.31,13.15,24s0,21.33,3.46,32.7,9.14,17,9.19,25-3.1,30.16-3.1,30.16" style="fill: none; stroke: rgb(38, 50, 56); stroke-linecap: round; stroke-linejoin: round; transform-origin: 46.3003px 369.47px;" id="el446i9icj7xm" class="animable"></path><line x1="34.19" y1="317.27" x2="28.2" y2="314.13" style="fill: none; stroke: rgb(38, 50, 56); stroke-linecap: round; stroke-linejoin: round; transform-origin: 31.195px 315.7px;" id="el52jjuesaygy" class="animable"></line><line x1="33.14" y1="312.64" x2="34.67" y2="308.33" style="fill: none; stroke: rgb(38, 50, 56); stroke-linecap: round; stroke-linejoin: round; transform-origin: 33.905px 310.485px;" id="elcjncv2t3nk9" class="animable"></line><path d="M47.8,342.52s-5-2.56-10.12-5.09" style="fill: none; stroke: rgb(38, 50, 56); stroke-linecap: round; stroke-linejoin: round; transform-origin: 42.74px 339.975px;" id="elfo9x8cpl0j" class="animable"></path><path d="M44.4,336a71.16,71.16,0,0,1,5.78-13.38" style="fill: none; stroke: rgb(38, 50, 56); stroke-linecap: round; stroke-linejoin: round; transform-origin: 47.29px 329.31px;" id="elp66zpp973o" class="animable"></path><path d="M50.76,372.77a55.28,55.28,0,0,0-11.66-11" style="fill: none; stroke: rgb(38, 50, 56); stroke-linecap: round; stroke-linejoin: round; transform-origin: 44.93px 367.27px;" id="el9d4g3uwf7wg" class="animable"></path><path d="M52.47,377.54a63.12,63.12,0,0,1,3.22-9.93c1.92-4.26,2.21-4.81,2.21-4.81" style="fill: none; stroke: rgb(38, 50, 56); stroke-linecap: round; stroke-linejoin: round; transform-origin: 55.185px 370.17px;" id="elh035evc3ys" class="animable"></path><path d="M60.55,406.65s4-4.86,6.44-6.68a34.08,34.08,0,0,0,4.18-3.64" style="fill: none; stroke: rgb(38, 50, 56); stroke-linecap: round; stroke-linejoin: round; transform-origin: 65.86px 401.49px;" id="elu1beku9b6u" class="animable"></path><path d="M60.82,400.6a59.46,59.46,0,0,0-5.38-7.37,52.81,52.81,0,0,0-6.33-5.87" style="fill: none; stroke: rgb(38, 50, 56); stroke-linecap: round; stroke-linejoin: round; transform-origin: 54.965px 393.98px;" id="elnudnpz0o4zf" class="animable"></path><path d="M59.09,419.58a15.27,15.27,0,0,0-2.67-7.53c-2.46-3.24-5.36-7.55-6.54-9.25" style="fill: none; stroke: rgb(38, 50, 56); stroke-linecap: round; stroke-linejoin: round; transform-origin: 54.485px 411.19px;" id="elzb92qb3l3b" class="animable"></path><path d="M88.35,447.69A34.4,34.4,0,0,0,81.9,427h-30a34.47,34.47,0,0,0-6.44,20.67c0,12.34,5.73,22.86,13.79,27V477H74.83v-2.29h-.28C82.62,470.55,88.35,460,88.35,447.69Z" style="fill: rgb(38, 50, 56); stroke: rgb(38, 50, 56); stroke-linecap: round; stroke-linejoin: round; transform-origin: 66.9053px 452px;" id="elwzky2dd9j" class="animable"></path></g><g id="freepik--Character--inject-318" class="animable" style="transform-origin: 235.57px 245.5px;"><rect x="196.17" y="183.54" width="34.86" height="12.81" style="fill: rgb(84, 84, 84); transform-origin: 213.6px 189.945px;" id="elzovnxgosvdo" class="animable"></rect><rect x="198.18" y="183.54" width="32.86" height="12.81" style="fill: rgb(38, 50, 56); transform-origin: 214.61px 189.945px;" id="ela36l4yxrvjr" class="animable"></rect><rect x="198.18" y="183.54" width="32.86" height="2.97" style="fill: rgb(84, 84, 84); transform-origin: 214.61px 185.025px;" id="elitwlka80vgs" class="animable"></rect><polygon points="215.27 195.1 202.13 195.1 303.88 477 317.02 477 215.27 195.1" style="fill: rgb(84, 84, 84); transform-origin: 259.575px 336.05px;" id="elfzju8myvg7t" class="animable"></polygon><polygon points="217.65 195.1 204.51 195.1 306.26 477 319.4 477 217.65 195.1" style="fill: rgb(38, 50, 56); transform-origin: 261.955px 336.05px;" id="elom5vlndc27" class="animable"></polygon><rect x="296.56" y="441.47" width="24.48" height="5.21" style="fill: rgb(255, 255, 255); stroke: rgb(38, 50, 56); stroke-miterlimit: 10; transform-origin: 308.8px 444.075px;" id="elbp6cct3rq47" class="animable"></rect><rect x="276.57" y="386.36" width="24.48" height="5.21" style="fill: rgb(255, 255, 255); stroke: rgb(38, 50, 56); stroke-miterlimit: 10; transform-origin: 288.81px 388.965px;" id="elb89pvfy8t1m" class="animable"></rect><rect x="256.58" y="331.26" width="24.48" height="5.21" style="fill: rgb(255, 255, 255); stroke: rgb(38, 50, 56); stroke-miterlimit: 10; transform-origin: 268.82px 333.865px;" id="elp1r89cf0yaf" class="animable"></rect><rect x="236.59" y="276.15" width="24.48" height="5.21" style="fill: rgb(255, 255, 255); stroke: rgb(38, 50, 56); stroke-miterlimit: 10; transform-origin: 248.83px 278.755px;" id="el1yr6t978y8e" class="animable"></rect><rect x="216.6" y="221.04" width="24.48" height="5.21" style="fill: rgb(255, 255, 255); stroke: rgb(38, 50, 56); stroke-miterlimit: 10; transform-origin: 228.84px 223.645px;" id="ellar9mf5bawf" class="animable"></rect><path d="M242.13,242.73l17.11-12.06,5.94-44.22S247.36,224,245,228.53,242.13,242.73,242.13,242.73Z" style="fill: rgb(38, 50, 56); stroke: rgb(38, 50, 56); stroke-miterlimit: 10; transform-origin: 253.655px 214.59px;" id="elo7h1p7lrgk" class="animable"></path><path d="M280.91,365.66s-3.88,6.1-13.66,6.59c-4.76.24-6.42,1.43-6.66,4.28s2.14,4.52,7.13,6.18,13.79,2.85,18.07,3.09,10.45,1.67,11.17-1.42,2.14-10.7,2.14-11.41S280.91,365.66,280.91,365.66Z" style="fill: rgb(38, 50, 56); stroke: rgb(38, 50, 56); stroke-miterlimit: 10; transform-origin: 279.837px 375.999px;" id="elmqjeswsg418" class="animable"></path><path d="M259.07,220.93c-1.25,15.48-2.68,35.76-2.68,47.53,0,20.92,7.61,39.7,10.46,46.59s7.77,21.31,8,22.26,2.62,14.26,3.57,17.59,1.42,5.71,1.42,5.71-2.61,5-2.61,7.13,2.93-.93,2.93-.93a101.6,101.6,0,0,0,12.13,3.56c6.41,1.43,8,5.55,8,5.55s.43-4.62.91-24.82S289.67,291,289.67,284.86s4.51-59.66,4.51-59.66-24.95.24-32.56-3.32Z" style="fill: rgb(92, 92, 92); stroke: rgb(38, 50, 56); stroke-miterlimit: 10; transform-origin: 278.802px 298.425px;" id="elkr90su0kkj" class="animable"></path><path d="M295.53,370.35s-6.18,4-8.08,5-10,2.62-10.7,4.52.48,5.23.48,5.23,15.92,3.09,23.29,3.56,17.35,1.19,18.54,0,.95-13.78.95-13.78S299.33,368.69,295.53,370.35Z" style="fill: rgb(38, 50, 56); stroke: rgb(38, 50, 56); stroke-miterlimit: 10; transform-origin: 298.279px 379.688px;" id="el27m784zapmc" class="animable"></path><path d="M279,250.4s3.09,38.27,5,44.92,12.52,42.71,13,47.22a74.48,74.48,0,0,1,.47,11.65c-.23,1.42-1.42,3.09-1.66,6.65s-.24,9.51-.24,9.51a18.11,18.11,0,0,1,7.85,3.33c3.8,2.85,10,3.56,13.07,3.09s3.56-.24,3.56-1.9v-6.18c0-4.52-.47-8.56,0-16.88s-2.53-34.15-4-41.75-5.94-17.83-6.18-20.92,5-27.81,5-35.89-1.42-27.09-1.42-27.09l-30.66-.72" style="fill: rgb(92, 92, 92); stroke: rgb(38, 50, 56); stroke-miterlimit: 10; transform-origin: 299.55px 301.172px;" id="elig4w7l0q74m" class="animable"></path><path d="M287.13,138.35l-6.58.3S267.4,159.57,265,173.92s-6.57,51.46-6.57,51.46,7.78,2.69,23.62,3,31.09-.6,31.09-.6,7.76-40.7,10.45-57.74-2.09-20.92-6.88-25.11a25.87,25.87,0,0,0-10.46-5.38Z" style="fill: rgb(38, 50, 56); stroke: rgb(38, 50, 56); stroke-miterlimit: 10; transform-origin: 291.399px 183.397px;" id="el1azslibi12p" class="animable"></path><path d="M259,218.2a72.65,72.65,0,0,0,21.23,3.89c11.65.3,33.78-.6,33.78-.6v8.07l-12,.6s0,23.62-.3,24.51,1.49,1.8-10.16,1.8-22.72-2.09-23.32-4.49,2-22.66,2-22.66l-11.91-3.94Z" style="fill: rgb(255, 255, 255); stroke: rgb(38, 50, 56); stroke-miterlimit: 10; transform-origin: 286.165px 237.335px;" id="elczv89g3b11e" class="animable"></path><path d="M280.07,227.31l-5.23-.09.18-10.58a2.63,2.63,0,0,1,2.67-2.57h0a2.63,2.63,0,0,1,2.57,2.66Z" style="fill: rgb(255, 255, 255); stroke: rgb(38, 50, 56); stroke-miterlimit: 10; transform-origin: 277.55px 220.69px;" id="el3wim9ceri8q" class="animable"></path><line x1="277.57" y1="227.04" x2="277.26" y2="244.33" style="fill: rgb(255, 255, 255); stroke: rgb(38, 50, 56); stroke-miterlimit: 10; transform-origin: 277.415px 235.685px;" id="elh18wulwr0g" class="animable"></line><g id="el2orr53w6qsb"><rect x="273.91" y="226.81" width="6.83" height="2.28" style="fill: rgb(255, 255, 255); stroke: rgb(38, 50, 56); stroke-miterlimit: 10; transform-origin: 277.325px 227.95px; transform: rotate(1.02deg);" class="animable"></rect></g><path d="M277.33,225.59h0a1,1,0,0,1-1.05-1.05V217a1,1,0,0,1,1.05-1h0a1,1,0,0,1,1.05,1v7.5A1,1,0,0,1,277.33,225.59Z" style="fill: rgb(255, 255, 255); stroke: rgb(38, 50, 56); stroke-miterlimit: 10; transform-origin: 277.331px 220.795px;" id="elx309twohb78" class="animable"></path><path d="M291.11,229.76l-5.24-.1.19-10.57a2.61,2.61,0,0,1,2.66-2.57h0a2.6,2.6,0,0,1,2.57,2.66Z" style="fill: rgb(255, 255, 255); stroke: rgb(38, 50, 56); stroke-miterlimit: 10; transform-origin: 288.58px 223.14px;" id="elfjtq13yv7ho" class="animable"></path><line x1="288.61" y1="229.49" x2="288.3" y2="246.78" style="fill: rgb(255, 255, 255); stroke: rgb(38, 50, 56); stroke-miterlimit: 10; transform-origin: 288.455px 238.135px;" id="elgl6wx4l1dbe" class="animable"></line><g id="eljmomoyvc2w"><rect x="284.95" y="229.25" width="6.83" height="2.28" style="fill: rgb(255, 255, 255); stroke: rgb(38, 50, 56); stroke-miterlimit: 10; transform-origin: 288.365px 230.39px; transform: rotate(1.14576deg);" class="animable"></rect></g><path d="M288.37,228h0a1.06,1.06,0,0,1-1.06-1.06v-7.49a1.06,1.06,0,0,1,1.06-1.06h0a1.06,1.06,0,0,1,1.05,1.06V227A1.06,1.06,0,0,1,288.37,228Z" style="fill: rgb(255, 255, 255); stroke: rgb(38, 50, 56); stroke-miterlimit: 10; transform-origin: 288.365px 223.195px;" id="el9zhx16kavl9" class="animable"></path><path d="M271.24,231.1A30.4,30.4,0,0,0,282,232l-.93,23s-7.73,1.64-11.95-3.52Z" style="fill: rgb(255, 255, 255); stroke: rgb(38, 50, 56); stroke-miterlimit: 10; transform-origin: 275.56px 243.174px;" id="el42eors0vrv8" class="animable"></path><path d="M282,232s4.69,2.35,14.06.94l1.17,22.72s-9.37,3.28-16.16-.7Z" style="fill: rgb(255, 255, 255); stroke: rgb(38, 50, 56); stroke-miterlimit: 10; transform-origin: 289.15px 244.465px;" id="elvdv6v0jwoq" class="animable"></path><path d="M261.74,170.57s-19.11.45-21.62-.46-1.36-5.69.46-16.38,13.19-47.79,13.19-47.79-3.86-4.09-4.09-6.37,1.82-10.69,1.82-10.69-4.1,1.82-5.23.68,3.41-5.46,3.41-5.46,4.32-1.37,7.28.68,5.92,5.46,6.37,9.79-.91,13.65-2.05,20.48-3.18,31.17-3.18,31.17,10.24-6.6,13.42-8a24.52,24.52,0,0,1,14.11-1.59s-3.87,17.07-5.91,23-14.84,33.48-20.07,45.54-17.52,37.55-17.52,37.55-1.82-10,3.64-24.35S261.74,170.57,261.74,170.57Z" style="fill: rgb(178, 178, 178); stroke: rgb(38, 50, 56); stroke-miterlimit: 10; transform-origin: 262.151px 163.186px;" id="elo24ix7hf09" class="animable"></path><polygon points="251.63 109.2 263.28 110.86 261.62 117.75 250.44 115.61 251.63 109.2" style="fill: rgb(255, 255, 255); stroke: rgb(38, 50, 56); stroke-miterlimit: 10; transform-origin: 256.86px 113.475px;" id="el4g27umidgwd" class="animable"></polygon><path d="M249.73,113.48l14,2.61-4,27.57s9-5,13.31-6.42,11.18,0,11.18,0,1.74,1.93-.32,7-8,24.82-10.86,32-31.84,69.65-31.84,69.65-1.19-10.22,1.43-18.3,17.58-57.06,17.58-57.06-18.3,1.19-20.44.48-1.9-8.32-1.67-10.22S249.73,113.48,249.73,113.48Z" style="fill: rgb(25, 118, 210); stroke: rgb(38, 50, 56); stroke-miterlimit: 10; transform-origin: 261.43px 179.685px;" id="elwoan3hyme3" class="animable"></path><path d="M260.32,195.64l23.88-58.4-4.88-.56L256.4,194.1l-2.72-.9c-.46,1.43-1.28,3.76-1.76,5.25l2.46,1.73,5.27,5c1.13-2.35,3.11-6.31,4.16-8.49Z" style="fill: rgb(255, 255, 255); stroke: rgb(38, 50, 56); stroke-miterlimit: 10; transform-origin: 268.06px 170.93px;" id="elxkifqicyxq" class="animable"></path><path d="M282.49,94.61s4.62-9.93,9.7-12.47,14.32,1.15,14.32,1.15S318.75,88.6,322,96.92s-2.54,23.56-2.54,23.56L281.8,96.23Z" style="fill: rgb(255, 255, 255); stroke: rgb(38, 50, 56); stroke-miterlimit: 10; transform-origin: 302.395px 100.864px;" id="elc0giswe1zh" class="animable"></path><path d="M294.73,93.43a38,38,0,0,0,2.51-5.23,9,9,0,0,0-.23-5.47,14.73,14.73,0,0,1,6.6.91" style="fill: none; stroke: rgb(38, 50, 56); stroke-miterlimit: 10; transform-origin: 299.17px 88.0494px;" id="elg033u82gm3m" class="animable"></path><path d="M279.49,106.39s-7.62-6.93-7.62-9.47,20.32-4.62,25.17-3,12,12,15,15,12,9,10.16,13.16-7.85,7.4-15,3S280,107.31,280,107.31c2.54-2.31,4.16-.23,4.16-.23" style="fill: rgb(255, 255, 255); stroke: rgb(38, 50, 56); stroke-miterlimit: 10; transform-origin: 297.158px 110.265px;" id="elcwh8ual2sgm" class="animable"></path><path d="M314.6,114.24s-8.78-10.39-15.94-13.39-15.48-.93-17.55,1.38-6.24,13.4-6.47,16.86S274,133.18,276,134.34s8.55,1.84,8.55,1.84a98.92,98.92,0,0,0-1.15,15c.23,6,4.45,5.81,7.68,4.42s16.57-14.35,16.57-16a37.5,37.5,0,0,0-.7-5.08l2.78-7.63S318.52,121.63,314.6,114.24Z" style="fill: rgb(178, 178, 178); stroke: rgb(38, 50, 56); stroke-miterlimit: 10; transform-origin: 295.024px 127.881px;" id="elsc9pxoqv2nq" class="animable"></path><path d="M303.69,103.84a12,12,0,0,1,1.44,4.17c0,1.84-2.08,12.47-2.08,12.47s2.54,1.38,3.23-.7,1.62-7.39,8.32-5.54A76.48,76.48,0,0,0,303.69,103.84Z" style="fill: rgb(38, 50, 56); stroke: rgb(38, 50, 56); stroke-miterlimit: 10; transform-origin: 308.825px 112.384px;" id="el0gzgqop2nnfk" class="animable"></path><path d="M284.8,119.09c-.69-.23-6-2.08-6.23-3.46s6.46-6.7,6.46-6.7v-2.31s-2-1.87-5.08.69" style="fill: none; stroke: rgb(38, 50, 56); stroke-miterlimit: 10; transform-origin: 281.797px 112.525px;" id="elqwdfe1ns6k" class="animable"></path><path d="M282,118.63s-7.62-1.62-6.47,3.23c.36,1.51,8.09,2.78,10.63,3s8.77.46,7.62-2.31S285,117.94,282,118.63Z" style="fill: rgb(38, 50, 56); stroke: rgb(38, 50, 56); stroke-miterlimit: 10; transform-origin: 284.666px 121.677px;" id="elokdcgc750u" class="animable"></path><path d="M290.81,107.54s5.31-2.77,7.62,2.08" style="fill: none; stroke: rgb(38, 50, 56); stroke-miterlimit: 10; transform-origin: 294.62px 108.186px;" id="elz9ycum0k0ka" class="animable"></path><path d="M295.18,112.11c-.18,1.14-.84,2-1.47,1.87s-1-1.1-.81-2.23.84-2,1.47-1.87S295.36,111,295.18,112.11Z" style="fill: rgb(38, 50, 56); transform-origin: 294.038px 111.93px;" id="elakawiv7ppog" class="animable"></path><path d="M282,110.31c-.15.94-.69,1.63-1.21,1.54s-.82-.9-.67-1.84.69-1.62,1.21-1.54S282.18,109.38,282,110.31Z" style="fill: rgb(38, 50, 56); transform-origin: 281.065px 110.161px;" id="elud819wqj76" class="animable"></path><path d="M291,113.78s1.15,3,5.54,2.77" style="fill: none; stroke: rgb(38, 50, 56); stroke-miterlimit: 10; transform-origin: 293.77px 115.171px;" id="elbgen6qs7kfw" class="animable"></path><polygon points="284.57 136.18 293.35 136.88 283.88 144.27 284.57 136.18" style="fill: rgb(38, 50, 56); stroke: rgb(38, 50, 56); stroke-miterlimit: 10; transform-origin: 288.615px 140.225px;" id="el3vdonpjo9si" class="animable"></polygon><path d="M307.67,139.65S294.73,167.6,292.42,175s.67,40.36.67,46.83,4,37.11,4,37.11,14.09-1.62,22.41-5.31a73,73,0,0,0,12.93-7.16l-13.23-41.27s14.12-36.9,16-45.68-3-13.63-9-15.94S307.67,139.65,307.67,139.65Z" style="fill: rgb(25, 118, 210); stroke: rgb(38, 50, 56); stroke-miterlimit: 10; transform-origin: 313.576px 199.295px;" id="el67hwz1bg42v" class="animable"></path><path d="M319.2,205.23l-15.12-3.59s-2.6-17.85,3.08-35.66,12.51-23.88,12.51-23.88l-8.34-1.52s-8,17.06-11.75,27.29-2.7,35.29-2.7,35.29l-4.75,1.35c.29,3.16.49,5.14.76,7.86,4.85-1.31,12.75-2.65,14.61-2.39,1.67.24,8.89,1.53,14,2.45Z" style="fill: rgb(255, 255, 255); stroke: rgb(38, 50, 56); stroke-miterlimit: 10; transform-origin: 306.815px 176.505px;" id="elkll8qdpzyc" class="animable"></path><path d="M247.91,119.57l-3.76-10.87H235.6l-3.42,11.09a9,9,0,0,0-1.19,4.5,9.12,9.12,0,1,0,16.92-4.72Z" style="fill: rgb(255, 255, 255); stroke: rgb(38, 50, 56); stroke-miterlimit: 10; transform-origin: 240.11px 121.058px;" id="elgiwx5usdfvk" class="animable"></path><rect x="235.6" y="101.77" width="8.78" height="6.93" style="fill: rgb(38, 50, 56); stroke: rgb(38, 50, 56); stroke-miterlimit: 10; transform-origin: 239.99px 105.235px;" id="elnj1lssdiuz" class="animable"></rect><rect x="235.14" y="75.9" width="4.39" height="4.62" style="fill: rgb(38, 50, 56); stroke: rgb(38, 50, 56); stroke-miterlimit: 10; transform-origin: 237.335px 78.21px;" id="el6k5yluwqu4i" class="animable"></rect><path d="M236.53,79.83a41,41,0,0,1-5.78,8.77c-3.23,3.47-1.38,6,1.16,6.47s6.93.46,6.93,2.08v4.39" style="fill: none; stroke: rgb(38, 50, 56); stroke-miterlimit: 10; transform-origin: 233.934px 90.685px;" id="el6qqfxwdmtxx" class="animable"></path><path d="M238.15,80.75s-7.16,9.47-6.93,10.86,8.08,2.77,9.7,3.46,1.15,6.47,1.15,6.47" style="fill: none; stroke: rgb(38, 50, 56); stroke-miterlimit: 10; transform-origin: 236.674px 91.145px;" id="el5coe2mjyl8t" class="animable"></path><line x1="236.53" y1="76.13" x2="236.53" y2="14.23" style="fill: none; stroke: rgb(38, 50, 56); stroke-miterlimit: 10; transform-origin: 236.53px 45.18px;" id="elrd0g6gtvttq" class="animable"></line><line x1="238.84" y1="14" x2="238.84" y2="77.29" style="fill: none; stroke: rgb(38, 50, 56); stroke-miterlimit: 10; transform-origin: 238.84px 45.645px;" id="elui0tnpdsu1a" class="animable"></line><path d="M256.62,142.88l-3.46-6.47s-2.31-10.85-2.31-11.77-3-7.16-4.16-9.24-2.31-1.85-2.31.46,2.08,6.23,2.08,6.93a12.34,12.34,0,0,1-.69,2.54s-9.7-6.93-10.86-8.09-3.23.47-3.23,1.85a11.45,11.45,0,0,0,.69,3.47c.23.69-1.15,5.54-1.15,7.16a12.54,12.54,0,0,0,2.08,5.77c1.15,1.85,9.46,4.62,9.46,4.62l7.4,10.39Z" style="fill: rgb(178, 178, 178); stroke: rgb(38, 50, 56); stroke-miterlimit: 10; transform-origin: 243.92px 132.237px;" id="elqe934xywmfg" class="animable"></path><path d="M261.94,144.5l-6.47-5.31-9.84,9.57s7,7.32,7.67,7.32S261.94,144.5,261.94,144.5Z" style="fill: rgb(255, 255, 255); stroke: rgb(38, 50, 56); stroke-miterlimit: 10; transform-origin: 253.785px 147.635px;" id="elwwgbno6ls6m" class="animable"></path><path d="M316.68,149.12l-20.56,15.94-35.57-22.41L249.46,157.2s21.25,16.86,28.41,23.79,18.48,13.4,24,10.4,27.72-19.87,28.41-20.56" style="fill: rgb(25, 118, 210); stroke: rgb(38, 50, 56); stroke-miterlimit: 10; transform-origin: 289.87px 167.397px;" id="ele5m55tmpjx5" class="animable"></path><path d="M301.43,160.9s13.17-.23,15.48,20.09l9.47-6.93s-2.08-16.16-17.1-18.71Z" style="fill: rgb(255, 255, 255); stroke: rgb(38, 50, 56); stroke-miterlimit: 10; transform-origin: 313.905px 168.17px;" id="elfd24zxc6myl" class="animable"></path><polygon points="265.63 71.51 210.2 71.51 228.82 49.34 247.01 49.34 265.63 71.51" style="fill: rgb(255, 255, 255); stroke: rgb(38, 50, 56); stroke-miterlimit: 10; transform-origin: 237.915px 60.425px;" id="ele9jbqifnitp" class="animable"></polygon><rect x="228.82" y="40.1" width="17.64" height="9.24" style="fill: rgb(255, 255, 255); stroke: rgb(38, 50, 56); stroke-miterlimit: 10; transform-origin: 237.64px 44.72px;" id="el4911wkjm5rm" class="animable"></rect><line x1="219.72" y1="66.33" x2="217.41" y2="69.31" style="fill: none; stroke: rgb(38, 50, 56); stroke-miterlimit: 10; transform-origin: 218.565px 67.82px;" id="elkecpt36r2jp" class="animable"></line><polyline points="221.91 63.49 232.5 49.82 232.5 42.9" style="fill: none; stroke: rgb(38, 50, 56); stroke-miterlimit: 10; transform-origin: 227.205px 53.195px;" id="ellx6tsp6t3ce" class="animable"></polyline><path d="M257.11,81.36s-2.26-1.9-3.92-1.94-6.66,1.49-5.85,2.7S257.11,81.36,257.11,81.36Z" style="fill: rgb(178, 178, 178); stroke: rgb(38, 50, 56); stroke-miterlimit: 10; transform-origin: 252.181px 80.9661px;" id="el4v68vyhv53h" class="animable"></path><path d="M260.47,83.6a8.26,8.26,0,0,0-3.36-2.24c-2-.61-7.53,1.22-7.37,2.22s4.41,1.15,5.42,1S260.47,83.6,260.47,83.6Z" style="fill: rgb(178, 178, 178); stroke: rgb(38, 50, 56); stroke-miterlimit: 10; transform-origin: 255.103px 82.934px;" id="elp5wbsaezdgp" class="animable"></path><path d="M265.11,91.6s-1.44-7.7-2.58-8.72-7.46.56-8.36,1.26.56,2.28,1.22,2.46a46.13,46.13,0,0,0,4.69.09l.72,5.15Z" style="fill: rgb(178, 178, 178); stroke: rgb(38, 50, 56); stroke-miterlimit: 10; transform-origin: 259.497px 87.1932px;" id="elplhke83ocra" class="animable"></path><path d="M247.9,87.58l3.29-4.08,8.24,6.64a2.62,2.62,0,0,1,.39,3.68h0a2.62,2.62,0,0,1-3.68.39Z" style="fill: rgb(255, 255, 255); stroke: rgb(38, 50, 56); stroke-miterlimit: 10; transform-origin: 254.15px 89.1452px;" id="elipfxowjwuy" class="animable"></path><line x1="249.65" y1="85.77" x2="236.18" y2="74.92" style="fill: rgb(255, 255, 255); stroke: rgb(38, 50, 56); stroke-miterlimit: 10; transform-origin: 242.915px 80.345px;" id="elef1crbgo94k" class="animable"></line><g id="el3mrty7n0bkj"><rect x="245.67" y="83.88" width="6.83" height="2.28" style="fill: rgb(255, 255, 255); stroke: rgb(38, 50, 56); stroke-miterlimit: 10; transform-origin: 249.085px 85.02px; transform: rotate(128.86deg);" class="animable"></rect></g><path d="M258.1,102.76c-.91-3.42,2.5-8.65,2.5-8.65a19.57,19.57,0,0,1-3.87-2.5c-1.13-1.14-1.13-3.87.46-3.41s7.73,3,7.73,3a3.84,3.84,0,0,1,1.83,4.1c-.46,3-4.33,11.6-4.33,11.6" style="fill: rgb(178, 178, 178); stroke: rgb(38, 50, 56); stroke-miterlimit: 10; transform-origin: 261.381px 97.5241px;" id="el9px8ql4uej" class="animable"></path><rect x="176.6" y="354.35" width="109.34" height="5.23" style="fill: rgb(84, 84, 84); transform-origin: 231.27px 356.965px;" id="elxen8a1wd37" class="animable"></rect><polygon points="219.16 237.55 132.73 477 141.12 477 223.8 247.93 220.2 237.55 219.16 237.55" style="fill: rgb(84, 84, 84); transform-origin: 178.265px 357.275px;" id="elbs110e62d5w" class="animable"></polygon><polygon points="216.78 237.55 130.35 477 133.99 477 220.3 237.86 220.2 237.55 216.78 237.55" style="fill: rgb(38, 50, 56); transform-origin: 175.325px 357.275px;" id="el4cbetgsiw4k" class="animable"></polygon><polygon points="236.67 195.1 223.53 195.1 325.28 477 338.42 477 236.67 195.1" style="fill: rgb(84, 84, 84); transform-origin: 280.975px 336.05px;" id="elp6k7qtxkj" class="animable"></polygon><polygon points="239.04 195.1 225.9 195.1 327.65 477 340.79 477 239.04 195.1" style="fill: rgb(38, 50, 56); transform-origin: 283.345px 336.05px;" id="elixid0le6fab" class="animable"></polygon><polygon points="241.03 237.55 154.6 477 162.98 477 245.67 247.93 242.06 237.55 241.03 237.55" style="fill: rgb(84, 84, 84); transform-origin: 200.135px 357.275px;" id="el9ijkzy52evc" class="animable"></polygon><polygon points="238.65 237.55 152.22 477 155.85 477 242.17 237.86 242.06 237.55 238.65 237.55" style="fill: rgb(38, 50, 56); transform-origin: 197.195px 357.275px;" id="elixjla9rqo6" class="animable"></polygon><rect x="212.06" y="183.54" width="34.86" height="12.81" style="fill: rgb(84, 84, 84); transform-origin: 229.49px 189.945px;" id="elr8flbwess7" class="animable"></rect><rect x="214.07" y="183.54" width="32.86" height="12.81" style="fill: rgb(69, 69, 69); transform-origin: 230.5px 189.945px;" id="eln07yt9vjmrk" class="animable"></rect></g><defs>     <filter id="active" height="200%">         <feMorphology in="SourceAlpha" result="DILATED" operator="dilate" radius="2"></feMorphology>                <feFlood flood-color="#32DFEC" flood-opacity="1" result="PINK"></feFlood>        <feComposite in="PINK" in2="DILATED" operator="in" result="OUTLINE"></feComposite>        <feMerge>            <feMergeNode in="OUTLINE"></feMergeNode>            <feMergeNode in="SourceGraphic"></feMergeNode>        </feMerge>    </filter>    <filter id="hover" height="200%">        <feMorphology in="SourceAlpha" result="DILATED" operator="dilate" radius="2"></feMorphology>                <feFlood flood-color="#ff0000" flood-opacity="0.5" result="PINK"></feFlood>        <feComposite in="PINK" in2="DILATED" operator="in" result="OUTLINE"></feComposite>        <feMerge>            <feMergeNode in="OUTLINE"></feMergeNode>            <feMergeNode in="SourceGraphic"></feMergeNode>        </feMerge>            <feColorMatrix type="matrix" values="0   0   0   0   0                0   1   0   0   0                0   0   0   0   0                0   0   0   1   0 "></feColorMatrix>    </filter></defs></svg>