<svg class="animated" id="freepik_stories-dust-allergy" xmlns="http://www.w3.org/2000/svg" viewBox="0 0 500 500" version="1.1" xmlns:xlink="http://www.w3.org/1999/xlink" xmlns:svgjs="http://svgjs.com/svgjs"><style>svg#freepik_stories-dust-allergy:not(.animated) .animable {opacity: 0;}svg#freepik_stories-dust-allergy.animated #freepik--background-complete--inject-160 {animation: 1s 1 forwards cubic-bezier(.36,-0.01,.5,1.38) zoomOut;animation-delay: 0s;}svg#freepik_stories-dust-allergy.animated #freepik--Floor--inject-160 {animation: 1s 1 forwards cubic-bezier(.36,-0.01,.5,1.38) zoomIn;animation-delay: 0s;}svg#freepik_stories-dust-allergy.animated #freepik--Picture--inject-160 {animation: 1s 1 forwards cubic-bezier(.36,-0.01,.5,1.38) slideLeft;animation-delay: 0s;}svg#freepik_stories-dust-allergy.animated #freepik--Table--inject-160 {animation: 1s 1 forwards cubic-bezier(.36,-0.01,.5,1.38) lightSpeedRight;animation-delay: 0s;}svg#freepik_stories-dust-allergy.animated #freepik--Dust--inject-160 {animation: 1s 1 forwards cubic-bezier(.36,-0.01,.5,1.38) slideLeft;animation-delay: 0s;}svg#freepik_stories-dust-allergy.animated #freepik--Character--inject-160 {animation: 1s 1 forwards cubic-bezier(.36,-0.01,.5,1.38) fadeIn;animation-delay: 0s;}            @keyframes zoomOut {                0% {                    opacity: 0;                    transform: scale(1.5);                }                100% {                    opacity: 1;                    transform: scale(1);                }            }                    @keyframes zoomIn {                0% {                    opacity: 0;                    transform: scale(0.5);                }                100% {                    opacity: 1;                    transform: scale(1);                }            }                    @keyframes slideLeft {                0% {                    opacity: 0;                    transform: translateX(-30px);                }                100% {                    opacity: 1;                    transform: translateX(0);                }            }                    @keyframes lightSpeedRight {              from {                transform: translate3d(50%, 0, 0) skewX(-20deg);                opacity: 0;              }              60% {                transform: skewX(10deg);                opacity: 1;              }              80% {                transform: skewX(-2deg);              }              to {                opacity: 1;                transform: translate3d(0, 0, 0);              }            }                    @keyframes fadeIn {                0% {                    opacity: 0;                }                100% {                    opacity: 1;                }            }        </style><g id="freepik--background-complete--inject-160" class="animable" style="transform-origin: 163.505px 152.5px;"><rect x="222.22" y="40.43" width="64.36" height="67.09" style="fill: rgb(224, 224, 224); transform-origin: 254.4px 73.975px;" id="ele5qw04715co" class="animable"></rect><rect x="217.86" y="40.43" width="64.36" height="67.09" style="fill: rgb(250, 250, 250); transform-origin: 250.04px 73.975px;" id="eldnk38cq0er7" class="animable"></rect><path d="M282.24,107.54h-64.4V40.41h64.4Zm-64.36,0H282.2v-67H217.88Z" style="fill: rgb(224, 224, 224); transform-origin: 250.04px 73.975px;" id="elacenf0uagff" class="animable"></path><rect x="226.51" y="49.45" width="47.06" height="49.05" style="fill: rgb(255, 255, 255); transform-origin: 250.04px 73.975px;" id="el10pub4alr31m" class="animable"></rect><path d="M226.51,98.83a8,8,0,0,1-1.16,1.35c-.75.79-1.8,1.86-3,3s-2.27,2.2-3.07,2.94a7.23,7.23,0,0,1-1.36,1.13,7.41,7.41,0,0,1,1.15-1.34c.75-.79,1.81-1.87,3-3s2.28-2.21,3.08-3A6.91,6.91,0,0,1,226.51,98.83Z" style="fill: rgb(224, 224, 224); transform-origin: 222.215px 103.04px;" id="elcjuwwvfftsg" class="animable"></path><path d="M273.57,98.7a8,8,0,0,1,1.35,1.17c.79.75,1.87,1.8,3,3s2.21,2.27,2.95,3.07a7.77,7.77,0,0,1,1.13,1.36,7.63,7.63,0,0,1-1.35-1.15c-.79-.76-1.86-1.81-3-3s-2.21-2.28-2.95-3.08A7.23,7.23,0,0,1,273.57,98.7Z" style="fill: rgb(224, 224, 224); transform-origin: 277.785px 103px;" id="elw1c9maiw3fi" class="animable"></path><path d="M273.44,49.58a7.73,7.73,0,0,1,1.16-1.35c.75-.8,1.81-1.87,3-3s2.28-2.21,3.08-3A7.77,7.77,0,0,1,282,41.12a7.26,7.26,0,0,1-1.16,1.34c-.75.8-1.81,1.87-3,3s-2.28,2.21-3.08,3A7.63,7.63,0,0,1,273.44,49.58Z" style="fill: rgb(224, 224, 224); transform-origin: 277.72px 45.35px;" id="elif5cdxjv94r" class="animable"></path><path d="M226.39,49.7A7.21,7.21,0,0,1,225,48.54c-.8-.75-1.87-1.81-3-3s-2.2-2.28-2.94-3.08a7.23,7.23,0,0,1-1.13-1.36,7.8,7.8,0,0,1,1.34,1.16c.8.75,1.87,1.81,3,3s2.21,2.28,2.95,3.08A7.63,7.63,0,0,1,226.39,49.7Z" style="fill: rgb(224, 224, 224); transform-origin: 222.16px 45.4px;" id="ela45lq644u8r" class="animable"></path><path d="M273.44,98.5s0-.08,0-.24,0-.39,0-.68c0-.62,0-1.5,0-2.65,0-2.33,0-5.71,0-10,0-8.59-.05-20.83-.09-35.48l.18.18-46.92,0h0l.21-.21c0,18,0,34.84,0,49.05l-.18-.18,34,.09,9.55,0,2.52,0h0l-2.49,0-9.5,0-34.1.09h-.17V98.5c0-14.21,0-31,0-49v-.21h.21l46.92,0h.18v.18c0,14.7-.07,27-.09,35.6,0,4.27,0,7.64,0,10,0,1.14,0,2,0,2.62,0,.28,0,.5,0,.66A.72.72,0,0,1,273.44,98.5Z" style="fill: rgb(224, 224, 224); transform-origin: 250.105px 73.895px;" id="elq97vybi51xm" class="animable"></path><rect x="242.19" y="66.12" width="15.7" height="15.7" style="fill: rgb(235, 235, 235); transform-origin: 250.04px 73.97px;" id="elwfg7ptc3e3d" class="animable"></rect><g id="elk1e3n5dsbc"><rect x="40.43" y="28.86" width="128.18" height="165.56" style="fill: rgb(224, 224, 224); transform-origin: 104.52px 111.64px; transform: rotate(180deg);" class="animable"></rect></g><path d="M40.43,194.42a3.23,3.23,0,0,1,.35-.45l1.1-1.24L46.21,188l0-.06h.08c11.14-.11,33-.19,58.18-.19s47,.08,58.18.19h.08l.05.06,4.33,4.74,1.1,1.24a2.45,2.45,0,0,1,.35.45,3.14,3.14,0,0,1-.42-.38L167,192.86l-4.45-4.62.13,0c-11.14.12-33,.19-58.18.19s-47-.07-58.18-.19l.13,0L42,192.86,40.85,194A3.14,3.14,0,0,1,40.43,194.42Z" style="fill: rgb(235, 235, 235); transform-origin: 104.495px 191.09px;" id="elaagrqvx7zss" class="animable"></path><path d="M168.61,28.86a2.45,2.45,0,0,1-.35.45l-1.1,1.24-4.33,4.74-.05.06h-.08c-11.14.11-33,.19-58.18.19s-47-.08-58.18-.19h-.08l0-.06-4.33-4.74-1.1-1.24a3.23,3.23,0,0,1-.35-.45,3.14,3.14,0,0,1,.42.38L42,30.42,46.47,35l-.13,0c11.14-.12,33-.19,58.18-.19s47,.07,58.18.19l-.13,0L167,30.42l1.17-1.18A3.14,3.14,0,0,1,168.61,28.86Z" style="fill: rgb(235, 235, 235); transform-origin: 104.545px 32.2px;" id="elx2ru0s13mt" class="animable"></path><g id="el29p2yh4j4ab"><rect x="46.34" y="35.17" width="116.36" height="152.94" style="fill: rgb(255, 255, 255); transform-origin: 104.52px 111.64px; transform: rotate(180deg);" class="animable"></rect></g><path d="M142.88,53.92c.21,0,.37,25.73.37,57.47s-.16,57.47-.37,57.47-.37-25.73-.37-57.47S142.68,53.92,142.88,53.92Z" style="fill: rgb(224, 224, 224); transform-origin: 142.88px 111.39px;" id="elhqrmlwqer7" class="animable"></path><path d="M139.24,53.92c.21,0,.38,25.73.38,57.47s-.17,57.47-.38,57.47-.37-25.73-.37-57.47S139,53.92,139.24,53.92Z" style="fill: rgb(224, 224, 224); transform-origin: 139.245px 111.39px;" id="elxieaiwcyrz" class="animable"></path><path d="M135.6,53.92c.21,0,.38,25.73.38,57.47s-.17,57.47-.38,57.47-.37-25.73-.37-57.47S135.4,53.92,135.6,53.92Z" style="fill: rgb(224, 224, 224); transform-origin: 135.605px 111.39px;" id="el74gplw7im62" class="animable"></path><path d="M132,53.92c.21,0,.38,25.73.38,57.47s-.17,57.47-.38,57.47-.37-25.73-.37-57.47S131.76,53.92,132,53.92Z" style="fill: rgb(224, 224, 224); transform-origin: 132.005px 111.39px;" id="elmhdf4vnzp" class="animable"></path><path d="M128.32,53.92c.21,0,.38,25.73.38,57.47s-.17,57.47-.38,57.47-.37-25.73-.37-57.47S128.12,53.92,128.32,53.92Z" style="fill: rgb(224, 224, 224); transform-origin: 128.325px 111.39px;" id="elh5itezybpo" class="animable"></path><path d="M124.68,53.92c.21,0,.38,25.73.38,57.47s-.17,57.47-.38,57.47-.37-25.73-.37-57.47S124.48,53.92,124.68,53.92Z" style="fill: rgb(224, 224, 224); transform-origin: 124.685px 111.39px;" id="ele2oebrk6olv" class="animable"></path><path d="M121,53.92c.21,0,.38,25.73.38,57.47s-.17,57.47-.38,57.47-.37-25.73-.37-57.47S120.84,53.92,121,53.92Z" style="fill: rgb(224, 224, 224); transform-origin: 121.005px 111.39px;" id="elqks7a75h1gi" class="animable"></path><path d="M117.4,53.92c.21,0,.38,25.73.38,57.47s-.17,57.47-.38,57.47-.37-25.73-.37-57.47S117.2,53.92,117.4,53.92Z" style="fill: rgb(224, 224, 224); transform-origin: 117.405px 111.39px;" id="el6031g22wsrt" class="animable"></path><path d="M113.77,53.92c.2,0,.37,25.73.37,57.47s-.17,57.47-.37,57.47-.38-25.73-.38-57.47S113.56,53.92,113.77,53.92Z" style="fill: rgb(224, 224, 224); transform-origin: 113.765px 111.39px;" id="elbwovkyj0ce6" class="animable"></path><path d="M110.13,53.92c.2,0,.37,25.73.37,57.47s-.17,57.47-.37,57.47-.38-25.73-.38-57.47S109.92,53.92,110.13,53.92Z" style="fill: rgb(224, 224, 224); transform-origin: 110.125px 111.39px;" id="elnd23d87akm" class="animable"></path><path d="M106.49,53.92c.2,0,.37,25.73.37,57.47s-.17,57.47-.37,57.47-.38-25.73-.38-57.47S106.28,53.92,106.49,53.92Z" style="fill: rgb(224, 224, 224); transform-origin: 106.485px 111.39px;" id="elt5rmx8w81ka" class="animable"></path><path d="M102.85,53.92c.2,0,.37,25.73.37,57.47s-.17,57.47-.37,57.47-.38-25.73-.38-57.47S102.64,53.92,102.85,53.92Z" style="fill: rgb(224, 224, 224); transform-origin: 102.845px 111.39px;" id="el3rims39wswh" class="animable"></path><path d="M99.21,53.92c.2,0,.37,25.73.37,57.47s-.17,57.47-.37,57.47-.38-25.73-.38-57.47S99,53.92,99.21,53.92Z" style="fill: rgb(224, 224, 224); transform-origin: 99.205px 111.39px;" id="el4frnp1niat5" class="animable"></path><path d="M95.57,53.92c.2,0,.37,25.73.37,57.47s-.17,57.47-.37,57.47-.38-25.73-.38-57.47S95.36,53.92,95.57,53.92Z" style="fill: rgb(224, 224, 224); transform-origin: 95.565px 111.39px;" id="elofg41mys51l" class="animable"></path><path d="M91.93,53.92c.2,0,.37,25.73.37,57.47s-.17,57.47-.37,57.47-.38-25.73-.38-57.47S91.72,53.92,91.93,53.92Z" style="fill: rgb(224, 224, 224); transform-origin: 91.925px 111.39px;" id="elmutejpt3a8h" class="animable"></path><path d="M88.29,53.92c.2,0,.37,25.73.37,57.47s-.17,57.47-.37,57.47-.38-25.73-.38-57.47S88.08,53.92,88.29,53.92Z" style="fill: rgb(224, 224, 224); transform-origin: 88.285px 111.39px;" id="elv1bfs3atrf8" class="animable"></path><path d="M84.65,53.92c.2,0,.37,25.73.37,57.47s-.17,57.47-.37,57.47-.37-25.73-.37-57.47S84.44,53.92,84.65,53.92Z" style="fill: rgb(224, 224, 224); transform-origin: 84.65px 111.39px;" id="el0t2bs4beg7ir" class="animable"></path><path d="M81,53.92c.2,0,.37,25.73.37,57.47s-.17,57.47-.37,57.47-.37-25.73-.37-57.47S80.8,53.92,81,53.92Z" style="fill: rgb(224, 224, 224); transform-origin: 81px 111.39px;" id="elttofmxgp79r" class="animable"></path><path d="M77.37,53.92c.2,0,.37,25.73.37,57.47s-.17,57.47-.37,57.47S77,143.13,77,111.39,77.16,53.92,77.37,53.92Z" style="fill: rgb(224, 224, 224); transform-origin: 77.37px 111.39px;" id="elhnmtux8kpag" class="animable"></path><path d="M73.73,53.92c.2,0,.37,25.73.37,57.47s-.17,57.47-.37,57.47-.37-25.73-.37-57.47S73.52,53.92,73.73,53.92Z" style="fill: rgb(224, 224, 224); transform-origin: 73.73px 111.39px;" id="elszxp15aw4qg" class="animable"></path><path d="M70.09,53.92c.2,0,.37,25.73.37,57.47s-.17,57.47-.37,57.47-.37-25.73-.37-57.47S69.88,53.92,70.09,53.92Z" style="fill: rgb(224, 224, 224); transform-origin: 70.09px 111.39px;" id="elr36cbz3vnl" class="animable"></path><path d="M66.45,53.92c.2,0,.37,25.73.37,57.47s-.17,57.47-.37,57.47-.37-25.73-.37-57.47S66.24,53.92,66.45,53.92Z" style="fill: rgb(224, 224, 224); transform-origin: 66.45px 111.39px;" id="ely60w5qjsfb" class="animable"></path><path d="M103.63,262.8v13H47.8a6.5,6.5,0,0,1-6.49-6.49h0a6.49,6.49,0,0,1,6.49-6.49" style="fill: rgb(224, 224, 224); transform-origin: 72.47px 269.3px;" id="elb31edtbr88e" class="animable"></path><path d="M84.75,265.52h18.88a0,0,0,0,1,0,0v7.54a0,0,0,0,1,0,0H84.75a3.28,3.28,0,0,1-3.28-3.28v-1A3.28,3.28,0,0,1,84.75,265.52Z" style="fill: rgb(250, 250, 250); transform-origin: 92.55px 269.29px;" id="elvj5yrxmbvs" class="animable"></path><path d="M103.63,249.81v13H47.8a6.5,6.5,0,0,1-6.49-6.49h0a6.5,6.5,0,0,1,6.49-6.49Z" style="fill: rgb(245, 245, 245); transform-origin: 72.47px 256.31px;" id="el0a7sgvge11zn" class="animable"></path><path d="M84.75,252.53h18.88a0,0,0,0,1,0,0v7.54a0,0,0,0,1,0,0H84.75a3.28,3.28,0,0,1-3.28-3.28v-1A3.28,3.28,0,0,1,84.75,252.53Z" style="fill: rgb(224, 224, 224); transform-origin: 92.55px 256.3px;" id="elbrr65icr93p" class="animable"></path><polygon points="122.73 255.31 113.86 276.14 119.57 276.14 123.51 265.02 122.73 255.31" style="fill: rgb(224, 224, 224); transform-origin: 118.685px 265.725px;" id="el6xbriufxumq" class="animable"></polygon><polygon points="149.95 236.47 153.38 276.14 124.4 276.14 121.22 236.47 149.95 236.47" style="fill: rgb(235, 235, 235); transform-origin: 137.3px 256.305px;" id="eld3ip2zilcbt" class="animable"></polygon><polygon points="147.12 239.62 150.12 272.85 128.37 273.13 125.43 239.42 147.12 239.62" style="fill: rgb(250, 250, 250); transform-origin: 137.775px 256.275px;" id="elfm1ud9r2f9v" class="animable"></polygon><polygon points="142.51 244.22 144.21 267.08 132.61 267.08 130.56 244.22 142.51 244.22" style="fill: rgb(224, 224, 224); transform-origin: 137.385px 255.65px;" id="elmtxkjz9uiep" class="animable"></polygon></g><g id="freepik--Floor--inject-160" class="animable" style="transform-origin: 232px 456.09px;"><path d="M440.67,456.68s-.36,0-1.08,0l-3.16,0-12.16,0-44.72,0c-37.76,0-89.93-.16-147.54-.42l-147.57-.58-44.72-.13-12.15-.05-3.16,0-1.08,0,1.08,0,3.16,0,12.16,0,44.71,0c37.77,0,89.94.17,147.57.43l147.54.57,44.72.13,12.16.05,3.16,0Z" style="fill: rgb(38, 50, 56); transform-origin: 232px 456.09px;" id="el6rc0vwflso6" class="animable"></path></g><g id="freepik--Picture--inject-160" class="animable" style="transform-origin: 391.21px 108.08px;"><rect x="327.39" y="25.65" width="127.64" height="164.85" style="fill: rgb(69, 90, 100); transform-origin: 391.21px 108.075px;" id="el4r9konawbsi" class="animable"></rect><path d="M455,25.65a2.91,2.91,0,0,1-.35.44l-1.09,1.24-4.32,4.72,0,.06h-.08c-11.09.11-32.9.19-57.93.19s-46.84-.08-57.93-.19h-.08l-.06-.06-4.31-4.72-1.09-1.24a2.91,2.91,0,0,1-.35-.44,3.14,3.14,0,0,1,.42.38L329,27.2l4.44,4.61-.13-.06c11.09-.11,32.89-.19,57.93-.19s46.84.08,57.93.19l-.13.06q2.85-3,4.44-4.61L454.61,26A3.14,3.14,0,0,1,455,25.65Z" style="fill: rgb(38, 50, 56); transform-origin: 391.205px 28.975px;" id="ela1pgsaaetcm" class="animable"></path><path d="M327.39,190.51a2.64,2.64,0,0,1,.35-.45l1.09-1.23q1.55-1.68,4.31-4.73l.06,0h.08c11.09-.12,32.9-.19,57.93-.19s46.84.07,57.93.19h.08l0,0,4.32,4.73,1.09,1.23a2.64,2.64,0,0,1,.35.45,3.14,3.14,0,0,1-.42-.38L453.45,189,449,184.35l.13.06c-11.09.11-32.9.19-57.93.19s-46.84-.08-57.93-.19l.13-.06L329,189l-1.16,1.17A3.14,3.14,0,0,1,327.39,190.51Z" style="fill: rgb(38, 50, 56); transform-origin: 391.185px 187.21px;" id="elllj4qlxez9" class="animable"></path><rect x="333.28" y="31.93" width="115.87" height="152.3" style="fill: rgb(255, 255, 255); transform-origin: 391.215px 108.08px;" id="ely0b48s181wm" class="animable"></rect><path d="M351.41,139.69c3.44-3.28,8.53-4.21,13.29-4.1s9.47,1.13,14.23,1.07c7.61-.09,15.2-2.91,22.7-1.61,2.39.41,4.82,1.25,7.2.74,2.09-.44,3.84-1.87,5.88-2.48,5.28-1.57,11.23,2.56,16.3.41v34h-79.6Z" style="fill: rgb(25, 118, 210); transform-origin: 391.21px 150.332px;" id="elf8epe62sx8u" class="animable"></path><path d="M353,141.06c-.21,0-.37-20.14-.37-45s.16-45,.37-45,.37,20.14.37,45S353.21,141.06,353,141.06Z" style="fill: rgb(38, 50, 56); transform-origin: 353px 96.06px;" id="eljsfc6apy7pi" class="animable"></path><path d="M356.63,141.06c-.2,0-.37-20.14-.37-45s.17-45,.37-45,.37,20.14.37,45S356.84,141.06,356.63,141.06Z" style="fill: rgb(38, 50, 56); transform-origin: 356.63px 96.06px;" id="eldpn6h2sv0l" class="animable"></path><path d="M360.26,141.06c-.21,0-.37-20.14-.37-45s.16-45,.37-45,.37,20.14.37,45S360.46,141.06,360.26,141.06Z" style="fill: rgb(38, 50, 56); transform-origin: 360.26px 96.06px;" id="el5uzeyd2wv4n" class="animable"></path><path d="M363.88,141.06c-.2,0-.37-20.14-.37-45s.17-45,.37-45,.37,20.14.37,45S364.09,141.06,363.88,141.06Z" style="fill: rgb(38, 50, 56); transform-origin: 363.88px 96.06px;" id="elne00rg6pkl8" class="animable"></path><path d="M367.51,141.06c-.21,0-.37-20.14-.37-45s.16-45,.37-45,.37,20.14.37,45S367.71,141.06,367.51,141.06Z" style="fill: rgb(38, 50, 56); transform-origin: 367.51px 96.06px;" id="elonbtnpq9pfd" class="animable"></path><path d="M371.13,141.06c-.2,0-.37-20.14-.37-45s.17-45,.37-45,.37,20.14.37,45S371.34,141.06,371.13,141.06Z" style="fill: rgb(38, 50, 56); transform-origin: 371.13px 96.06px;" id="el86a8lqna8c9" class="animable"></path><path d="M374.76,141.06c-.21,0-.37-20.14-.37-45s.16-45,.37-45,.36,20.14.36,45S375,141.06,374.76,141.06Z" style="fill: rgb(38, 50, 56); transform-origin: 374.755px 96.06px;" id="elbtr7hnnviss" class="animable"></path><path d="M378.38,141.06c-.2,0-.37-20.14-.37-45s.17-45,.37-45,.37,20.14.37,45S378.58,141.06,378.38,141.06Z" style="fill: rgb(38, 50, 56); transform-origin: 378.38px 96.06px;" id="elqia0uysamq" class="animable"></path><path d="M382,141.06c-.2,0-.37-20.14-.37-45s.17-45,.37-45,.37,20.14.37,45S382.21,141.06,382,141.06Z" style="fill: rgb(38, 50, 56); transform-origin: 382px 96.06px;" id="el5u4lp8xscr" class="animable"></path><path d="M385.63,141.06c-.21,0-.37-20.14-.37-45s.16-45,.37-45,.37,20.14.37,45S385.83,141.06,385.63,141.06Z" style="fill: rgb(38, 50, 56); transform-origin: 385.63px 96.06px;" id="elco828kbnt4" class="animable"></path><path d="M389.25,141.06c-.2,0-.37-20.14-.37-45s.17-45,.37-45,.37,20.14.37,45S389.46,141.06,389.25,141.06Z" style="fill: rgb(38, 50, 56); transform-origin: 389.25px 96.06px;" id="elveyyi9xjeqp" class="animable"></path><path d="M392.88,141.06c-.21,0-.37-20.14-.37-45s.16-45,.37-45,.37,20.14.37,45S393.08,141.06,392.88,141.06Z" style="fill: rgb(38, 50, 56); transform-origin: 392.88px 96.06px;" id="elohgfvtww4hc" class="animable"></path><path d="M396.5,141.06c-.2,0-.37-20.14-.37-45s.17-45,.37-45,.37,20.14.37,45S396.71,141.06,396.5,141.06Z" style="fill: rgb(38, 50, 56); transform-origin: 396.5px 96.06px;" id="elgg6wfeb8ecj" class="animable"></path><path d="M400.13,141.06c-.21,0-.37-20.14-.37-45s.16-45,.37-45,.37,20.14.37,45S400.33,141.06,400.13,141.06Z" style="fill: rgb(38, 50, 56); transform-origin: 400.13px 96.06px;" id="ellb3c53kf0ba" class="animable"></path><path d="M403.75,141.06c-.2,0-.37-20.14-.37-45s.17-45,.37-45,.37,20.14.37,45S404,141.06,403.75,141.06Z" style="fill: rgb(38, 50, 56); transform-origin: 403.75px 96.06px;" id="elakub0ocjbi6" class="animable"></path><path d="M407.37,141.06c-.2,0-.37-20.14-.37-45s.17-45,.37-45,.37,20.14.37,45S407.58,141.06,407.37,141.06Z" style="fill: rgb(38, 50, 56); transform-origin: 407.37px 96.06px;" id="elrl388vm44p" class="animable"></path><path d="M411,141.06c-.21,0-.37-20.14-.37-45s.16-45,.37-45,.37,20.14.37,45S411.2,141.06,411,141.06Z" style="fill: rgb(38, 50, 56); transform-origin: 411px 96.06px;" id="ele9oxnu9x3x" class="animable"></path><path d="M414.62,141.06c-.2,0-.37-20.14-.37-45s.17-45,.37-45,.37,20.14.37,45S414.83,141.06,414.62,141.06Z" style="fill: rgb(38, 50, 56); transform-origin: 414.62px 96.06px;" id="elcgrpdhdpdjh" class="animable"></path><path d="M418.25,141.06c-.21,0-.37-20.14-.37-45s.16-45,.37-45,.37,20.14.37,45S418.45,141.06,418.25,141.06Z" style="fill: rgb(38, 50, 56); transform-origin: 418.25px 96.06px;" id="el65t1u725bkh" class="animable"></path><path d="M421.87,141.06c-.2,0-.37-20.14-.37-45s.17-45,.37-45,.37,20.14.37,45S422.08,141.06,421.87,141.06Z" style="fill: rgb(38, 50, 56); transform-origin: 421.87px 96.06px;" id="elmesopa91pcd" class="animable"></path><path d="M425.5,141.06c-.21,0-.37-20.14-.37-45s.16-45,.37-45,.37,20.14.37,45S425.7,141.06,425.5,141.06Z" style="fill: rgb(38, 50, 56); transform-origin: 425.5px 96.06px;" id="el2nym76yrf8c" class="animable"></path><path d="M429.12,141.06c-.2,0-.37-20.14-.37-45s.17-45,.37-45,.37,20.14.37,45S429.33,141.06,429.12,141.06Z" style="fill: rgb(38, 50, 56); transform-origin: 429.12px 96.06px;" id="elie2oduwptu" class="animable"></path></g><g id="freepik--Table--inject-160" class="animable" style="transform-origin: 102.545px 366.39px;"><rect x="47.79" y="328.34" width="12.54" height="128.04" style="fill: rgb(69, 90, 100); transform-origin: 54.06px 392.36px;" id="eldlr2o7gyt6o" class="animable"></rect><path d="M60.33,456.38s0-.23,0-.67,0-1.09,0-1.91c0-1.7,0-4.17,0-7.34,0-6.39,0-15.62-.07-27.1,0-23-.06-54.92-.09-91l.22.33H47.79l.22-.33c0,55.34-.09,103.51-.12,128l-.1-.16,9.29.09,2.41,0,.84,0s-.26,0-.8,0l-2.39,0-9.35.09h-.11v-.16c0-24.53-.07-72.7-.12-128V328h13v.34c0,36.19-.07,68.24-.1,91.26,0,11.45-.05,20.65-.06,27,0,3.14,0,5.59,0,7.27,0,.8,0,1.42,0,1.87S60.33,456.38,60.33,456.38Z" style="fill: rgb(38, 50, 56); transform-origin: 54.06px 392.19px;" id="el0f6sdlidqopl" class="animable"></path><rect x="144.95" y="327.22" width="12.54" height="129.16" style="fill: rgb(69, 90, 100); transform-origin: 151.22px 391.8px;" id="el7hgmjpq42qd" class="animable"></rect><path d="M157.49,456.38s0-.24,0-.67,0-1.1,0-1.93c0-1.72,0-4.2,0-7.41,0-6.44,0-15.75-.06-27.34,0-23.16-.06-55.4-.1-91.81l.22.34H145l.22-.34c0,55.87-.09,104.49-.11,129.16l-.11-.16,9.29.09,2.42,0,.83,0s-.26,0-.79,0l-2.4,0-9.35.09h-.11v-.16c0-24.67-.07-73.29-.12-129.16v-.34h13v.34c0,36.51-.08,68.83-.1,92,0,11.55-.05,20.84-.07,27.27,0,3.17,0,5.63,0,7.33,0,.81,0,1.43,0,1.88S157.49,456.38,157.49,456.38Z" style="fill: rgb(38, 50, 56); transform-origin: 151.27px 391.57px;" id="el6yj87v7bv5y" class="animable"></path><polygon points="163.38 328.98 43.1 329.2 43.1 284.67 163.38 284.67 163.38 328.98" style="fill: rgb(69, 90, 100); transform-origin: 103.24px 306.935px;" id="elj2lsj7iwy3q" class="animable"></polygon><path d="M163.38,329s0-.28,0-.79,0-1.28,0-2.28c0-2,0-5,0-8.77,0-7.63-.05-18.69-.08-32.47l.15.15-120.28.07.22-.22V329.2L43.1,329l86.14-.07,25.08,0h8.46l.6,0h-.57l-1.72,0-6.68,0-25,.1-86.29.27h-.22v-.22c0-13.92,0-28.93,0-44.43v-.33h.23l120.28.07h.15v.16c0,13.82-.06,24.91-.08,32.56,0,3.8,0,6.73,0,8.74,0,1,0,1.73,0,2.25S163.38,329,163.38,329Z" style="fill: rgb(38, 50, 56); transform-origin: 103.23px 306.81px;" id="eln55r2fm7dos" class="animable"></path><path d="M153.49,320.18s0-.18,0-.51,0-.84,0-1.48c0-1.31,0-3.23,0-5.7,0-5,0-12.17-.09-21.21l.16.13-101.29.07h0l.25-.2c0,10,0,19.78,0,28.9l-.24-.2,72.46.09,21.17.06,5.69,0H153l.51,0h-1.93l-5.63,0-21.12.06-72.62.09H52v-.2c0-9.12,0-18.86,0-28.9v-.21h.25l101.29.07h.16v.14c0,9.07-.06,16.31-.08,21.29,0,2.46,0,4.37,0,5.67,0,.63,0,1.11,0,1.45S153.49,320.18,153.49,320.18Z" style="fill: rgb(38, 50, 56); transform-origin: 102.85px 305.625px;" id="elmus06g7o3zi" class="animable"></path><path d="M55.81,316.39a7.33,7.33,0,0,1-1.59,1.92A7.4,7.4,0,0,1,52.3,320,7.51,7.51,0,0,1,53.9,318,7.45,7.45,0,0,1,55.81,316.39Z" style="fill: rgb(38, 50, 56); transform-origin: 54.055px 318.195px;" id="el7rcdk9xgus" class="animable"></path><path d="M55.81,295.07a8.51,8.51,0,0,1-2-1.75,8.28,8.28,0,0,1-1.66-2,8.64,8.64,0,0,1,2,1.76A8,8,0,0,1,55.81,295.07Z" style="fill: rgb(38, 50, 56); transform-origin: 53.98px 293.195px;" id="eltyxxdd85ne8" class="animable"></path><path d="M153.67,291.37a8.07,8.07,0,0,1-2.2,2,14.28,14.28,0,0,1-2.53,1.7,8.17,8.17,0,0,1,2.21-2A13.4,13.4,0,0,1,153.67,291.37Z" style="fill: rgb(38, 50, 56); transform-origin: 151.305px 293.22px;" id="elxiognb17iv" class="animable"></path><path d="M153.5,320.18a10.42,10.42,0,0,1-2.45-1.75,9.41,9.41,0,0,1-2.1-2,10.86,10.86,0,0,1,2.44,1.74A9.77,9.77,0,0,1,153.5,320.18Z" style="fill: rgb(38, 50, 56); transform-origin: 151.225px 318.305px;" id="elr4lnx8gczhr" class="animable"></path><path d="M148.94,316.39s0-.13,0-.38,0-.61,0-1.08c0-1,0-2.37,0-4.18,0-3.65,0-9-.09-15.68l.15.12-92.73.08h0l.24-.2c0,7.32,0,14.47,0,21.32l-.23-.21,66.17.1,19.48.05,5.24,0h1.37l.47,0h-1.78l-5.19,0-19.42.06-66.34.09H56v-.2c0-6.85,0-14,0-21.32v-.21h.25l92.73.08h.15v.13c0,6.74-.06,12.08-.08,15.75,0,1.81,0,3.2,0,4.16,0,.45,0,.8,0,1.06S148.94,316.39,148.94,316.39Z" style="fill: rgb(38, 50, 56); transform-origin: 102.565px 305.615px;" id="el1j95lfdues5" class="animable"></path><path d="M111.12,303.76a9.07,9.07,0,0,0-2.26-1,7.62,7.62,0,0,0-2.23-.33h-6.19a7.37,7.37,0,0,0-4.94,1.8,4,4,0,0,0-.73.85A2.3,2.3,0,0,0,95,308c.79.7,2.42.36,2.55-.67a2.64,2.64,0,0,0,2.85,2.4,3.56,3.56,0,0,0,3-2.5,2.42,2.42,0,0,0,2.23,2.31,2.48,2.48,0,0,0,2.58-2c.76.95,1.89,1.83,3.2,1.43a2.25,2.25,0,0,0,1.48-1.57A3.46,3.46,0,0,0,111.12,303.76Z" style="fill: rgb(224, 224, 224); transform-origin: 103.647px 306.084px;" id="eljia571r48lo" class="animable"></path><path d="M101.54,302.43A12.06,12.06,0,0,0,99,304.64a11.63,11.63,0,0,0-1.44,3s-.09-.39,0-1a5.64,5.64,0,0,1,1-2.21,6.15,6.15,0,0,1,1.9-1.62C101.12,302.47,101.52,302.38,101.54,302.43Z" style="fill: rgb(38, 50, 56); transform-origin: 99.53px 305.029px;" id="elgoeg0l7bjyd" class="animable"></path><path d="M103.91,302.68a6.15,6.15,0,0,1,0,2.33,6.46,6.46,0,0,1-.47,2.28,6.12,6.12,0,0,1,0-2.33A6.24,6.24,0,0,1,103.91,302.68Z" style="fill: rgb(38, 50, 56); transform-origin: 103.675px 304.985px;" id="eljiv0hh9425" class="animable"></path><path d="M106.9,302.61s.35.08.72.46a3.61,3.61,0,0,1,.87,1.81,6,6,0,0,1,0,1.95c-.07.49-.16.79-.22.79s-.08-.32-.09-.8a11.28,11.28,0,0,0-.14-1.87,4.49,4.49,0,0,0-.68-1.7C107.1,302.86,106.86,302.66,106.9,302.61Z" style="fill: rgb(38, 50, 56); transform-origin: 107.733px 305.115px;" id="el682rp9zi9yp" class="animable"></path><rect x="34.47" y="276.61" width="136.12" height="10.72" style="fill: rgb(69, 90, 100); transform-origin: 102.53px 281.97px;" id="el5bi9u1o65by" class="animable"></rect><path d="M170.59,287.33s0-.25,0-.71,0-1.16,0-2.05c0-1.82,0-4.48,0-8l.08.08-136.12.14h0l.22-.22v10.72l-.22-.23,96.55.1,29,.06,7.86,0h2l.71,0h-.68l-2,0-7.81,0-28.9.07-96.72.09h-.23V276.38h.23l136.12.15h.08v.08c0,3.5,0,6.18,0,8,0,.89,0,1.57,0,2S170.59,287.33,170.59,287.33Z" style="fill: rgb(38, 50, 56); transform-origin: 102.545px 281.88px;" id="elbjkmxd095gd" class="animable"></path></g><g id="freepik--Dust--inject-160" class="animable" style="transform-origin: 248.773px 355.564px;"><path d="M290,375.77a14.12,14.12,0,0,0-15.23-9.91,11.61,11.61,0,1,0-20,.48c-4.62-2.33-10.94-1.82-14.17,2.22s.17,14.17,5.24,15.21c-5.25-.24-13.16,8-12.44,13.19s5.59,9.23,10.79,9.93,10.5-1.49,14.48-4.93c1.43,7.59,10.72,12.54,17.82,9.5s9.93-13.18,5.43-19.45A14.13,14.13,0,0,0,290,375.77Z" style="fill: rgb(235, 235, 235); transform-origin: 261.872px 380.483px;" id="elln81lkgae3m" class="animable"></path><path d="M381.74,361.71a16.88,16.88,0,0,0,19-10.52,13.87,13.87,0,1,0,10.72-21.43c5.05-3.57,8-10.52,5.59-16.19s-15-7.76-19-3c3.19-5.41-1.06-18.37-6.95-20.52s-12.88.73-16.53,5.83-4.31,11.92-2.9,18c-8.81-2.74-19.25,4.29-20,13.49S360,345.28,369.15,344A16.86,16.86,0,0,0,381.74,361.71Z" style="fill: rgb(224, 224, 224); transform-origin: 388.923px 325.677px;" id="elchx2rv5rw9g" class="animable"></path><path d="M221.56,443a18.84,18.84,0,0,0-16,.37,30,30,0,0,0-43.5-26,30.33,30.33,0,0,0-43.8-15.76,29.76,29.76,0,0,0-31.77-9.09A29.76,29.76,0,0,0,66.87,419,23,23,0,0,0,45,425c-5.55,5.65-12.9,23-10.71,30.6l197.61-.4A18.83,18.83,0,0,0,221.56,443Z" style="fill: rgb(224, 224, 224); transform-origin: 132.897px 423.351px;" id="el030aqy7gm7j8" class="animable"></path><path d="M456.19,351.89l-.55.26a4.29,4.29,0,1,0,.55-.26Z" style="fill: rgb(224, 224, 224); transform-origin: 457.744px 355.889px;" id="el00rzt07usw4s" class="animable"></path><path d="M181.48,361.88l-.55.26a4.29,4.29,0,1,0,.55-.26Z" style="fill: rgb(224, 224, 224); transform-origin: 183.034px 365.879px;" id="elz9v9ec64rj" class="animable"></path><path d="M352.64,362.74l-.54.25a4.3,4.3,0,1,0,.54-.25Z" style="fill: rgb(224, 224, 224); transform-origin: 354.172px 366.758px;" id="elv211onbpmwl" class="animable"></path><path d="M345.19,282.1l-.35.17a2.74,2.74,0,1,0,.35-.17Z" style="fill: rgb(224, 224, 224); transform-origin: 346.209px 284.643px;" id="el7h1g2txg7jv" class="animable"></path><path d="M139.11,345.61l-.24.11a1.83,1.83,0,1,0,.24-.11Z" style="fill: rgb(224, 224, 224); transform-origin: 139.75px 347.324px;" id="el76z3x7i3jsm" class="animable"></path><path d="M102.4,380.8c.62,5.09,7.43,7.31,11.64,5a10.52,10.52,0,0,0,4.57-12.46c3.71,2.75,9.64.21,11.18-4.15s-.61-9.38-4.18-12.32c-2.88-2.37-7.36-3.54-10.26-1.19,1.45-5-2.51-10.69-7.65-11.64s-10.56,2.41-12.59,7.23-.94,10.63,2.18,14.83c-3.05-1.29-6.87.92-7.79,4.1s.71,6.75,3.4,8.69a13.16,13.16,0,0,0,9.5,1.95" style="fill: rgb(235, 235, 235); transform-origin: 109.768px 365.296px;" id="el13p3fef2yxg" class="animable"></path><path d="M440.78,285.87c.51,4.17,6.09,6,9.55,4.06a8.61,8.61,0,0,0,3.74-10.21c3.05,2.25,7.91.17,9.17-3.4s-.5-7.7-3.42-10.11c-2.36-1.94-6-2.9-8.41-1,1.18-4.12-2.06-8.77-6.28-9.55s-8.65,2-10.33,5.93a12.65,12.65,0,0,0,1.79,12.16c-2.5-1.06-5.63.75-6.38,3.36a6.82,6.82,0,0,0,2.78,7.12,10.79,10.79,0,0,0,7.79,1.61" style="fill: rgb(235, 235, 235); transform-origin: 446.847px 273.117px;" id="ellyfxjlawr9b" class="animable"></path></g><g id="freepik--Character--inject-160" class="animable" style="transform-origin: 272.712px 274.575px;"><path d="M179.89,112c.93-2.62,2.28-5.29,1.81-8-.43-2.53-2.36-4.79-2-7.32.41-3.12,4-4.93,4.82-8,.39-1.47.06-3.06.43-4.54.64-2.51,3.16-4.11,5.66-4.81s5.15-.74,7.63-1.53c3.39-1.07,6.38-3.5,9.92-3.8,3.92-.34,7.28,1.91,10.74,4l4.35,2.3a14.11,14.11,0,0,0,2.61.82,26.22,26.22,0,0,1,4.7.91,6.29,6.29,0,0,1,2.94,8.58,6.72,6.72,0,0,1,6.64,4.46,19.35,19.35,0,0,1,.55,4.69,6.72,6.72,0,0,0,1.58,4.36c1.12,1.12,3.21,1.36,4.2.13a7.07,7.07,0,0,1-1.85,5.8,4.18,4.18,0,0,0,3.11.13c-.2,7.35-6.18,13.54-13,16.27s-14.39,2.72-21.75,2.67l-20.31,2.48c-1.76.26-3.21-1.44-3.84-3.1s-.89-3.57-2.09-4.88c-1.65-1.81-4.57-2-6.25-3.74C178.54,117.88,179,114.63,179.89,112Z" style="fill: rgb(38, 50, 56); transform-origin: 213.427px 102.796px;" id="elf192ya1nbj" class="animable"></path><path d="M230.1,111.64a82.87,82.87,0,0,0-1.75-14,28.54,28.54,0,0,0-6.19-12.5c-.48-.53-4.1-3.91-4.73-3.58-.46.24,2.3,3.64,2.23,4.14a24.09,24.09,0,0,0,2.69,14.09,63.21,63.21,0,0,0,7.75,11.82" style="fill: rgb(38, 50, 56); transform-origin: 223.739px 96.5887px;" id="elqe6059ie0xo" class="animable"></path><path d="M223.89,94.82c-4-11.08-13.8-18-24.77-13.68l-1,.46A21.07,21.07,0,0,0,187.2,108c3.52,9.59,7.54,20.13,9.9,25.06C202,143.26,213,140.11,213,140.11s3.88,11.9,3.88,11.9l11.82-2.3L242,139.17Z" style="fill: rgb(255, 191, 157); transform-origin: 213.951px 115.925px;" id="ellr7dhprzm1" class="animable"></path><path d="M213,140.11A27.35,27.35,0,0,0,224.51,130s.18,9.43-10.48,13.24Z" style="fill: rgb(255, 154, 108); transform-origin: 218.755px 136.62px;" id="elvf1kh6koy2d" class="animable"></path><path d="M193.46,116.29c.27.11,1-1.23,2.58-2s3.1-.47,3.18-.75c.05-.12-.3-.38-1-.51a4.46,4.46,0,0,0-2.66.35,4.24,4.24,0,0,0-1.94,1.8C193.34,115.82,193.33,116.24,193.46,116.29Z" style="fill: rgb(38, 50, 56); transform-origin: 196.302px 114.629px;" id="el2i7eisahgmk" class="animable"></path><path d="M207.37,109.72c.27.1,1-1.23,2.58-2s3.1-.47,3.18-.74c.05-.12-.3-.38-1-.52a4.47,4.47,0,0,0-2.66.36,4.22,4.22,0,0,0-1.94,1.79C207.25,109.25,207.24,109.67,207.37,109.72Z" style="fill: rgb(38, 50, 56); transform-origin: 210.212px 108.06px;" id="elezp50qoaabc" class="animable"></path><path d="M207.34,115.91a6.22,6.22,0,0,0-1.9-2.14,3.06,3.06,0,0,0-2.75-.34l0,.62a31.65,31.65,0,0,0,.19,4.57c0,.49,0,1.22.38,1.57.54.56,1.56.23,2.31,0a3.31,3.31,0,0,0,2.23-1.38A3.11,3.11,0,0,0,207.34,115.91Z" style="fill: rgb(247, 170, 137); transform-origin: 205.324px 116.873px;" id="el42xw9o2t61s" class="animable"></path><path d="M207.05,119.47a11.7,11.7,0,0,0-2.78.72c-.42.15-.84.24-1,0a2.26,2.26,0,0,1-.28-1.32c-.08-1.15-.15-2.35-.23-3.62-.37-5.13-.83-9.27-1-9.25s-.08,4.18.28,9.32c.1,1.26.19,2.46.29,3.61a2.51,2.51,0,0,0,.52,1.67,1.08,1.08,0,0,0,.93.29,2.88,2.88,0,0,0,.73-.22A11.88,11.88,0,0,0,207.05,119.47Z" style="fill: rgb(38, 50, 56); transform-origin: 204.363px 113.452px;" id="elgz1xltwzwsg" class="animable"></path><path d="M204.23,98.3c.36.35,1.84-.58,3.79-1.21s3.68-.82,3.75-1.32c0-.23-.42-.52-1.21-.65a6.61,6.61,0,0,0-3.1.3A6.54,6.54,0,0,0,204.81,97C204.26,97.63,204.07,98.12,204.23,98.3Z" style="fill: rgb(38, 50, 56); transform-origin: 207.973px 96.7153px;" id="elic6ddp7oa1r" class="animable"></path><path d="M189.59,105.69c.44.23,1.36-.64,2.65-1.26s2.53-.88,2.61-1.37c0-.23-.31-.51-.95-.63a4.14,4.14,0,0,0-2.44.42,4,4,0,0,0-1.8,1.71C189.37,105.14,189.39,105.58,189.59,105.69Z" style="fill: rgb(38, 50, 56); transform-origin: 192.145px 104.061px;" id="el4tr7jwo7c9v" class="animable"></path><path d="M226.56,102.8c.14-.15,6.09-5.34,9.11,1.78s-5.39,9.07-5.49,8.87S226.56,102.8,226.56,102.8Z" style="fill: rgb(255, 191, 157); transform-origin: 231.442px 107.149px;" id="el1vwr78tap3m" class="animable"></path><path d="M231.85,109.44s.16,0,.41,0a1.3,1.3,0,0,0,.93-.37c.64-.59.77-2.06.26-3.36a4.55,4.55,0,0,0-1.1-1.62,1.57,1.57,0,0,0-1.34-.56.69.69,0,0,0-.59.65c0,.24.1.36.06.39s-.2,0-.27-.37a.87.87,0,0,1,.09-.57,1.05,1.05,0,0,1,.61-.47,1.9,1.9,0,0,1,1.77.56,4.54,4.54,0,0,1,1.27,1.8c.56,1.45.4,3.11-.51,3.84a1.42,1.42,0,0,1-1.21.29C231.93,109.61,231.83,109.47,231.85,109.44Z" style="fill: rgb(255, 154, 108); transform-origin: 232.235px 106.402px;" id="elyhbb18jhmhq" class="animable"></path><path d="M186.92,94.24c-1.42-.16.51-5.34,2.81-7.81,3.49-3.72,9.56-7.63,14-8.15,5.33-.62,10.27.11,14.46,3.46a30.45,30.45,0,0,1,9.1,13.05,9.24,9.24,0,0,1,.79,4.78c-.34,2-1.84,3.78-.86,5.93a3.22,3.22,0,0,1,.16,2.49c-.73,1.93-2.87,1.28-4.15.28-2.73-2.15-4.28-5.42-5.75-8.57a22.6,22.6,0,0,1-2.36-7c-.14-1.34,0-2.7-.26-4a4.64,4.64,0,0,0-2-3.36A5,5,0,0,0,212,85a8,8,0,0,0-8,1.65c-3.44,3.09-9.43,8.06-11.79,7.44-3.4-.9-4.54-1.93-4.54-1.93Z" style="fill: rgb(38, 50, 56); transform-origin: 207.281px 93.6564px;" id="elu4br0yxu7lk" class="animable"></path><path d="M202.94,77.46a17,17,0,0,0-11.8,5.66,8.87,8.87,0,0,0-2.35,6.53c.28,2.36,2.26,4.59,4.64,4.58l.18,0c3.47-.24,5.29-1.47,7.89-3.77,2.19-1.95,3.81-4.47,6-6.4a15.59,15.59,0,0,1,8.39-3.76A25.65,25.65,0,0,0,202.94,77.46Z" style="fill: rgb(38, 50, 56); transform-origin: 202.333px 85.8317px;" id="elksmmbi6qd8r" class="animable"></path><path d="M246.19,114.88s-.24.13-.73.28a4,4,0,0,1-2.19,0,5,5,0,0,1-2.76-2,9.31,9.31,0,0,1-1.4-4.4c-.19-1.73-.07-3.67-.33-5.76a10,10,0,0,0-.89-3.15,6.12,6.12,0,0,0-2.3-2.63A7.25,7.25,0,0,0,232,96.3a19.37,19.37,0,0,1-3.66-.29c-2.43-.52-4.44-2.36-6-4.45s-2.77-4.49-4.22-6.6a13.86,13.86,0,0,0-5.35-5.06,9.24,9.24,0,0,0-6.64-.33,12.09,12.09,0,0,0-5,3A17.77,17.77,0,0,0,197,89.83c-.3.94-.47,1.69-.58,2.2a3.55,3.55,0,0,0-.13.78,4.51,4.51,0,0,0,.24-.76c.14-.49.35-1.23.68-2.15a18.18,18.18,0,0,1,4.22-7A11.65,11.65,0,0,1,206.27,80a8.74,8.74,0,0,1,6.28.35,13.43,13.43,0,0,1,5.12,4.89c1.41,2.08,2.57,4.46,4.22,6.63s3.73,4.1,6.35,4.66a19.57,19.57,0,0,0,3.76.28,6.86,6.86,0,0,1,3.32.77,5.76,5.76,0,0,1,2.13,2.41,9.3,9.3,0,0,1,.87,3c.28,2,.18,4,.39,5.74a9.71,9.71,0,0,0,1.54,4.54,5.15,5.15,0,0,0,3,2.06,3.9,3.9,0,0,0,2.29-.08A2.25,2.25,0,0,0,246.19,114.88Z" style="fill: rgb(69, 90, 100); transform-origin: 221.24px 97.285px;" id="eloonezdo9gf" class="animable"></path><path d="M195.22,80a4.79,4.79,0,0,0-2.1,1.09,8.94,8.94,0,0,0-2.89,10.43,4.84,4.84,0,0,0,1.24,2c.08,0-.43-.8-.87-2.15a9.28,9.28,0,0,1,2.77-10C194.44,80.46,195.27,80.09,195.22,80Z" style="fill: rgb(69, 90, 100); transform-origin: 192.407px 86.76px;" id="elhl3bgk1g3v" class="animable"></path><path d="M183,92.34a5.49,5.49,0,0,0,2.1,5.14c.13-.12-.66-1.09-1.23-2.5S183.16,92.33,183,92.34Z" style="fill: rgb(69, 90, 100); transform-origin: 184.029px 94.91px;" id="el3mj35phqd36" class="animable"></path><path d="M212.19,124.65a6.91,6.91,0,0,0-1-2,2.75,2.75,0,0,0-2.3-.41l-.43.2a6.78,6.78,0,0,0-1.49,1.23,2.39,2.39,0,0,0-.82,1.72,3.73,3.73,0,0,0,.59,1.92c.37.57.82,1.2,1.49,1.3A2.47,2.47,0,0,0,210,128c.6-.46,1.41-.65,2-1.11a1.86,1.86,0,0,0,.47-.82A2,2,0,0,0,212.19,124.65Z" style="fill: rgb(255, 154, 108); transform-origin: 209.325px 125.38px;" id="elimxswludr3" class="animable"></path><path d="M209.64,128.35s0-.22.29-.48a4.75,4.75,0,0,1,1.28-.78c.52-.26,1.19-.7,1.1-1.41a4.63,4.63,0,0,0-.36-1.16,5.92,5.92,0,0,0-.61-1.17,1.91,1.91,0,0,0-2.07-.85,3.87,3.87,0,0,0-1.8.94,9,9,0,0,0-1.19,1.56,2.84,2.84,0,0,1,.93-1.82,4,4,0,0,1,2-1.15,2.53,2.53,0,0,1,1.41.06,2.58,2.58,0,0,1,1.18,1,6.44,6.44,0,0,1,.65,1.28,4.48,4.48,0,0,1,.37,1.31,1.5,1.5,0,0,1-.5,1.22,3.21,3.21,0,0,1-.92.57,6.39,6.39,0,0,0-1.31.6C209.78,128.22,209.67,128.38,209.64,128.35Z" style="fill: rgb(38, 50, 56); transform-origin: 209.552px 125.156px;" id="el36hb1rhvy0i" class="animable"></path><path d="M214.14,109.23c.44.56-.53,2-2.35,3s-3.59.87-3.8.19,1-1.68,2.6-2.51S213.69,108.66,214.14,109.23Z" style="fill: rgb(247, 170, 137); transform-origin: 211.106px 110.962px;" id="elx7ar3m7qbre" class="animable"></path><path d="M200.15,116.11c.18.7-.85,1.57-2.25,2.12s-2.75.59-3.09,0,.6-1.78,2.15-2.38S200,115.42,200.15,116.11Z" style="fill: rgb(247, 170, 137); transform-origin: 197.456px 117.07px;" id="elc4c1qk2sp15" class="animable"></path><path d="M336.47,409l13,38.95-51.23,17.2c-1.27-4.72,22.09-22.9,22.09-22.9l-9.39-24.59Z" style="fill: rgb(69, 90, 100); transform-origin: 323.83px 437.075px;" id="el9ipjccjrrhl" class="animable"></path><g id="elegk27bmk5m7"><g style="opacity: 0.6; transform-origin: 335.53px 436.812px;" class="animable"><path d="M335.43,434.85a2.08,2.08,0,0,1,2.21,1.77,2.13,2.13,0,0,1-1.89,2.16,2.21,2.21,0,0,1-2.33-1.89,2.24,2.24,0,0,1,2.22-2.05" style="fill: rgb(255, 255, 255); transform-origin: 335.53px 436.812px;" id="el9k7cev71074" class="animable"></path></g></g><g id="els9rohi350mf"><g style="opacity: 0.6; transform-origin: 323.728px 454.61px;" class="animable"><path d="M349.44,448,348,444.09,299.4,462s-2,1.7-1.19,3.13Z" style="fill: rgb(255, 255, 255); transform-origin: 323.728px 454.61px;" id="elrtjiueow71b" class="animable"></path></g></g><path d="M319.39,442.29c.09.24,1.37-.07,2.86.27s2.48,1.12,2.68.95-.64-1.41-2.45-1.8S319.26,442.1,319.39,442.29Z" style="fill: rgb(38, 50, 56); transform-origin: 322.17px 442.568px;" id="el0tjksikgrjy9" class="animable"></path><path d="M314.73,446.2c0,.25,1.24.28,2.42,1s1.8,1.69,2,1.59-.05-1.48-1.54-2.34S314.66,446,314.73,446.2Z" style="fill: rgb(38, 50, 56); transform-origin: 316.969px 447.361px;" id="el93u33v69wka" class="animable"></path><path d="M313.73,453.29c.25,0,.2-1.32-.89-2.4s-2.42-1.2-2.46-1,.92.68,1.79,1.58S313.48,453.35,313.73,453.29Z" style="fill: rgb(38, 50, 56); transform-origin: 312.116px 451.551px;" id="elios8za461ga" class="animable"></path><path d="M317.91,436.44c.18.18,1.21-.53,2.66-.91s2.69-.34,2.75-.58-1.29-.73-3-.26S317.72,436.3,317.91,436.44Z" style="fill: rgb(38, 50, 56); transform-origin: 320.603px 435.481px;" id="eli6xusrwdfmm" class="animable"></path><path d="M317.18,430.29a5.24,5.24,0,0,0,2.56-.87,12.37,12.37,0,0,0,2.42-1.68,14.27,14.27,0,0,0,1.23-1.23,3.54,3.54,0,0,0,.58-.83,1.05,1.05,0,0,0-.31-1.3,1.48,1.48,0,0,0-1.28-.17,3.76,3.76,0,0,0-.92.45,9.86,9.86,0,0,0-1.42,1,9.62,9.62,0,0,0-1.87,2.26c-.84,1.44-.94,2.46-.84,2.48s.47-.9,1.38-2.16a11,11,0,0,1,1.88-2,10.38,10.38,0,0,1,1.33-.92c.49-.32.95-.48,1.17-.3s.1.11,0,.29a2.76,2.76,0,0,1-.43.61,14.16,14.16,0,0,1-1.11,1.19,15.19,15.19,0,0,1-2.18,1.73A21.64,21.64,0,0,0,317.18,430.29Z" style="fill: rgb(38, 50, 56); transform-origin: 320.629px 427.268px;" id="el3xxah49n4ml" class="animable"></path><path d="M317.62,430.52a3.92,3.92,0,0,0-.11-2.56,8,8,0,0,0-1.25-2.54,8.43,8.43,0,0,0-1.16-1.25,2.21,2.21,0,0,0-2.05-.67,1.26,1.26,0,0,0-.84,1,3.1,3.1,0,0,0,0,1,5.49,5.49,0,0,0,.55,1.63,5.83,5.83,0,0,0,1.94,2.14,3.6,3.6,0,0,0,2.56.76c.05-.15-1-.31-2.15-1.26a5.84,5.84,0,0,1-1.59-2,5.08,5.08,0,0,1-.42-1.42c-.1-.54,0-1,.19-1a1.51,1.51,0,0,1,1.16.49,8.59,8.59,0,0,1,1.08,1.1,9,9,0,0,1,1.32,2.25C317.44,429.56,317.47,430.53,317.62,430.52Z" style="fill: rgb(38, 50, 56); transform-origin: 314.977px 426.989px;" id="elqrncmbghz4h" class="animable"></path><path d="M235.41,417.58l.43,41-54,.71c.24-4.88,28-15,28-15L208.43,418Z" style="fill: rgb(69, 90, 100); transform-origin: 208.84px 438.435px;" id="ellwfyqh5moo" class="animable"></path><g id="el896v1b7cior"><g style="opacity: 0.6; transform-origin: 226.029px 443.778px;" class="animable"><path d="M226.52,441.86a2.08,2.08,0,0,1,1.56,2.36,2.12,2.12,0,0,1-2.46,1.48,2.21,2.21,0,0,1-1.64-2.51,2.23,2.23,0,0,1,2.74-1.27" style="fill: rgb(255, 255, 255); transform-origin: 226.029px 443.778px;" id="el66czqmqpaxu" class="animable"></path></g></g><g id="eltpg1e2f84r"><g style="opacity: 0.6; transform-origin: 208.812px 456.91px;" class="animable"><path d="M235.84,458.62l-.21-4.13-51.73,2.22s-2.39,1-2.09,2.62Z" style="fill: rgb(255, 255, 255); transform-origin: 208.812px 456.91px;" id="el5rzszu5pilm" class="animable"></path></g></g><path d="M209,444c0,.25,1.33.35,2.64,1.13s2,1.82,2.26,1.72-.17-1.54-1.78-2.46S208.9,443.81,209,444Z" style="fill: rgb(38, 50, 56); transform-origin: 211.483px 445.318px;" id="elaq0c6lda0pp" class="animable"></path><path d="M203.33,446.33c-.05.24,1.1.65,2,1.69s1.19,2.16,1.45,2.15.41-1.43-.75-2.71S203.34,446.09,203.33,446.33Z" style="fill: rgb(38, 50, 56); transform-origin: 205.146px 448.197px;" id="el3wf7k3r33dm" class="animable"></path><path d="M200.22,452.78c.24.05.58-1.2-.12-2.55s-1.94-1.89-2-1.68.67.93,1.23,2.05S200,452.76,200.22,452.78Z" style="fill: rgb(38, 50, 56); transform-origin: 199.307px 450.644px;" id="el65bt7vc6pwp" class="animable"></path><path d="M209.35,438c.11.22,1.32-.14,2.81-.06s2.66.5,2.79.29-1-1.09-2.75-1.16S209.21,437.82,209.35,438Z" style="fill: rgb(38, 50, 56); transform-origin: 212.15px 437.677px;" id="el266xcfxlbys" class="animable"></path><path d="M210.54,431.94a5.41,5.41,0,0,0,2.7-.05,13,13,0,0,0,2.82-.86,12.58,12.58,0,0,0,1.54-.8,3.18,3.18,0,0,0,.81-.61,1,1,0,0,0,.1-1.33,1.47,1.47,0,0,0-1.17-.55,3.73,3.73,0,0,0-1,.14,9.92,9.92,0,0,0-1.67.57,9.48,9.48,0,0,0-2.47,1.58c-1.24,1.11-1.65,2.05-1.56,2.1s.72-.71,2-1.63a10.82,10.82,0,0,1,2.39-1.32,10,10,0,0,1,1.55-.47c.57-.15,1-.16,1.21.08.05.09.06.12-.06.28a2.51,2.51,0,0,1-.59.45,15.64,15.64,0,0,1-1.42.79,14.76,14.76,0,0,1-2.6,1A18.14,18.14,0,0,0,210.54,431.94Z" style="fill: rgb(38, 50, 56); transform-origin: 214.628px 429.936px;" id="elc22tlcz36nq" class="animable"></path><path d="M210.89,432.29a3.94,3.94,0,0,0,.67-2.48,8,8,0,0,0-.41-2.79,8.28,8.28,0,0,0-.72-1.55,2.22,2.22,0,0,0-1.74-1.27,1.25,1.25,0,0,0-1.12.73,3.23,3.23,0,0,0-.27.94,5.54,5.54,0,0,0,0,1.73,5.69,5.69,0,0,0,1.2,2.62c1.07,1.31,2.18,1.6,2.2,1.51s-.84-.59-1.67-1.85a5.75,5.75,0,0,1-.89-2.4,5.26,5.26,0,0,1,0-1.48c.08-.54.29-1,.5-.93s.73.4,1,.83a7.79,7.79,0,0,1,.7,1.38,8.81,8.81,0,0,1,.56,2.54C211,431.32,210.74,432.26,210.89,432.29Z" style="fill: rgb(38, 50, 56); transform-origin: 209.401px 428.245px;" id="elklvayuwf53" class="animable"></path><path d="M218.83,254.31s-21.07,102.57-21.07,106.07,8.13,79.32,8.13,79.32h30.89l-6-79.32,24-71.54-2.5-34.53Z" style="fill: rgb(38, 50, 56); transform-origin: 226.27px 347.005px;" id="elklizz8k4xyq" class="animable"></path><path d="M249.74,271.91c.5,3.42,62.59,163.52,62.59,163.52L343,424.6c-.29,0-33.19-97.24-33.19-97.24s-9.7-57.9-11.21-67.91-11.07-28.59-11.07-28.59l-40.9,21.62Z" style="fill: rgb(38, 50, 56); transform-origin: 294.815px 333.145px;" id="elbc17p3oyk9d" class="animable"></path><path d="M200.91,157.68c-.2,1,15.77,66,15.77,66l1.17,19.22.11,12.83s21.52,2.6,37.63,3.32,37.21-17.46,37.21-17.46L280.16,164l-29-33.57-11.13,3.34s-6.37,21.76-24.91,13.42l-2.5,1.43Z" style="fill: rgb(25, 118, 210); transform-origin: 246.854px 194.75px;" id="elwzpt5fyko0e" class="animable"></path><g id="eli0nezv3s3h"><g style="opacity: 0.3; transform-origin: 264.195px 203.87px;" class="animable"><polygon points="260.06 153.43 268.33 186.05 272.4 186.74 274.34 200.71 238.44 254.31 254.79 254.31 258.33 244.71 289.95 224.11 288.56 217.33 276.51 179.77 271.11 182.57 260.06 153.43" id="elm8vp9e85ifh" class="animable" style="transform-origin: 264.195px 203.87px;"></polygon></g></g><path d="M200.91,157.68a71.41,71.41,0,0,0-8.07,22.43c-2.46,14.66-3.44,18.79-3.44,18.79l22,9.28.26-5.2Z" style="fill: rgb(25, 118, 210); transform-origin: 200.53px 182.93px;" id="el5gvjf9c4zs8" class="animable"></path><path d="M216.68,223.68a1.82,1.82,0,0,1-.17-.53l-.37-1.55c-.34-1.41-.81-3.34-1.37-5.68-1.19-4.87-2.81-11.46-4.59-18.75s-3.4-13.88-4.59-18.75c-.56-2.35-1-4.27-1.35-5.69l-.34-1.55a3.55,3.55,0,0,1-.09-.56,1.92,1.92,0,0,1,.19.53l.44,1.53c.37,1.41.88,3.32,1.51,5.65,1.24,4.78,2.93,11.4,4.73,18.72s3.38,14,4.45,18.78c.53,2.42.94,4.37,1.21,5.73.11.63.2,1.15.28,1.57A2.53,2.53,0,0,1,216.68,223.68Z" style="fill: rgb(38, 50, 56); transform-origin: 210.245px 197.15px;" id="elidrfd0sbpda" class="animable"></path><polygon points="184.21 156.53 176.15 204.47 196.21 215.86 199.8 156.24 184.21 156.53" style="fill: rgb(255, 191, 157); transform-origin: 187.975px 186.05px;" id="elfxjnxo70gzs" class="animable"></polygon><path d="M176.15,204.47s-3.38,17.71,11,23.64c10.68,4.41,19.65-7,22.72-20.71L197,202.18Z" style="fill: rgb(255, 191, 157); transform-origin: 192.837px 215.626px;" id="el48uutkhrgpt" class="animable"></path><path d="M197.11,198.24a14.18,14.18,0,0,1,.29,2.93A52.52,52.52,0,0,1,196,215.3a13.86,13.86,0,0,1-.86,2.82,24,24,0,0,1,.5-2.9c.34-1.78.75-4.24,1-7s.36-5.24.37-7A20.82,20.82,0,0,1,197.11,198.24Z" style="fill: rgb(255, 154, 108); transform-origin: 196.288px 208.18px;" id="elcqbbkn6m1pu" class="animable"></path><path d="M199.79,156.52c.1-.38,4.47-16.45,4.47-16.45l-2.45-15.76s-.46-4.66-3-3.76-1.72,6-1.72,6l-8.94,9.57-2.3-1.44a9.56,9.56,0,0,0-2.56,6c0,3.32.88,15.87.88,15.87" style="fill: rgb(255, 191, 157); transform-origin: 193.775px 138.492px;" id="elvhh0clzsxg" class="animable"></path><path d="M184.21,156.52a2.06,2.06,0,0,1-.06-.41l-.1-1.21c-.08-1.11-.19-2.66-.32-4.59s-.28-4.39-.45-7.12c0-.69-.09-1.4-.13-2.12a6.92,6.92,0,0,1,.2-2.29,10.5,10.5,0,0,1,2.37-4.29l.13-.14.16.1,2.31,1.44-.3,0,8.92-9.58-.07.21a11.81,11.81,0,0,1,0-3.46,4.9,4.9,0,0,1,.6-1.72,2.54,2.54,0,0,1,1.49-1.13,1.77,1.77,0,0,1,1.78.53,4.16,4.16,0,0,1,.87,1.54,19.61,19.61,0,0,1,.63,3.27c.17,1.06.33,2.11.49,3.13.62,4.11,1.2,7.92,1.72,11.31v.09l-3.34,12q-.6,2.08-1,3.3c-.1.35-.19.63-.26.86a1.28,1.28,0,0,1-.11.28.87.87,0,0,1,.05-.3c0-.23.12-.52.2-.87.21-.82.49-1.93.85-3.33.77-2.92,1.85-7,3.17-12v.09c-.54-3.39-1.14-7.2-1.79-11.31-.16-1-.33-2.08-.5-3.14a17.49,17.49,0,0,0-.62-3.16,3.84,3.84,0,0,0-.75-1.36,1.25,1.25,0,0,0-1.29-.37,2.71,2.71,0,0,0-1.7,2.43,11,11,0,0,0,0,3.29v.13l-.08.09-8.95,9.55-.14.15-.16-.11-2.3-1.44.28,0a10.22,10.22,0,0,0-2.29,4.08,14.41,14.41,0,0,0-.1,4.29c.13,2.73.25,5.12.34,7.11s.15,3.49.19,4.6c0,.5,0,.9,0,1.22A1.61,1.61,0,0,1,184.21,156.52Z" style="fill: rgb(255, 154, 108); transform-origin: 193.789px 138.335px;" id="elf4zutm7gyem" class="animable"></path><path d="M201.92,125s1.18-.89,2.44.78,4.8,28.26,4.8,28.26l-2.69,2.47L192,153.71l-4.3.11L187,140.13Z" style="fill: rgb(245, 245, 245); transform-origin: 198.08px 140.637px;" id="elhe7qbgk9jr" class="animable"></path><path d="M201.92,125a1.51,1.51,0,0,1-.25.31l-.78.83-3,3.11-10.77,11,.06-.17c.24,4.15.5,8.77.78,13.69l-.26-.24,4.3-.12h.06l5.22,1,9.22,1.81-.22.06,2.69-2.47-.08.21c-1.21-9.06-2.34-16.87-3.29-22.38-.24-1.38-.47-2.61-.7-3.68a5.45,5.45,0,0,0-.94-2.54,1.73,1.73,0,0,0-1.49-.64,2.19,2.19,0,0,0-.57.17,1.07,1.07,0,0,1,.55-.26,1.8,1.8,0,0,1,1.62.61,2.51,2.51,0,0,1,.66,1.13c.13.45.29.94.4,1.48.26,1.07.51,2.3.78,3.67,1,5.51,2.23,13.31,3.48,22.38v.12l-.09.09-2.69,2.48-.09.09-.13,0L197.2,155,192,154H192l-4.3.12h-.25v-.25c-.26-4.93-.5-9.54-.72-13.7V140l.07-.07,10.91-10.9,3.07-3,.82-.79A2.57,2.57,0,0,1,201.92,125Z" style="fill: rgb(38, 50, 56); transform-origin: 198.06px 140.706px;" id="elj0jsxzzxg" class="animable"></path><path d="M187.4,138.4a14.43,14.43,0,0,0,1.42.47s-.49,4.43.85,4.6c3.32.43,3.23-3.93,3.23-3.93s.54,2.75,2.25,2.73,2.82-.45,2.5-3.58l-.57-5.68a2.36,2.36,0,0,0-.87-1.48l-1.56-1.1,3.8.87s1.66,3,3.39,2.14a1.78,1.78,0,0,0,.78-2.19,14.33,14.33,0,0,0-1.67-3.54c-1-1.15-6.33-3.4-7.51-2.89s-1.88,3.9-1.88,3.9-2.68.4-3.38,4a8,8,0,0,0-3,2.86" style="fill: rgb(255, 191, 157); transform-origin: 193.96px 134.123px;" id="el3db5b088mxy" class="animable"></path><path d="M185.19,135.62s0-.09.12-.25a5.43,5.43,0,0,1,.46-.68,7.87,7.87,0,0,1,2.36-2.05l-.07.09a6.07,6.07,0,0,1,.93-2.39,4.25,4.25,0,0,1,2.54-1.8l-.15.15a13.85,13.85,0,0,1,.69-2.29,5.74,5.74,0,0,1,.6-1.15,1.9,1.9,0,0,1,.51-.51,1.23,1.23,0,0,1,.73-.2,9.31,9.31,0,0,1,2.74.62,21.69,21.69,0,0,1,2.69,1.17,9.19,9.19,0,0,1,1.32.81,3.41,3.41,0,0,1,1,1.27,18.32,18.32,0,0,1,1.24,3,2.1,2.1,0,0,1-.38,1.77,1.77,1.77,0,0,1-1.73.64,3.29,3.29,0,0,1-1.54-1,7.17,7.17,0,0,1-1.06-1.43l.17.13-.67-.15-3.13-.72.21-.47,1.56,1.11,0,0,0,0a4.11,4.11,0,0,1,.76,1,2.06,2.06,0,0,1,.18.63l0,.58c.08.76.15,1.51.22,2.25s.15,1.47.22,2.18a14.14,14.14,0,0,1,.1,2.16,2.38,2.38,0,0,1-.93,2,3.62,3.62,0,0,1-2,.36,2.17,2.17,0,0,1-1.6-1.17,5.76,5.76,0,0,1-.66-1.72l.4,0a4.91,4.91,0,0,1-1.22,3.45,2.43,2.43,0,0,1-1.54.65,3,3,0,0,1-.79,0A1,1,0,0,1,189,143a6.2,6.2,0,0,1-.34-2.44,15.13,15.13,0,0,1,.12-1.74l.06.08-1.07-.39a1.47,1.47,0,0,1-.33-.15,1.23,1.23,0,0,1,.36.08l1.07.32.06,0v.06a17.15,17.15,0,0,0,0,1.72,6.14,6.14,0,0,0,.38,2.31c.11.17.23.36.41.39a3,3,0,0,0,.68,0,2.1,2.1,0,0,0,1.33-.59,4.53,4.53,0,0,0,1.06-3.19l0-1.69.38,1.65a5.35,5.35,0,0,0,.62,1.57,1.79,1.79,0,0,0,1.28,1,3.27,3.27,0,0,0,1.76-.32,1.94,1.94,0,0,0,.7-1.61,13.55,13.55,0,0,0-.12-2.08c-.07-.71-.15-1.44-.22-2.18l-.23-2.25-.06-.57a1.42,1.42,0,0,0-.13-.47,3.68,3.68,0,0,0-.68-.85l0,0-1.56-1.1-1.07-.76,1.28.29,3.13.72.66.15.11,0,.06.1a4.45,4.45,0,0,0,2.26,2.14,1.23,1.23,0,0,0,1.22-.45,1.59,1.59,0,0,0,.28-1.34,17.6,17.6,0,0,0-1.18-2.88,2.92,2.92,0,0,0-.88-1.12,10,10,0,0,0-1.25-.77,22.42,22.42,0,0,0-2.63-1.16,8.91,8.91,0,0,0-2.57-.62,1,1,0,0,0-.91.52,4.71,4.71,0,0,0-.57,1.06,14.08,14.08,0,0,0-.7,2.21l0,.12-.12,0a3.92,3.92,0,0,0-2.34,1.62,6,6,0,0,0-.95,2.26v.06l0,0a8.25,8.25,0,0,0-2.37,1.9C185.41,135.31,185.22,135.64,185.19,135.62Z" style="fill: rgb(255, 154, 108); transform-origin: 194.074px 134.112px;" id="elbrzipem4cbu" class="animable"></path><path d="M187.93,133c0-.07.52-.15,1.33,0a5,5,0,0,1,3.75,4.8c0,.84-.2,1.32-.26,1.3a9.81,9.81,0,0,1-.11-1.28,5.65,5.65,0,0,0-1.1-2.73,5.48,5.48,0,0,0-2.39-1.73A10.37,10.37,0,0,1,187.93,133Z" style="fill: rgb(255, 154, 108); transform-origin: 190.47px 136.008px;" id="elch4tj84ekl4" class="animable"></path><path d="M207.56,144.48a5.18,5.18,0,0,1-1,.7l-2.77,1.74c-2.35,1.44-5.61,3.41-9.23,5.56l-1,.59-.23.14-.13-.24a92.74,92.74,0,0,1-4.4-9c-.49-1.17-.86-2.12-1.1-2.79a4.52,4.52,0,0,1-.32-1.05,4.33,4.33,0,0,1,.5,1l1.25,2.72c1.06,2.3,2.6,5.46,4.53,8.89l-.36-.1,1-.59c3.62-2.14,6.92-4.06,9.31-5.43l2.85-1.6A5.58,5.58,0,0,1,207.56,144.48Z" style="fill: rgb(38, 50, 56); transform-origin: 197.47px 146.67px;" id="els0wtpq4zdz" class="animable"></path><path d="M299.17,459.88a62.65,62.65,0,0,1-18.21-3c-12.7-3.89-22.06-12.67-27.82-26.08-4.86-11.32-6.25-24-6.87-32.54-1.39-19,10.37-77.44,12.74-88.16,1.82-8.21,2.94-29.33-5.21-42.15a19.7,19.7,0,0,0-12.88-9.27c-20.73-4.34-41.28,21.59-43,23.79l-45.24,82.1-5.35-3.12,45.44-82.47.12-.16c1-1.29,23.89-31.58,49.24-26.29,7,1.47,12.7,5.51,16.83,12,8.88,14,8.42,36.2,6,46.93-3.64,16.46-13.82,69.68-12.61,86.32,1.4,19.22,6.07,45.64,30.32,53.07,25.33,7.75,35.39-2,42.84-11.8,8.32-10.93,13.46-16.44,20.18-18.22,10.27-2.71,16.84,1.36,20.95,5.05l-4.15,5.7c-.19-.31-6.9-6.87-15.24-4.67-5,1.31-9.57,6.41-16.86,16C323.79,451.62,314.9,459.88,299.17,459.88Z" style="fill: rgb(69, 90, 100); transform-origin: 256.985px 355.895px;" id="el9bfhhbe905l" class="animable"></path><path d="M299.17,459.88l1.3-.06,1.62-.07,2.23-.23c.84-.09,1.78-.3,2.82-.47.51-.11,1.05-.26,1.61-.4a15.67,15.67,0,0,0,1.73-.49,32.41,32.41,0,0,0,7.87-3.68,42.34,42.34,0,0,0,8.31-7.17c2.73-3,5.23-6.65,8.29-10.33a63.23,63.23,0,0,1,5-5.53,18.91,18.91,0,0,1,6.58-4.45,14.13,14.13,0,0,1,8.42-.08,18.21,18.21,0,0,1,4.09,1.77,16.37,16.37,0,0,1,3.65,2.8h-.23l4.14-5.71,0,.2a23.74,23.74,0,0,0-6.59-4.3,19.62,19.62,0,0,0-8-1.56,23.66,23.66,0,0,0-8.33,1.58,20.66,20.66,0,0,0-3.83,2.08,34,34,0,0,0-3.45,2.82c-4.36,4.15-8.08,9.17-12,14.24a42.34,42.34,0,0,1-6.86,7,27,27,0,0,1-8.91,4.67,34.15,34.15,0,0,1-10.25,1.31l-2.63-.13c-.88-.06-1.75-.21-2.63-.31-1.77-.17-3.5-.62-5.26-1s-3.47-.92-5.22-1.39a39.53,39.53,0,0,1-5.1-2,36.44,36.44,0,0,1-4.82-2.74,35,35,0,0,1-4.36-3.53c-5.5-5.18-9.27-12.15-11.68-19.56a103.72,103.72,0,0,1-4.33-23.45c-.19-2-.24-4.07-.24-6.12s.12-4.1.3-6.16c.28-4.11.76-8.25,1.26-12.41,1-8.32,2.35-16.74,3.78-25.27s3-17.15,4.75-25.88q1.29-6.54,2.71-13.15a72.68,72.68,0,0,0,1.32-13.46,82.78,82.78,0,0,0-.92-13.68,57.2,57.2,0,0,0-3.62-13.34,32.85,32.85,0,0,0-7.75-11.48,24.48,24.48,0,0,0-12.44-6.16,31.46,31.46,0,0,0-14.1.71,39.67,39.67,0,0,0-6.73,2.48,52.69,52.69,0,0,0-6.34,3.46,77.57,77.57,0,0,0-11.44,9A90,90,0,0,0,193,279.1l0,0-5.26,9.53c-13.71,24.9-27.15,49.28-40.18,72.93l-.1-.35,5.35,3.13-.35.1,45.25-82.1h0v0a89,89,0,0,1,11-11.54,63,63,0,0,1,12.83-8.92,32.27,32.27,0,0,1,14.74-3.88,17.38,17.38,0,0,1,1.9.09,14.87,14.87,0,0,1,1.88.24,17.73,17.73,0,0,1,3.66.94,19.3,19.3,0,0,1,6.37,3.9,22.73,22.73,0,0,1,4.52,5.83,36.87,36.87,0,0,1,3,6.65,60.28,60.28,0,0,1,2.66,14,81.24,81.24,0,0,1-.08,13.87,55.67,55.67,0,0,1-1,6.73q-.69,3.3-1.38,6.54c-3.52,17.33-6.45,33.7-8.69,48.95-1.11,7.62-2,15-2.51,22.05a85.89,85.89,0,0,0-.19,10.36c.23,3.37.55,6.66,1,9.85a95.18,95.18,0,0,0,4,17.8,57.71,57.71,0,0,0,7.08,14.45A42.74,42.74,0,0,0,268,450.24a42.62,42.62,0,0,0,10.18,5.56,69.48,69.48,0,0,0,15.48,3.73c1.8.2,3.17.28,4.1.31l1.39,0s-.47,0-1.4,0-2.3-.08-4.1-.28A67.83,67.83,0,0,1,278.14,456a42.71,42.71,0,0,1-10.23-5.56,44.53,44.53,0,0,1-5-4.44,46.67,46.67,0,0,1-4.61-5.63,58,58,0,0,1-7.14-14.5,95.59,95.59,0,0,1-4-17.84c-.44-3.2-.76-6.49-1-9.87a88.73,88.73,0,0,1,.17-10.41c.49-7.08,1.39-14.44,2.49-22.07,2.22-15.27,5.14-31.64,8.65-49q.68-3.25,1.37-6.55a54.55,54.55,0,0,0,1-6.68,80.43,80.43,0,0,0,.08-13.8,60.2,60.2,0,0,0-2.65-13.89,36.71,36.71,0,0,0-2.93-6.57,22.17,22.17,0,0,0-4.44-5.72,18.85,18.85,0,0,0-6.22-3.8,17.05,17.05,0,0,0-3.59-.92,14.25,14.25,0,0,0-1.84-.24,14.55,14.55,0,0,0-1.87-.08,31.78,31.78,0,0,0-14.52,3.83,62.58,62.58,0,0,0-12.72,8.86,88.77,88.77,0,0,0-10.92,11.49l0,0c-14.38,26.09-29.5,53.56-45.22,82.11l-.13.22-.22-.13-5.36-3.12-.21-.13.12-.22,40.18-72.93,5.25-9.53v0h0a91.25,91.25,0,0,1,9.94-10.92,77.67,77.67,0,0,1,11.53-9,54.2,54.2,0,0,1,6.39-3.49,40.73,40.73,0,0,1,6.82-2.51,31.84,31.84,0,0,1,14.32-.71,24.93,24.93,0,0,1,12.69,6.28,33.26,33.26,0,0,1,7.88,11.66,58.08,58.08,0,0,1,3.65,13.47,83.63,83.63,0,0,1,.93,13.75,73.94,73.94,0,0,1-1.34,13.56c-.94,4.41-1.86,8.78-2.72,13.15q-2.58,13.08-4.75,25.86c-1.44,8.52-2.75,16.94-3.79,25.25-.51,4.15-1,8.28-1.27,12.39-.18,2.05-.23,4.09-.3,6.13s0,4.05.23,6.07a103.62,103.62,0,0,0,4.3,23.35c2.39,7.37,6.13,14.27,11.55,19.39a35.65,35.65,0,0,0,4.3,3.49,35.1,35.1,0,0,0,4.76,2.71,39.38,39.38,0,0,0,5.05,2c1.74.46,3.46,1,5.19,1.39s3.47.78,5.22.95c.87.1,1.74.25,2.61.31l2.6.13a33.23,33.23,0,0,0,10.13-1.28,26.44,26.44,0,0,0,8.8-4.6,41.57,41.57,0,0,0,6.8-6.92c3.93-5.05,7.67-10.09,12.07-14.26a35,35,0,0,1,3.49-2.85,21.33,21.33,0,0,1,3.9-2.11,24.14,24.14,0,0,1,8.45-1.59,20,20,0,0,1,8.12,1.59,24.29,24.29,0,0,1,6.67,4.37l.1.09-.08.1c-1.46,2-2.9,4-4.15,5.71l-.07.08-.13-.12a19.16,19.16,0,0,0-7.61-4.43,13.92,13.92,0,0,0-8.26.06,18.56,18.56,0,0,0-6.51,4.38,63,63,0,0,0-5,5.5c-3.06,3.66-5.57,7.32-8.33,10.31a41.92,41.92,0,0,1-8.36,7.17,31.72,31.72,0,0,1-7.91,3.66,16.08,16.08,0,0,1-1.75.5c-.56.13-1.1.28-1.61.38-1.05.17-2,.37-2.83.45l-2.24.22-1.62.05Z" style="fill: rgb(38, 50, 56); transform-origin: 257.015px 355.875px;" id="elskk3qffl08" class="animable"></path><path d="M217.48,264.1a9.79,9.79,0,0,0-1.37-2.86,9.21,9.21,0,0,0-2.57-1.83c0-.07.4-.08,1,.12a4.61,4.61,0,0,1,3,3.57C217.62,263.72,217.55,264.1,217.48,264.1Z" style="fill: rgb(38, 50, 56); transform-origin: 215.558px 261.732px;" id="elexsxwfjyjx" class="animable"></path><path d="M208.42,271.16a9.5,9.5,0,0,0-1.37-2.85,9.38,9.38,0,0,0-2.57-1.84c0-.06.4-.07,1,.13a4.42,4.42,0,0,1,2,1.38,4.7,4.7,0,0,1,1,2.19C208.56,270.78,208.49,271.16,208.42,271.16Z" style="fill: rgb(38, 50, 56); transform-origin: 206.498px 268.796px;" id="elt2js9b05tzs" class="animable"></path><path d="M198.93,281.49a9.49,9.49,0,0,0-1.37-2.86A9.21,9.21,0,0,0,195,276.8c0-.07.4-.08,1,.12a4.45,4.45,0,0,1,2,1.38,4.7,4.7,0,0,1,1,2.19C199.07,281.1,199,281.49,198.93,281.49Z" style="fill: rgb(38, 50, 56); transform-origin: 197.014px 279.122px;" id="elt083nn8deu" class="animable"></path><path d="M348.46,426.57a6.36,6.36,0,0,0-2-6c0-.06.42.08.91.5a4.74,4.74,0,0,1,1.51,4.58C348.74,426.26,348.52,426.6,348.46,426.57Z" style="fill: rgb(38, 50, 56); transform-origin: 347.725px 423.564px;" id="elsezup84im2" class="animable"></path><path d="M342.21,429.62a9.15,9.15,0,0,0-1.53-2.9,9.51,9.51,0,0,0-2.77-1.76c0-.06.41-.09,1,.08a4.8,4.8,0,0,1,2.12,1.33,4.65,4.65,0,0,1,1.15,2.22C342.34,429.22,342.28,429.62,342.21,429.62Z" style="fill: rgb(38, 50, 56); transform-origin: 340.096px 427.266px;" id="elph258ayichq" class="animable"></path><path d="M336,436.06a9.3,9.3,0,0,0-1.54-2.91,9.09,9.09,0,0,0-2.77-1.75c0-.07.41-.1,1,.08A4.71,4.71,0,0,1,336,435C336.1,435.65,336,436.05,336,436.06Z" style="fill: rgb(38, 50, 56); transform-origin: 333.867px 433.703px;" id="eldlv6vk3gjql" class="animable"></path><path d="M330.31,443.1a6.43,6.43,0,0,0-4.31-4.66c0-.07.41-.1,1,.08a4.67,4.67,0,0,1,2.12,1.32,4.77,4.77,0,0,1,1.16,2.22C330.43,442.7,330.37,443.1,330.31,443.1Z" style="fill: rgb(38, 50, 56); transform-origin: 328.187px 440.743px;" id="el60pprys7d68" class="animable"></path><path d="M323.91,450.14a6.23,6.23,0,0,0-4.1-4.46c0-.06.4-.09,1,.07a4.53,4.53,0,0,1,2,1.27,4.59,4.59,0,0,1,1.1,2.13C324,449.75,324,450.13,323.91,450.14Z" style="fill: rgb(38, 50, 56); transform-origin: 321.894px 447.886px;" id="elmhh1liakp3j" class="animable"></path><path d="M314.53,456.46a9.39,9.39,0,0,0-.51-3.09,9.21,9.21,0,0,0-1.95-2.44c0-.06.4,0,.91.38a4.53,4.53,0,0,1,1.87,4.21C314.77,456.13,314.59,456.48,314.53,456.46Z" style="fill: rgb(38, 50, 56); transform-origin: 313.475px 453.685px;" id="elcg2r5grkqqv" class="animable"></path><path d="M302.47,459.72a10.58,10.58,0,0,0,.57-3.21,9,9,0,0,0-1-3.1c0-.05.38.18.74.71a4.69,4.69,0,0,1,.78,2.35,5,5,0,0,1-.47,2.44C302.81,459.48,302.52,459.76,302.47,459.72Z" style="fill: rgb(38, 50, 56); transform-origin: 302.805px 456.564px;" id="el8qqzo8qdw9q" class="animable"></path><path d="M289.94,459.06a10.83,10.83,0,0,0,1.27-3,9,9,0,0,0-.29-3.24c.06,0,.33.26.57.86a4.81,4.81,0,0,1,.24,2.46,4.94,4.94,0,0,1-1,2.27C290.32,458.9,290,459.11,289.94,459.06Z" style="fill: rgb(38, 50, 56); transform-origin: 290.867px 455.944px;" id="elr6qt6uizj7e" class="animable"></path><path d="M278.93,456.16a10.71,10.71,0,0,0,2.07-2.53,9,9,0,0,0,.63-3.19c.07,0,.24.34.3,1a4.77,4.77,0,0,1-.46,2.44,5,5,0,0,1-1.6,1.89C279.34,456.11,279,456.22,278.93,456.16Z" style="fill: rgb(38, 50, 56); transform-origin: 280.437px 453.308px;" id="elapzf568dpwl" class="animable"></path><path d="M269.65,451.28a10.61,10.61,0,0,0,2.08-2.53,9.26,9.26,0,0,0,.63-3.19c.06,0,.24.34.3,1a4.77,4.77,0,0,1-.46,2.44,5,5,0,0,1-1.6,1.89C270.07,451.23,269.68,451.34,269.65,451.28Z" style="fill: rgb(38, 50, 56); transform-origin: 271.162px 448.428px;" id="elc34rtc1suet" class="animable"></path><path d="M259.54,441.93a10.53,10.53,0,0,0,2.81-1.67,9.35,9.35,0,0,0,1.69-2.79c.06,0,.1.41-.06,1a4.75,4.75,0,0,1-1.26,2.13,5,5,0,0,1-2.15,1.24C260,442,259.55,442,259.54,441.93Z" style="fill: rgb(38, 50, 56); transform-origin: 261.816px 439.722px;" id="elvnmyfny6dte" class="animable"></path><path d="M252.51,429.21a10.3,10.3,0,0,0,3.1-1,9.36,9.36,0,0,0,2.23-2.37c.06,0,0,.42-.27,1a4.63,4.63,0,0,1-1.68,1.82,5,5,0,0,1-2.36.76C252.89,429.39,252.51,429.27,252.51,429.21Z" style="fill: rgb(38, 50, 56); transform-origin: 255.186px 427.63px;" id="ely6lkmx5ko8b" class="animable"></path><path d="M249.25,418.42a10.52,10.52,0,0,0,3.09-1,8.92,8.92,0,0,0,2.23-2.38c.06,0,0,.42-.27,1a4.71,4.71,0,0,1-1.68,1.83,5,5,0,0,1-2.36.75C249.62,418.6,249.24,418.49,249.25,418.42Z" style="fill: rgb(38, 50, 56); transform-origin: 251.921px 416.83px;" id="el2ikqy4d6ilr" class="animable"></path><path d="M246.65,405.38a10.62,10.62,0,0,0,3.26.14,8.82,8.82,0,0,0,2.94-1.41c.05,0-.13.4-.61.83A4.66,4.66,0,0,1,250,406a5,5,0,0,1-2.47-.14C246.93,405.68,246.62,405.44,246.65,405.38Z" style="fill: rgb(38, 50, 56); transform-origin: 249.753px 405.102px;" id="els7r8skig0i" class="animable"></path><path d="M246.09,393.34a10.69,10.69,0,0,0,3.22.57,8.92,8.92,0,0,0,3.09-1c0,.05-.18.38-.71.74a4.56,4.56,0,0,1-2.35.79,4.88,4.88,0,0,1-2.43-.46C246.33,393.68,246.05,393.4,246.09,393.34Z" style="fill: rgb(38, 50, 56); transform-origin: 249.243px 393.681px;" id="elhgjrhwak35i" class="animable"></path><path d="M247.27,379.11a10.71,10.71,0,0,0,3.13.93,9.26,9.26,0,0,0,3.19-.66c0,.05-.22.35-.79.66a4.75,4.75,0,0,1-2.42.52,5,5,0,0,1-2.37-.74C247.47,379.47,247.23,379.16,247.27,379.11Z" style="fill: rgb(38, 50, 56); transform-origin: 250.428px 379.838px;" id="elzeojat099ea" class="animable"></path><path d="M249.05,365.27a10.71,10.71,0,0,0,3.13.93,9,9,0,0,0,3.19-.66s-.22.36-.79.66a4.73,4.73,0,0,1-2.42.52,5,5,0,0,1-2.37-.74C249.26,365.63,249,365.32,249.05,365.27Z" style="fill: rgb(38, 50, 56); transform-origin: 252.207px 365.998px;" id="elvb9pmr2ny3q" class="animable"></path><path d="M251.48,350.83a9.36,9.36,0,0,0,3,.88,9.09,9.09,0,0,0,3.08-.69c0,.05-.2.35-.75.66a4.64,4.64,0,0,1-4.65-.15C251.67,351.19,251.44,350.88,251.48,350.83Z" style="fill: rgb(38, 50, 56); transform-origin: 254.518px 351.531px;" id="el6wp3xzfla3l" class="animable"></path><path d="M254.43,334.17a9.64,9.64,0,0,0,3,1,9.11,9.11,0,0,0,3.12-.55c0,.06-.23.34-.79.62a4.54,4.54,0,0,1-2.37.45,4.66,4.66,0,0,1-2.27-.82C254.6,334.54,254.38,334.22,254.43,334.17Z" style="fill: rgb(38, 50, 56); transform-origin: 257.487px 334.938px;" id="elwfkgoawexss" class="animable"></path><path d="M257.48,318.05a9.78,9.78,0,0,0,3,1,9,9,0,0,0,3.11-.54c0,.05-.23.34-.78.62a4.57,4.57,0,0,1-2.38.44,4.66,4.66,0,0,1-2.27-.81C257.66,318.41,257.44,318.09,257.48,318.05Z" style="fill: rgb(38, 50, 56); transform-origin: 260.533px 318.818px;" id="elesf0ebrhceo" class="animable"></path><path d="M260.26,298.84a9.78,9.78,0,0,0,3,1,9,9,0,0,0,3.11-.54c0,.05-.22.34-.78.62a4.55,4.55,0,0,1-2.37.44,4.66,4.66,0,0,1-2.27-.81C260.43,299.2,260.21,298.88,260.26,298.84Z" style="fill: rgb(38, 50, 56); transform-origin: 263.312px 299.608px;" id="elgmtuiqqr6" class="animable"></path><path d="M259.53,283.43a10.18,10.18,0,0,0,3.16.15,9.26,9.26,0,0,0,2.83-1.4c.06,0-.12.39-.57.82a4.62,4.62,0,0,1-4.57.94C259.8,283.73,259.5,283.48,259.53,283.43Z" style="fill: rgb(38, 50, 56); transform-origin: 262.53px 283.182px;" id="elap7ijacojl5" class="animable"></path><path d="M255.28,270.54a10.1,10.1,0,0,0,3-1.12,9,9,0,0,0,2.05-2.4c.07,0,.05.41-.21,1a4.43,4.43,0,0,1-1.55,1.85,4.63,4.63,0,0,1-2.27.82C255.65,270.71,255.28,270.6,255.28,270.54Z" style="fill: rgb(38, 50, 56); transform-origin: 257.822px 268.856px;" id="eldkue10q4mq" class="animable"></path><path d="M247.87,261.34a9.19,9.19,0,0,0,2.36-2.1,9,9,0,0,0,1.05-3c.07,0,.19.37.16,1a4.5,4.5,0,0,1-.77,2.29,4.65,4.65,0,0,1-1.83,1.58C248.28,261.37,247.89,261.41,247.87,261.34Z" style="fill: rgb(38, 50, 56); transform-origin: 249.657px 258.805px;" id="eleyd9ej2lllr" class="animable"></path><path d="M68.53,446.85s-3.09.26-4.12,1.17-9.79,18.49-9.79,18.49v5.6H79l5.79-15.76.45-6.6a2.71,2.71,0,0,0-2.68-2.9Z" style="fill: rgb(38, 50, 56); transform-origin: 69.9333px 459.48px;" id="el0p0ylcw5eg5n" class="animable"></path><polygon points="109.5 441.86 103.68 438.5 148 360.5 153.81 363.86 109.5 441.86" style="fill: rgb(224, 224, 224); transform-origin: 128.745px 401.18px;" id="el0si1jltv7all" class="animable"></polygon><path d="M109.5,441.86s.07-.15.22-.42l.65-1.19,2.54-4.54,9.37-16.65c7.95-14.05,19-33.53,31.31-55.33l.09.36-5.81-3.36c.7-.2.19,0,.34-.08v0l0,.06-.06.1L148,361l-.24.42-.47.83-.94,1.66-1.87,3.29-3.68,6.47-7.08,12.44c-4.58,8-8.86,15.55-12.73,22.32-7.73,13.5-13.77,24.06-17.22,30.07l0-.13L108,441l1.1.66.38.24-.37-.19-1.1-.62-4.4-2.47-.08-.05,0-.08,17-30.19c3.85-6.78,8.11-14.31,12.67-22.36l7.06-12.45c1.21-2.13,2.44-4.29,3.67-6.47l1.87-3.29,1-1.66.47-.83.24-.42.11-.21.06-.1,0-.05,0,0c.16-.05-.35.07.37-.12l5.81,3.37.23.13L154,364l-31.6,55.39L113,435.9l-2.57,4.45-.67,1.14Z" style="fill: rgb(38, 50, 56); transform-origin: 128.81px 401.12px;" id="elkqvsusjta0t" class="animable"></path><path d="M108.43,427.14,101.49,441,92,446l5.17,8.42L105,450a13.67,13.67,0,0,0,5.27-5.42L117,432Z" style="fill: rgb(38, 50, 56); transform-origin: 104.5px 440.78px;" id="ell2omlcrfb3" class="animable"></path><path d="M65.73,453.43h16.9v9.45H93s2.85-.6,3.54-2.59a25.14,25.14,0,0,0,.72-5.86L92,446,86.17,449H71.9A6.22,6.22,0,0,0,66.57,452Z" style="fill: rgb(69, 90, 100); transform-origin: 81.495px 454.44px;" id="eldjamkmkmex" class="animable"></path><path d="M65.73,453.43l0-.08a2,2,0,0,1,.15-.27l.6-1.06a6.28,6.28,0,0,1,1.23-1.51A6.15,6.15,0,0,1,70,449.2a5.69,5.69,0,0,1,1.53-.29c.54,0,1.1,0,1.69,0h3.81l9.11,0h0l5.87-3,.09-.05,0,.09,5.17,8.41,0,0v0a30.64,30.64,0,0,1-.33,4.19,10.33,10.33,0,0,1-.35,1.58,3.32,3.32,0,0,1-.87,1.38A6.26,6.26,0,0,1,93,463H82.52v-.11c0-3.41,0-6.58,0-9.45l.09.1-12.36-.06-3.37,0h0l3.41,0,12.28-.06h.09v.09c0,2.87,0,6,0,9.45l-.11-.11h10.3a6.05,6.05,0,0,0,2.68-1.36,4.51,4.51,0,0,0,1.15-2.81,32,32,0,0,0,.33-4.17l0,.07-5.17-8.42.14,0-5.86,2.95h0l-9.11,0H73.25c-.58,0-1.15,0-1.69,0a6.53,6.53,0,0,0-1.5.27,6,6,0,0,0-2.24,1.27,6.17,6.17,0,0,0-1.23,1.47l-.63,1-.17.27Z" style="fill: rgb(38, 50, 56); transform-origin: 81.5px 454.43px;" id="elqqwnyuqy31" class="animable"></path><path d="M468.16,409.22c-4.14-6.35-8.93-9.88-22.36-11.43l-3.51,0c-25.91.86-48.88,6-70.59,20.18-5.58,3.63-11.25,8.67-11.59,15.31-.37,7,5.34,12.8,11.33,16.4,11.89,7.15,26,9.3,39.79,11.16,9.89,1.33,20,2.59,29.83,1s19.66-6.35,25.06-14.75c3.8-5.9,5.13-13.08,5.35-20.1C471.67,420.89,471.49,414.32,468.16,409.22Z" style="fill: rgb(25, 118, 210); transform-origin: 415.809px 430.186px;" id="elsbahqtzflbq" class="animable"></path><path d="M450.41,420.16a.86.86,0,0,1-.22-.15l-.6-.46a15,15,0,0,0-2.55-1.44c-2.32-1.05-6-1.67-10.57-1.62-9.12.11-21.84.51-35.38,3.91a117.79,117.79,0,0,0-18.64,6.1,50,50,0,0,0-7.55,4,19,19,0,0,0-3,2.41,12.38,12.38,0,0,0-2,2.87,13.35,13.35,0,0,0-1,3,13,13,0,0,0-.21,2.86,14,14,0,0,0,1,4.49,25.4,25.4,0,0,0,1.84,3.49s-.06-.06-.17-.2-.26-.37-.45-.62a10.32,10.32,0,0,1-.65-1.06,12.11,12.11,0,0,1-.76-1.53,13.86,13.86,0,0,1-1.06-4.56,12.92,12.92,0,0,1,.18-2.93,12.15,12.15,0,0,1,3.09-6.13,19.71,19.71,0,0,1,3-2.49,49.49,49.49,0,0,1,7.6-4.07A114.86,114.86,0,0,1,401,419.9c13.61-3.42,26.38-3.76,35.51-3.78,4.58,0,8.32.68,10.65,1.81a13,13,0,0,1,2.53,1.53l.58.51C450.36,420.09,450.42,420.15,450.41,420.16Z" style="fill: rgb(38, 50, 56); transform-origin: 409.417px 432.87px;" id="eln07ysu2azfn" class="animable"></path><path d="M361.13,433a2.25,2.25,0,0,1-2.85.91c-.5-.22-1-.42-1.5-.65a4.09,4.09,0,0,1-2.44-2.49,4.78,4.78,0,0,1,.59-3c.88-2,1.84-3.89,2.9-5.76a5.88,5.88,0,0,1,1.79-2.21,4.15,4.15,0,0,1,3.43-.33,12.74,12.74,0,0,1,3.15,1.63s.79.23.41,1.89C366.33,424.22,363,430,361.13,433Z" style="fill: rgb(38, 50, 56); transform-origin: 360.506px 426.674px;" id="ele2mh5pthceh" class="animable"></path><path d="M400.71,420.05a55,55,0,0,1-2.65-7.12,57,57,0,0,1-2.15-7.28,109.86,109.86,0,0,1,4.8,14.4Z" style="fill: rgb(38, 50, 56); transform-origin: 398.31px 412.85px;" id="el5cpkv7a6mgx" class="animable"></path><path d="M414.28,403.18l-1.88-4.52a1.38,1.38,0,0,1-.08-1.3,1.34,1.34,0,0,1,.85-.43l5.69-1.32a.92.92,0,0,1,1.42.82c.21,1.33.43,2.66.64,4a.88.88,0,0,1-.05.64,1,1,0,0,1-.73.35l-5,.76" style="fill: rgb(25, 118, 210); transform-origin: 416.576px 399.321px;" id="el5riwmn7t8rn" class="animable"></path><g id="elbmroeccuago"><g style="opacity: 0.3; transform-origin: 454.34px 439.96px;" class="animable"><g id="elswy2boamj3i"><circle cx="454.34" cy="439.96" r="23.33" class="animable" style="transform-origin: 454.34px 439.96px; transform: rotate(-45deg);"></circle></g></g></g><g id="elaczad2y6rbs"><circle cx="457.81" cy="442.19" r="23.33" style="fill: rgb(38, 50, 56); transform-origin: 457.81px 442.19px; transform: rotate(-45deg);" class="animable"></circle></g><path d="M457.91,461.69a19.51,19.51,0,1,1,19.51-19.5A19.53,19.53,0,0,1,457.91,461.69Zm0-38a18.51,18.51,0,1,0,18.51,18.51A18.53,18.53,0,0,0,457.91,423.68Z" style="fill: rgb(69, 90, 100); transform-origin: 457.91px 442.18px;" id="el3nvd308ht8k" class="animable"></path><path d="M455.42,425.78a2.54,2.54,0,0,1,.44.83,9.23,9.23,0,0,1,.58,2.5,10,10,0,0,1-10.34,11,9.33,9.33,0,0,1-2.53-.42,2.9,2.9,0,0,1-.86-.38,18,18,0,0,0,3.4.43,9.9,9.9,0,0,0,10-10.63A16.63,16.63,0,0,0,455.42,425.78Z" style="fill: rgb(69, 90, 100); transform-origin: 449.6px 432.949px;" id="el4pm7f83hzv5" class="animable"></path><path d="M446.83,452.4a3.08,3.08,0,0,1,.49-.8,8.64,8.64,0,0,1,1.83-1.79,10,10,0,0,1,14.79,3.09,9.06,9.06,0,0,1,.95,2.38,2.62,2.62,0,0,1,.13.93,18.34,18.34,0,0,0-1.4-3.12,9.89,9.89,0,0,0-14.26-3A16.5,16.5,0,0,0,446.83,452.4Z" style="fill: rgb(69, 90, 100); transform-origin: 455.926px 451.989px;" id="elexcjbjzqtoa" class="animable"></path><path d="M474.56,444.23a2.51,2.51,0,0,1-.92.19,9.07,9.07,0,0,1-2.56-.12,10,10,0,0,1-7.78-12.95,8.71,8.71,0,0,1,1.09-2.32,2.78,2.78,0,0,1,.6-.73,16.71,16.71,0,0,0-1.34,3.15,9.9,9.9,0,0,0,7.5,12.49A16.8,16.8,0,0,0,474.56,444.23Z" style="fill: rgb(69, 90, 100); transform-origin: 468.684px 436.38px;" id="els4ev6kevhij" class="animable"></path><path d="M442.29,397.76a9,9,0,0,1-1.41.12c-.91,0-2.22.1-3.84.2-3.24.2-7.7.63-12.6,1.37s-9.31,1.58-12.51,2.15l-3.8.65a6.61,6.61,0,0,1-1.4.16,8,8,0,0,1,1.37-.36l3.76-.81c3.18-.66,7.59-1.56,12.5-2.3A112.12,112.12,0,0,1,437,397.71c1.63,0,2.94-.07,3.85,0A6.64,6.64,0,0,1,442.29,397.76Z" style="fill: rgb(38, 50, 56); transform-origin: 424.51px 400.044px;" id="el5o81f8ns3yd" class="animable"></path><path d="M251.19,130.47s13.94-2.82,23.15,3.65c5.32,3.74,23.14,34.79,23.14,34.79l-26.37,13.66Z" style="fill: rgb(25, 118, 210); transform-origin: 274.335px 156.214px;" id="elvgyjbeeg35l" class="animable"></path><path d="M272.77,181.71l4.46,17-28.38,30.14,6.37,14.65s38.69-24.34,43.9-32.06,1.89-19.31.61-23.55-5.56-17.24-5.56-17.24Z" style="fill: rgb(255, 191, 157); transform-origin: 275.403px 207.075px;" id="el487vvvfnlm2" class="animable"></path><path d="M215,262.94s10.77-12.73,11.8-13.88S241,236.3,241,236.3l8.43-8,9.44,11.16-4.36,4.82s-1,4-2.26,5.71-11,2.27-11,2.27l-1.43,4.63,1.26,1.93,2.72-.3s0,2.75-1.68,3.26a8.07,8.07,0,0,1-3.85-.09,2.67,2.67,0,0,1-3,1.34,3.38,3.38,0,0,1-.91-.44,7.12,7.12,0,0,1-2.8-3.55l-.66-1.78-.72,3.72,2.67,2.49a1.29,1.29,0,0,1-.9,2.24l-.38,0a13.92,13.92,0,0,1-4.4-2.19c-1.13-.75-1.54-2.48-1.57-3.84l.4-1.59s-7.16,5.54-9,6.26C215.57,264.9,215,262.94,215,262.94Z" style="fill: rgb(255, 191, 157); transform-origin: 236.935px 247.005px;" id="elf2feeyqlkc" class="animable"></path><path d="M291.33,200.71a51.42,51.42,0,0,0-7.05-1.86,50.84,50.84,0,0,0-7.29-.31,6.81,6.81,0,0,1,2.13-.39,23,23,0,0,1,5.24.18,22.61,22.61,0,0,1,5.05,1.38A7.26,7.26,0,0,1,291.33,200.71Z" style="fill: rgb(255, 154, 108); transform-origin: 284.16px 199.393px;" id="elvxldplwvss" class="animable"></path><path d="M230.23,248.56c.05.08-.49.47-1.18,1.27a11,11,0,0,0-2,3.58,25.69,25.69,0,0,0-1,4,7,7,0,0,1-.4,1.71,5.43,5.43,0,0,1,0-1.76,18,18,0,0,1,.91-4.16,9.54,9.54,0,0,1,2.22-3.65A3.73,3.73,0,0,1,230.23,248.56Z" style="fill: rgb(255, 154, 108); transform-origin: 227.906px 253.84px;" id="eltbeql9rl24n" class="animable"></path><path d="M235.1,248.12c0,.08-.49.41-1.19,1.1a9.48,9.48,0,0,0-2.1,3.18c-1.13,2.82-1,5.38-1.16,5.36a3.84,3.84,0,0,1-.14-1.64,11.4,11.4,0,0,1,.81-3.92,8.27,8.27,0,0,1,2.34-3.25A3.34,3.34,0,0,1,235.1,248.12Z" style="fill: rgb(255, 154, 108); transform-origin: 232.789px 252.94px;" id="elhbifntnz1kp" class="animable"></path><path d="M238.44,248.12a13.33,13.33,0,0,1-1.21,1.9,9.79,9.79,0,0,0-1.87,4.86,9.33,9.33,0,0,0,1.63,4.94,14.12,14.12,0,0,1,1.13,1.93,7.49,7.49,0,0,1-1.44-1.73,12.37,12.37,0,0,1-1.22-2.15,7,7,0,0,1-.62-3,9.18,9.18,0,0,1,2.09-5.06A7.46,7.46,0,0,1,238.44,248.12Z" style="fill: rgb(255, 154, 108); transform-origin: 236.64px 254.935px;" id="eln0hk144tfwh" class="animable"></path><path d="M297.48,168.91a2.76,2.76,0,0,1-.5.31l-1.49.83-5.56,3-18.7,9.78-.26.14-.1-.28c-.31-.84-.63-1.74-1-2.64-3.08-8.4-5.87-16-7.91-21.58-1-2.7-1.86-4.91-2.46-6.51l-.67-1.77a2.53,2.53,0,0,1-.21-.63,2.89,2.89,0,0,1,.3.59c.19.39.45,1,.77,1.73.65,1.51,1.54,3.72,2.61,6.46,2.14,5.48,5,13.1,8.06,21.53.33.91.65,1.8,1,2.64l-.37-.14,18.77-9.63,5.64-2.83,1.53-.74A2.06,2.06,0,0,1,297.48,168.91Z" style="fill: rgb(38, 50, 56); transform-origin: 278.05px 166.265px;" id="els4ox3dn0x1" class="animable"></path></g><defs>     <filter id="active" height="200%">         <feMorphology in="SourceAlpha" result="DILATED" operator="dilate" radius="2"></feMorphology>                <feFlood flood-color="#32DFEC" flood-opacity="1" result="PINK"></feFlood>        <feComposite in="PINK" in2="DILATED" operator="in" result="OUTLINE"></feComposite>        <feMerge>            <feMergeNode in="OUTLINE"></feMergeNode>            <feMergeNode in="SourceGraphic"></feMergeNode>        </feMerge>    </filter>    <filter id="hover" height="200%">        <feMorphology in="SourceAlpha" result="DILATED" operator="dilate" radius="2"></feMorphology>                <feFlood flood-color="#ff0000" flood-opacity="0.5" result="PINK"></feFlood>        <feComposite in="PINK" in2="DILATED" operator="in" result="OUTLINE"></feComposite>        <feMerge>            <feMergeNode in="OUTLINE"></feMergeNode>            <feMergeNode in="SourceGraphic"></feMergeNode>        </feMerge>            <feColorMatrix type="matrix" values="0   0   0   0   0                0   1   0   0   0                0   0   0   0   0                0   0   0   1   0 "></feColorMatrix>    </filter></defs></svg>