<svg class="animated" id="freepik_stories-dust-allergy" xmlns="http://www.w3.org/2000/svg" viewBox="0 0 500 500" version="1.1" xmlns:xlink="http://www.w3.org/1999/xlink" xmlns:svgjs="http://svgjs.com/svgjs"><style>svg#freepik_stories-dust-allergy:not(.animated) .animable {opacity: 0;}svg#freepik_stories-dust-allergy.animated #freepik--background-simple--inject-148 {animation: 1s 1 forwards cubic-bezier(.36,-0.01,.5,1.38) slideLeft;animation-delay: 0s;}svg#freepik_stories-dust-allergy.animated #freepik--Plant--inject-148 {animation: 1s 1 forwards cubic-bezier(.36,-0.01,.5,1.38) slideUp;animation-delay: 0s;}svg#freepik_stories-dust-allergy.animated #freepik--Pictures--inject-148 {animation: 1s 1 forwards cubic-bezier(.36,-0.01,.5,1.38) fadeIn;animation-delay: 0s;}svg#freepik_stories-dust-allergy.animated #freepik--Floor--inject-148 {animation: 1s 1 forwards cubic-bezier(.36,-0.01,.5,1.38) fadeIn;animation-delay: 0s;}svg#freepik_stories-dust-allergy.animated #freepik--Sofa--inject-148 {animation: 1s 1 forwards cubic-bezier(.36,-0.01,.5,1.38) slideLeft;animation-delay: 0s;}svg#freepik_stories-dust-allergy.animated #freepik--Dust--inject-148 {animation: 1s 1 forwards cubic-bezier(.36,-0.01,.5,1.38) slideRight;animation-delay: 0s;}svg#freepik_stories-dust-allergy.animated #freepik--Character--inject-148 {animation: 1s 1 forwards ease-out slideRight;animation-delay: 0s;}            @keyframes slideLeft {                0% {                    opacity: 0;                    transform: translateX(-30px);                }                100% {                    opacity: 1;                    transform: translateX(0);                }            }                    @keyframes slideUp {                0% {                    opacity: 0;                    transform: translateY(30px);                }                100% {                    opacity: 1;                    transform: inherit;                }            }                    @keyframes fadeIn {                0% {                    opacity: 0;                }                100% {                    opacity: 1;                }            }                    @keyframes slideRight {                0% {                    opacity: 0;                    transform: translateX(30px);                }                100% {                    opacity: 1;                    transform: translateX(0);                }            }        </style><g id="freepik--background-simple--inject-148" class="animable" style="transform-origin: 255.072px 250.894px;"><path d="M446.33,145.29s-80.4-115.75-180.78-128C176.94,6.41,94.69,48.79,83.24,140.35,79.16,173,71.9,209.07,59,238.83,44.53,272.21,19.84,300,38.75,364.17s98.77,122.12,156.82,122,112.58-52.89,157.57-100.88S541.4,292.17,446.33,145.29Z" style="fill: rgb(25, 118, 210); transform-origin: 255.072px 250.894px;" id="eljtz10yzl25" class="animable"></path><g id="el5tzx2w33np6"><path d="M446.33,145.29s-80.4-115.75-180.78-128C176.94,6.41,94.69,48.79,83.24,140.35,79.16,173,71.9,209.07,59,238.83,44.53,272.21,19.84,300,38.75,364.17s98.77,122.12,156.82,122,112.58-52.89,157.57-100.88S541.4,292.17,446.33,145.29Z" style="fill: rgb(255, 255, 255); opacity: 0.7; transform-origin: 255.072px 250.894px;" class="animable"></path></g></g><g id="freepik--Plant--inject-148" class="animable" style="transform-origin: 89.1058px 311.066px;"><path d="M101.45,270.61h0a.13.13,0,1,0-.24-.1A172.47,172.47,0,0,0,92.14,299a264.27,264.27,0,0,0-5,29.49l-.71,7.45c-.11,1.24-.24,2.49-.33,3.73l-.21,3.74c-.1,2.49-.26,5-.33,7.48l.07,7.49.08,3.75c.06,1.25.15,2.49.23,3.74.19,2.49.34,5,.57,7.46.48,5,1.23,9.91,2,14.82a.14.14,0,0,0,.27,0h0c0-2.5-.12-5-.18-7.47s-.29-4.95-.25-7.44-.06-5-.08-7.43L88.18,362l.06-3.72,0-7.42.2-7.42.08-3.71c0-1.24.14-2.47.2-3.71l.46-7.41a262.54,262.54,0,0,1,4.2-29.41A172,172,0,0,1,101.45,270.61Z" style="fill: rgb(38, 50, 56); transform-origin: 93.51px 329.341px;" id="ellf2zczf6z9q" class="animable"></path><path d="M102.51,309.42a.13.13,0,0,0-.08-.16.12.12,0,0,0-.16.08,172.17,172.17,0,0,0-8.41,38.22c-.66,6.5-1.38,13-1.47,19.53a162.3,162.3,0,0,0,.69,19.59.13.13,0,0,0,.12.11.12.12,0,0,0,.14-.11c.76-6.51,1.22-13,1.67-19.48s.52-13,.94-19.46a195.29,195.29,0,0,1,6.56-38.32Z" style="fill: rgb(38, 50, 56); transform-origin: 97.427px 348.022px;" id="eldk0catwl1e" class="animable"></path><path d="M124,323.07a.14.14,0,0,0-.18,0,65.92,65.92,0,0,0-14.39,12.55,56.79,56.79,0,0,0-5.62,7.82l-1.16,2.18-.9,2.27a18.92,18.92,0,0,0-.79,2.3c-.23.77-.49,1.54-.7,2.32a92.16,92.16,0,0,0-3,19A109.92,109.92,0,0,0,98,390.56a.15.15,0,0,0,.13.12.14.14,0,0,0,.14-.12l1.64-18.93c.65-6.25,1-12.55,2.39-18.66.17-.76.39-1.5.59-2.26a18.33,18.33,0,0,1,.66-2.22l.77-2.19,1-2.07a54.67,54.67,0,0,1,5.15-7.82A64.8,64.8,0,0,1,124,323.26h0A.14.14,0,0,0,124,323.07Z" style="fill: rgb(38, 50, 56); transform-origin: 110.585px 356.859px;" id="elop68zyda9v" class="animable"></path><path d="M113.62,347.39c-2.93,1.89-4.9,4.87-6.54,7.86a46.27,46.27,0,0,0-3.67,9.64c-.26.82-.46,1.66-.64,2.5l-.59,2.51a42,42,0,0,0-.64,5.11c0,1.72-.07,3.43,0,5.15a44.39,44.39,0,0,0,.67,5.11.14.14,0,0,0,.1.1.13.13,0,0,0,.16-.1,45.27,45.27,0,0,0,.91-5c.26-1.66.52-3.32.72-5s.46-3.3.59-5,.35-3.32.71-4.94a45.08,45.08,0,0,1,2.81-9.54,21.19,21.19,0,0,1,5.49-8.21h0a.14.14,0,0,0,0-.17A.13.13,0,0,0,113.62,347.39Z" style="fill: rgb(38, 50, 56); transform-origin: 107.619px 366.382px;" id="eluxzw6cuj6h" class="animable"></path><path d="M83.44,366.34c-.71-8.4-2.09-16.72-3.4-25s-2.76-16.6-4.28-24.87-3.22-16.51-5-24.73a.13.13,0,0,0-.25.05c1.43,8.28,2.73,16.58,4,24.9s2.45,16.62,3.5,24.95,1.83,16.69,2.87,25l3.08,25a.12.12,0,0,0,.12.12.14.14,0,0,0,.14-.13c.09-2.1.1-4.21.15-6.32s-.09-4.22-.13-6.33C84.12,374.74,83.76,370.54,83.44,366.34Z" style="fill: rgb(38, 50, 56); transform-origin: 77.4453px 341.71px;" id="elwdodmc8ww6e" class="animable"></path><path d="M78.4,366.22c-.45-3.33-1.06-6.63-1.69-9.93l-1.18-4.91c-.39-1.63-.75-3.27-1.23-4.88a139.72,139.72,0,0,0-6.42-19.11l-1-2.31-1.12-2.26c-.71-1.52-1.57-3-2.39-4.44a37.71,37.71,0,0,0-6.06-8,.13.13,0,0,0-.18,0,.14.14,0,0,0,0,.19h0a37.06,37.06,0,0,1,5.54,8.22c.73,1.49,1.51,3,2.13,4.5l1,2.29.87,2.34a136.15,136.15,0,0,1,5.6,19.1c.76,3.24,1.27,6.53,1.9,9.79L75,361.7c.28,1.64.63,3.26.86,4.91.52,3.29,1.13,6.56,1.7,9.85s1.11,6.58,1.81,9.88a.12.12,0,0,0,.13.1.13.13,0,0,0,.13-.13c0-3.35-.06-6.71-.24-10.06S78.75,369.56,78.4,366.22Z" style="fill: rgb(38, 50, 56); transform-origin: 68.3614px 348.392px;" id="elkfzxd29ar2" class="animable"></path><path d="M71.45,366.65c-1.55-4.41-3.35-8.72-5.32-12.95a115.49,115.49,0,0,0-6.69-12.27.14.14,0,0,0-.18,0,.13.13,0,0,0,0,.18,116.77,116.77,0,0,1,5.71,12.65c1.7,4.29,3.24,8.65,4.53,13.08s2.25,8.94,3.43,13.38,2.24,8.93,3.6,13.43a.14.14,0,0,0,.13.09.13.13,0,0,0,.13-.13,66.8,66.8,0,0,0-1.3-14A87.32,87.32,0,0,0,71.45,366.65Z" style="fill: rgb(38, 50, 56); transform-origin: 68.0097px 367.819px;" id="elv5fvkpv56dk" class="animable"></path><path d="M71.16,381.33a30,30,0,0,0-3.69-7.75,32.23,32.23,0,0,0-5.39-6.69,23.76,23.76,0,0,0-3.42-2.58,13.88,13.88,0,0,0-3.88-1.76.14.14,0,0,0-.16.07.14.14,0,0,0,.07.18h0a19.44,19.44,0,0,1,6.44,5,30.77,30.77,0,0,1,4.49,6.79c1.27,2.42,1.93,5.08,3,7.57.49,1.27,1,2.55,1.54,3.83a31.9,31.9,0,0,0,1.69,3.88h0A.14.14,0,0,0,72,390a.15.15,0,0,0,.15-.13,32.26,32.26,0,0,0-.16-4.29C71.8,384.12,71.5,382.72,71.16,381.33Z" style="fill: rgb(38, 50, 56); transform-origin: 63.3867px 376.273px;" id="elwrrbezvyk5r" class="animable"></path><path d="M71.68,303.73s-13.76-3.17-16.94-18,7.06-8.47-2.12-31.76-7.06-28.59-3.88-35.3,4.94-4.59,7.77,4.24,13.06,22.59,16.94,48.35S71.68,303.73,71.68,303.73Z" style="fill: rgb(25, 118, 210); transform-origin: 60.4159px 259.225px;" id="elbkjsyom2rkc" class="animable"></path><path d="M98.86,278.67s-9.18-3.17-9.53-20.47S96,244.44,97.1,222.91s2.47-36.71,6.35-37.06,14.12,10.58,17.65,34.59-4.59,39.88-11.65,46.94S98.86,278.67,98.86,278.67Z" style="fill: rgb(25, 118, 210); transform-origin: 105.635px 232.256px;" id="el8p1i34x86ol" class="animable"></path><path d="M66.74,324.56s-2.12-12.71-6.35-18.71S47,294.56,41,282.91s-12.71-17.3-12.36-.71,7.77,25.06,16.94,30.71S66.74,324.56,66.74,324.56Z" style="fill: rgb(25, 118, 210); transform-origin: 47.6834px 298.197px;" id="elbo6682zgpzg" class="animable"></path><path d="M62.86,346.44S54.39,330.2,42,318.2s-22.24-18-18.71-12,7.76,5.65,13.76,16.24,4.24,18.35,12.71,24.35S62.86,346.44,62.86,346.44Z" style="fill: rgb(25, 118, 210); transform-origin: 42.7122px 326.608px;" id="elglk8hr422ja" class="animable"></path><path d="M61.8,367.26c-.35-1.05-.71-8.82-12.71-15.17s-23.29-3.88-21.88-.71S36,359.85,43.45,363,61.8,367.26,61.8,367.26Z" style="fill: rgb(25, 118, 210); transform-origin: 44.4452px 357.698px;" id="elsgg8nlusip8" class="animable"></path><path d="M98.16,325.26s-5.3-6.7-2.48-20.82,9.18-10.59,16.24-18,5.65-8.47,12.71-16.24,13.41-12,16.23-8.82-1.41,13.06-5.64,18.7-11,8.48-14.12,15.53-1.77,18.36-9.89,23.65S98.16,325.26,98.16,325.26Z" style="fill: rgb(25, 118, 210); transform-origin: 118.313px 292.787px;" id="el9yzb4mbhq9m" class="animable"></path><path d="M115.8,329.15s12.71-14.48,21.89-25.06,12.7-18.71,13.06-11.65,3.17,12.7-4.24,21.88S115.8,329.15,115.8,329.15Z" style="fill: rgb(25, 118, 210); transform-origin: 133.685px 309.47px;" id="ela0ybrwvyl5o" class="animable"></path><path d="M109.1,352.44s-.36-5.65,19.76-18.71,28.59-15.53,26.47-10.23-10.94,10.59-20.47,20.12S109.1,352.44,109.1,352.44Z" style="fill: rgb(25, 118, 210); transform-origin: 132.373px 336.672px;" id="el41c026l4nyq" class="animable"></path><path d="M72.52,302.23s-4.72-25.32-9.66-43.32S54.74,230,54.74,230" style="fill: none; stroke: rgb(38, 50, 56); stroke-linecap: round; stroke-linejoin: round; transform-origin: 63.63px 266.115px;" id="el908ts37uu2d" class="animable"></path><path d="M98.05,278.94s8.58-27.44,11.4-44-.35-28.95-1.77-36.36" style="fill: none; stroke: rgb(38, 50, 56); stroke-linecap: round; stroke-linejoin: round; transform-origin: 104.315px 238.76px;" id="elaseqk7ql7f8" class="animable"></path><path d="M65.63,324a132.41,132.41,0,0,0-13-18.53c-7.76-9.18-13.76-14.12-17.29-22.94" style="fill: none; stroke: rgb(38, 50, 56); stroke-linecap: round; stroke-linejoin: round; transform-origin: 50.485px 303.265px;" id="el6pilgit6v28" class="animable"></path><path d="M98.16,325.26s2.82-16.94,9.52-25.76,20.12-22.59,25.42-31.42" style="fill: none; stroke: rgb(38, 50, 56); stroke-linecap: round; stroke-linejoin: round; transform-origin: 115.63px 296.67px;" id="el27alzpyu2fd" class="animable"></path><path d="M61,366.88s-11.88-7.73-20.35-12" style="fill: none; stroke: rgb(38, 50, 56); stroke-linecap: round; stroke-linejoin: round; transform-origin: 50.825px 360.88px;" id="elyr9x6yfbmzb" class="animable"></path><path d="M102.33,436.29c5.41-13.16,17.84-46.33,9.94-56-7.77-9.48-41.28-9.48-49.06,0-7.9,9.64,4.53,42.81,9.95,56Z" style="fill: rgb(38, 50, 56); stroke: rgb(38, 50, 56); stroke-linecap: round; stroke-linejoin: round; transform-origin: 87.7401px 404.735px;" id="el04yrnhyccot3" class="animable"></path></g><g id="freepik--Pictures--inject-148" class="animable" style="transform-origin: 259.715px 76.6px;"><polyline points="472.2 115.11 472.2 138.92 374.02 138.92 374.02 14.28 472.2 14.28 472.2 103.27" style="fill: none; stroke: rgb(38, 50, 56); stroke-linecap: round; stroke-linejoin: round; transform-origin: 423.11px 76.6px;" id="elpcenqszkry" class="animable"></polyline><polyline points="378.87 30.2 378.87 20.44 467.35 20.44 467.35 132.76 378.87 132.76 378.87 39.42" style="fill: none; stroke: rgb(38, 50, 56); stroke-linecap: round; stroke-linejoin: round; transform-origin: 423.11px 76.6px;" id="elv5kzxkdz6m" class="animable"></polyline><polyline points="406.55 67.72 406.55 55.57 439.68 55.57 439.68 97.63 406.55 97.63 406.55 74.96" style="fill: none; stroke: rgb(38, 50, 56); stroke-linecap: round; stroke-linejoin: round; transform-origin: 423.115px 76.6px;" id="elqeq29izxv0r" class="animable"></polyline><polyline points="47.23 70.22 47.23 46.53 102.22 46.53 102.22 116.34 47.23 116.34 47.23 81.41" style="fill: none; stroke: rgb(38, 50, 56); stroke-linecap: round; stroke-linejoin: round; transform-origin: 74.725px 81.435px;" id="elwxv0imano5p" class="animable"></polyline><rect x="49.95" y="49.98" width="49.56" height="62.91" style="fill: none; stroke: rgb(38, 50, 56); stroke-linecap: round; stroke-linejoin: round; transform-origin: 74.73px 81.435px;" id="elurb93kdbrrk" class="animable"></rect><polyline points="84.01 88 84.01 93.21 65.45 93.21 65.45 69.66 84.01 69.66 84.01 80.1" style="fill: none; stroke: rgb(38, 50, 56); stroke-linecap: round; stroke-linejoin: round; transform-origin: 74.73px 81.435px;" id="elsyzmd6k1um" class="animable"></polyline><polyline points="129.17 79.97 113.67 79.97 113.67 29.38 153.52 29.38 153.52 79.97 140.36 79.97" style="fill: none; stroke: rgb(38, 50, 56); stroke-linecap: round; stroke-linejoin: round; transform-origin: 133.595px 54.675px;" id="el9uk3qdndo48" class="animable"></polyline><rect x="115.64" y="31.88" width="35.91" height="45.59" style="fill: none; stroke: rgb(38, 50, 56); stroke-linecap: round; stroke-linejoin: round; transform-origin: 133.595px 54.675px;" id="elecxw0hyvkku" class="animable"></rect><rect x="126.87" y="46.14" width="13.45" height="17.07" style="fill: none; stroke: rgb(38, 50, 56); stroke-linecap: round; stroke-linejoin: round; transform-origin: 133.595px 54.675px;" id="elpn7azm6nvkf" class="animable"></rect></g><g id="freepik--Floor--inject-148" class="animable" style="transform-origin: 253.185px 436.29px;"><line x1="28.01" y1="436.29" x2="478.36" y2="436.29" style="fill: none; stroke: rgb(38, 50, 56); stroke-linecap: round; stroke-linejoin: round; transform-origin: 253.185px 436.29px;" id="ellfjluf7lgiq" class="animable"></line></g><g id="freepik--Sofa--inject-148" class="animable" style="transform-origin: 281.31px 291.95px;"><path d="M231,147.61h94.22a46.5,46.5,0,0,1,46.5,46.5V329.57a0,0,0,0,1,0,0H184.5a0,0,0,0,1,0,0V194.11A46.5,46.5,0,0,1,231,147.61Z" style="fill: rgb(189, 189, 189); stroke: rgb(38, 50, 56); stroke-linecap: round; stroke-linejoin: round; transform-origin: 278.11px 238.59px;" id="eluei5uza3hcs" class="animable"></path><rect x="196.59" y="299.03" width="165.13" height="137.26" style="fill: rgb(189, 189, 189); stroke: rgb(38, 50, 56); stroke-linecap: round; stroke-linejoin: round; transform-origin: 279.155px 367.66px;" id="elvd5481uniwl" class="animable"></rect><rect x="196.59" y="344.53" width="165.13" height="91.76" style="fill: rgb(189, 189, 189); stroke: rgb(38, 50, 56); stroke-linecap: round; stroke-linejoin: round; transform-origin: 279.155px 390.41px;" id="ell4l4a8kc0t" class="animable"></rect><path d="M164.1,249.63h16.76a24.1,24.1,0,0,1,24.1,24.1V436.29a0,0,0,0,1,0,0H140a0,0,0,0,1,0,0V273.74A24.1,24.1,0,0,1,164.1,249.63Z" style="fill: rgb(189, 189, 189); stroke: rgb(38, 50, 56); stroke-linecap: round; stroke-linejoin: round; transform-origin: 172.48px 342.96px;" id="el3yi7rrw0y2" class="animable"></path><path d="M381.76,249.63h16.76a24.1,24.1,0,0,1,24.1,24.1V436.29a0,0,0,0,1,0,0h-65a0,0,0,0,1,0,0V273.74A24.1,24.1,0,0,1,381.76,249.63Z" style="fill: rgb(189, 189, 189); stroke: rgb(38, 50, 56); stroke-linecap: round; stroke-linejoin: round; transform-origin: 390.12px 342.96px;" id="el4g3bxfhnjb3" class="animable"></path></g><g id="freepik--Dust--inject-148" class="animable" style="transform-origin: 250.718px 432.85px;"><g id="el1z63n2xyinp"><g style="opacity: 0.1; transform-origin: 161.83px 415.135px;" class="animable"><path d="M191.19,436.29a3.43,3.43,0,0,0,.06-.34l.15.34h23.21a12.64,12.64,0,1,0-23.56-9.09,25.87,25.87,0,0,0-51.26,5c0,.13,0,.26,0,.4a13.51,13.51,0,0,0-25.75,3.71Z" id="el76ppea213cy" class="animable" style="transform-origin: 164.861px 421.3px;"></path><path d="M235.46,436.29a10.19,10.19,0,0,0,.16-1.76,10,10,0,1,0-20,0,10.19,10.19,0,0,0,.16,1.76Z" id="elpzk28gu15p" class="animable" style="transform-origin: 225.62px 430.41px;"></path><path d="M118,418.65a5.29,5.29,0,1,0-5.29-5.29A5.29,5.29,0,0,0,118,418.65Z" id="el5dsxmgrlfrl" class="animable" style="transform-origin: 118px 413.36px;"></path><path d="M89.82,422.18A1.77,1.77,0,1,0,91.58,424,1.76,1.76,0,0,0,89.82,422.18Z" id="elke8jv8yspp" class="animable" style="transform-origin: 89.8109px 423.95px;"></path><circle cx="216.52" cy="396.02" r="2.06" id="el3xadgjwtjm2" class="animable" style="transform-origin: 216.52px 396.02px;"></circle></g></g><g id="elpnmyel4emy"><g style="opacity: 0.1; transform-origin: 173.94px 445.695px;" class="animable"><path d="M192.67,459.22c0-.07,0-.14,0-.22,0,.08.07.15.1.22h14.82a7.92,7.92,0,0,0,.66-3.19,8.07,8.07,0,0,0-15.71-2.62,16.52,16.52,0,0,0-32.74,3.18v.26a8.63,8.63,0,0,0-16.45,2.37Z" id="elg0isue63hyd" class="animable" style="transform-origin: 175.8px 449.622px;"></path><path d="M221,459.22a7,7,0,0,0,.1-1.13,6.39,6.39,0,0,0-12.77,0,6,6,0,0,0,.11,1.13Z" id="elteoiis1e8s8" class="animable" style="transform-origin: 214.715px 455.586px;"></path><path d="M145.94,448a3.38,3.38,0,1,0-3.38-3.38A3.38,3.38,0,0,0,145.94,448Z" id="elk761cwvlp3" class="animable" style="transform-origin: 145.94px 444.62px;"></path><path d="M127.91,450.21a1.13,1.13,0,1,0,1.13,1.12A1.13,1.13,0,0,0,127.91,450.21Z" id="el1k93w5zlzj6" class="animable" style="transform-origin: 127.91px 451.34px;"></path><path d="M208.85,434.81a1.32,1.32,0,1,0-1.31-1.32A1.32,1.32,0,0,0,208.85,434.81Z" id="el63h2jrlm69r" class="animable" style="transform-origin: 208.86px 433.49px;"></path></g></g><g id="eltwg29h88ekn"><g style="opacity: 0.1; transform-origin: 80.44px 454.26px;" class="animable"><path d="M104.65,471.74c0-.1,0-.19,0-.28,0,.09.09.18.13.28H124a10.44,10.44,0,1,0-19.46-7.51,21.36,21.36,0,0,0-42.32,4.11c0,.11,0,.22,0,.33A11.15,11.15,0,0,0,41,471.74Z" id="eli903np5w1an" class="animable" style="transform-origin: 82.9396px 459.362px;"></path><path d="M141.21,471.74a8.81,8.81,0,0,0,.13-1.46,8.25,8.25,0,0,0-16.5,0,8.81,8.81,0,0,0,.13,1.46Z" id="elkzrsa74nlh" class="animable" style="transform-origin: 133.09px 466.885px;"></path><path d="M44.25,457.17a4.37,4.37,0,1,0-4.37-4.37A4.37,4.37,0,0,0,44.25,457.17Z" id="el5hndr06504" class="animable" style="transform-origin: 44.25px 452.8px;"></path><path d="M21,460.09a1.46,1.46,0,1,0,1.46,1.45A1.46,1.46,0,0,0,21,460.09Z" id="el1qq7u8yue8c" class="animable" style="transform-origin: 21px 461.55px;"></path><path d="M125.56,440.18a1.7,1.7,0,1,0-1.69-1.7A1.7,1.7,0,0,0,125.56,440.18Z" id="elfplv7ust6m6" class="animable" style="transform-origin: 125.57px 438.48px;"></path></g></g><g id="elz9ucoo5n5qb"><g style="opacity: 0.1; transform-origin: 449.737px 424.801px;" class="animable"><path d="M440.73,425.71A5.29,5.29,0,1,0,446,431,5.29,5.29,0,0,0,440.73,425.71Z" id="el8odojoizqip" class="animable" style="transform-origin: 440.71px 431px;"></path><path d="M480.22,436.29a15.88,15.88,0,1,0-28.41,0Z" id="elh2mr690umsu" class="animable" style="transform-origin: 466.015px 424.801px;"></path><path d="M431.3,436.29a6.88,6.88,0,0,0-13.72,0Z" id="elsxipxd0pzmj" class="animable" style="transform-origin: 424.44px 433.112px;"></path></g></g></g><g id="freepik--Character--inject-148" class="animable animator-active" style="transform-origin: 345.052px 305.49px;"><path d="M284,146.33s-9.88,17.1-9.69,21.66.19,16,.19,23.56,20.52,12.55,26.6,7,18.05-9.5,20.9-7.79,21.09,19.39,29.83,23.76,19.95,5.7,21.86,2.85,2.85-8.36.19-12.55-16.54-7.41-16.54-9.5S371.94,183,369.48,176s-13.31-7.79-13.31-7.79-1.52-20.9-13.68-29.83-30.59-10.83-42.94-5.13S284,146.33,284,146.33Z" style="fill: rgb(38, 50, 56); stroke: rgb(38, 50, 56); stroke-linecap: round; stroke-linejoin: round; transform-origin: 324.916px 174.445px;" id="eleeu6rk9uoer" class="animable"></path><path d="M385.42,399.7s6.65-4.83,11.18-4.23,9.37,10.88,10.28,13.3-15.41,6.35-19.64,7.56-10.58-3.93-9.68-11.79S385.42,399.7,385.42,399.7Z" style="fill: rgb(255, 255, 255); stroke: rgb(38, 50, 56); stroke-linecap: round; stroke-linejoin: round; transform-origin: 392.195px 405.962px;" id="elvtzdkmjgis" class="animable"></path><path d="M405.67,406.65s6.95-6.65,15.11-4.83,10,8.46,10,16a28.28,28.28,0,0,0,3.93,14.81c1.51,2.72,8.16,8.76,4.83,10.27s-14.81,1.82-22.67-9.67S405.67,406.65,405.67,406.65Z" style="fill: rgb(255, 255, 255); stroke: rgb(38, 50, 56); stroke-linecap: round; stroke-linejoin: round; transform-origin: 423.066px 422.579px;" id="elwokr4bbkrq" class="animable"></path><path d="M296.46,339.32s-7.45,1.45-7.45,4.77a29.4,29.4,0,0,0,1.21,7.25s-7.26,3.63-6.65,6.05-.91-.3.6,2.42S270,386.1,262.71,404.24,247.9,449,250,452.29s4.23,6.35,14.51,9.37,17.83,1.51,17.83,1.51,11.18,12.7,21.46,15.72,31.43,2.11,33.85,1.21,22.67-13.6,22.67-13.6,50.17-16.32,52.59-16.32,16-1.21,18.13-2.42,5.14-3.33,5.14-3.33a41.23,41.23,0,0,0-4.54-14.5c-3.92-7.26-18.73-21.16-21.45-23a14.39,14.39,0,0,0-8.77-2.12c-2.12.3-16,4.84-18.44,5.44s15.12-24.78,15.42-34.15-4.23-29.92-4.23-29.92a434.82,434.82,0,0,1-52.29-3c-26.3-3.32-31.74-4.53-32.94-4.53S296.46,339.32,296.46,339.32Z" style="fill: rgb(25, 118, 210); stroke: rgb(38, 50, 56); stroke-linecap: round; stroke-linejoin: round; transform-origin: 342.911px 409.809px;" id="elrymhddq4mz" class="animable"></path><line x1="296.26" y1="357.69" x2="314.4" y2="375.83" style="fill: none; stroke: rgb(38, 50, 56); stroke-linecap: round; stroke-linejoin: round; transform-origin: 305.33px 366.76px;" id="elh3wfy502t75" class="animable"></line><path d="M359.43,377s19-4.23,25.09-4.23" style="fill: none; stroke: rgb(38, 50, 56); stroke-linecap: round; stroke-linejoin: round; transform-origin: 371.975px 374.885px;" id="elbige09n0vs" class="animable"></path><path d="M383,410.28s-34.75,40.8-37.47,45.34-20.25,13-20.25,13" style="fill: none; stroke: rgb(38, 50, 56); stroke-linecap: round; stroke-linejoin: round; transform-origin: 354.14px 439.45px;" id="elya57k0ncwya" class="animable"></path><path d="M385.42,365.25s-16,4.53-17.53,5.44" style="fill: none; stroke: rgb(38, 50, 56); stroke-linecap: round; stroke-linejoin: round; transform-origin: 376.655px 367.97px;" id="eluh32jbcep9" class="animable"></path><path d="M282.36,463.17a40.44,40.44,0,0,1,5.74-17.53c5.44-9.07,30.23-60.45,30.23-60.45" style="fill: none; stroke: rgb(38, 50, 56); stroke-linecap: round; stroke-linejoin: round; transform-origin: 300.345px 424.18px;" id="elgn3g6ruxckc" class="animable"></path><path d="M310,221s-23.78,7.27-28.2,12.85-9.08,22.82-10.71,27.24-17,34.46-16.07,41.67,10.25,9.78,14.44,9.55,8.84.23,12.57-6.75,13-23.28,13-23.28,6.05,9.77,9.31,14.43,1.16,26.31-.23,31.2-7.69,11.4-7.69,11.4,2.8,9.08,27.71,12.81,41.67,4.65,52.61,2.32a71.41,71.41,0,0,0,19.79-7.68s-1.4-18.16-3-31.19,1.86-62.39-.7-74.27-.46-17.69-3.72-19.55-16.79-5.12-16.79-5.12l-20.53-2.09Z" style="fill: rgb(38, 50, 56); stroke: rgb(38, 50, 56); stroke-linecap: round; stroke-linejoin: round; transform-origin: 325.755px 285.127px;" id="elwvbxkc5scjn" class="animable"></path><path d="M376.13,217.59c-2.22-.57-3.8-1-3.8-1l-20.53-2.09L310,221s-2,.62-5,1.63c4.39,12.43,22.51,18.93,41.87,14.61C360.58,234.2,371.43,226.49,376.13,217.59Z" style="fill: rgb(255, 255, 255); stroke: rgb(38, 50, 56); stroke-linecap: round; stroke-linejoin: round; transform-origin: 340.565px 226.538px;" id="elnsxwgijaoel" class="animable"></path><path d="M393.54,315.58c-.47-3.75-.51-10.51-.4-18.52-44.23,7.43-77.61.36-90.8-3.36.74,1.12,1.44,2.16,2,3,3.26,4.66,1.16,26.31-.23,31.2s-7.69,11.4-7.69,11.4,2.8,9.08,27.71,12.81,41.67,4.65,52.61,2.32a71.41,71.41,0,0,0,19.79-7.68S395.17,328.61,393.54,315.58Z" style="fill: rgb(255, 255, 255); stroke: rgb(38, 50, 56); stroke-linecap: round; stroke-linejoin: round; transform-origin: 346.475px 324.702px;" id="eleksxju9ufxp" class="animable"></path><path d="M396.57,346.77s-.25-3.24-.66-8a199.81,199.81,0,0,1-65.1,2.17,177.49,177.49,0,0,1-30.3-6.48,53.59,53.59,0,0,1-4.05,4.83s.62,2,3.85,4.51a185.62,185.62,0,0,0,26.65,5.7,217.07,217.07,0,0,0,30.31,2.14,202.21,202.21,0,0,0,36.21-3.23C395.43,347.46,396.57,346.77,396.57,346.77Z" style="fill: rgb(38, 50, 56); transform-origin: 346.515px 343.05px;" id="elwdfc6232l6" class="animable"></path><path d="M304.91,324a35.39,35.39,0,0,1-.76,3.95,18.18,18.18,0,0,1-2.24,4.54l.42.11a247.25,247.25,0,0,0,31.42,5.3,274.79,274.79,0,0,0,28.79,1.54,231.2,231.2,0,0,0,33.22-2.31c-.24-2.71-.52-5.79-.84-9C358.28,333.59,322.57,328.21,304.91,324Z" style="fill: rgb(38, 50, 56); transform-origin: 348.835px 331.72px;" id="el9t7tv0et8lu" class="animable"></path><path d="M393.09,302.58c-41.49,6.79-80.64-.46-87.69-3.22a44.29,44.29,0,0,1,.7,9.58c9.72,2.68,26.59,4.71,41.28,5.23,2.93.1,6,.16,9.29.16a239.63,239.63,0,0,0,36.57-2.72C393.12,309.09,393.08,306,393.09,302.58Z" style="fill: rgb(38, 50, 56); transform-origin: 349.32px 306.845px;" id="ely9vdnbqd3n8" class="animable"></path><path d="M306,312.21c-.14,3.15-.41,6.3-.73,9a245.31,245.31,0,0,0,37,5.33c5.6.4,11.85.67,18.54.67a222.12,222.12,0,0,0,33.74-2.48c-.32-3-.66-6.08-1-8.9C357.46,321.56,321.47,316,306,312.21Z" style="fill: rgb(38, 50, 56); transform-origin: 349.91px 319.71px;" id="elztef0d5vlno" class="animable"></path><path d="M300.12,155.26l-9.88,15.58c-4.94,7.79.19,16.53,1.52,20.33S292.33,203,303,208.66c6.38,3.41,12.54,7,14.06,6.65a32.27,32.27,0,0,0,3.42-1.14L310,221s5.13,13.11,25.46,11.59,36.87-16,36.87-16-21.67-9.88-26.61-18.63-7.22-12.73-7.22-12.73a10.83,10.83,0,0,0,2.09-3.8c.57-2.09.38-.76.57-2.09s-6.27,0-14.06-4.18a127.36,127.36,0,0,1-11.59-6.84S299.36,164.57,300.12,155.26Z" style="fill: rgb(255, 255, 255); stroke: rgb(38, 50, 56); stroke-linecap: round; stroke-linejoin: round; transform-origin: 330.233px 193.986px;" id="eldlv7qkyu4o" class="animable"></path><path d="M295.37,185.09A40.62,40.62,0,0,1,298,195.35c.38,4.75.38,7.41,1.71,7.22s4.75-2.28,4.75-2.28" style="fill: none; stroke: rgb(38, 50, 56); stroke-linecap: round; stroke-linejoin: round; transform-origin: 299.915px 193.835px;" id="elssjcsudgt2r" class="animable"></path><path d="M304.3,184.9a6.35,6.35,0,0,1,5.7-2.85" style="fill: none; stroke: rgb(38, 50, 56); stroke-linecap: round; stroke-linejoin: round; transform-origin: 307.15px 183.469px;" id="elox2vicz8r6" class="animable"></path><path d="M297.46,179.58s1.71,1.9,3.61.76,4-4.56,8.17-4" style="fill: none; stroke: rgb(38, 50, 56); stroke-linecap: round; stroke-linejoin: round; transform-origin: 303.35px 178.491px;" id="el0byfdk8rxntt" class="animable"></path><path d="M295.56,188.7s-3.61.38-3.8,2.47" style="fill: none; stroke: rgb(38, 50, 56); stroke-linecap: round; stroke-linejoin: round; transform-origin: 293.66px 189.935px;" id="eljewtnwkh3l" class="animable"></path><path d="M293.47,182.43a4.58,4.58,0,0,1-.57,2.09c-.57.95-2.85,1.33-3,3.23" style="fill: none; stroke: rgb(38, 50, 56); stroke-linecap: round; stroke-linejoin: round; transform-origin: 291.685px 185.09px;" id="eltctkusm06l" class="animable"></path><path d="M309.34,204.4c1.14.93,1.55,2.31.92,3.08s-2.06.65-3.2-.27-1.56-2.31-.93-3.08S308.2,203.48,309.34,204.4Z" style="fill: rgb(38, 50, 56); transform-origin: 308.196px 205.805px;" id="el0vih4wru4e5" class="animable"></path><path d="M320.45,214.17l8.36-4.18-12.54,18s-5.13-3.23-6.27-7Z" style="fill: rgb(38, 50, 56); stroke: rgb(38, 50, 56); stroke-linecap: round; stroke-linejoin: round; transform-origin: 319.405px 218.99px;" id="elnxrxs2wa66r" class="animable"></path><path d="M338.5,185.28s-.95,2.66-3.23,2.85l-2.28.19s0,7.22-.95,10.64" style="fill: none; stroke: rgb(38, 50, 56); stroke-linecap: round; stroke-linejoin: round; transform-origin: 335.27px 192.12px;" id="elwfcalegycfs" class="animable"></path><path d="M319.67,362.48s-11.82,4-15.12,9S255.39,414,255.62,416.37s4.73,8.74,7.09,9,86.5-26.47,89.34-30,8.75-23.87,8.75-26.94-7.33-8.74-8.28-9.45-15.59-2.6-16.54-2.37S319.67,362.48,319.67,362.48Z" style="fill: rgb(38, 50, 56); stroke: rgb(38, 50, 56); stroke-linecap: round; stroke-linejoin: round; transform-origin: 308.21px 390.981px;" id="elqm5sk5serm" class="animable"></path><path d="M331.1,368.75l-13.31,7.4s3.38,8.23,5.5,9.29,22.38-6.34,24.49-9.08,2.54-8.66,2.32-9.93S331.1,368.75,331.1,368.75Z" style="fill: rgb(168, 168, 168); stroke: rgb(38, 50, 56); stroke-linecap: round; stroke-linejoin: round; transform-origin: 333.971px 375.851px;" id="elekas13eq08e" class="animable"></path><path d="M347.78,376.36c2.11-2.75,2.54-8.66,2.32-9.93-.1-.63-4.84-.05-9.55.68a14.51,14.51,0,0,1,.05,3.33c0,.69-15.35,6.9-21.2,9.25,1.16,2.37,2.71,5.16,3.89,5.75C325.4,386.49,345.67,379.1,347.78,376.36Z" style="fill: rgb(87, 87, 87); stroke: rgb(38, 50, 56); stroke-linecap: round; stroke-linejoin: round; transform-origin: 334.776px 375.851px;" id="eln6bvnuen16c" class="animable"></path><line x1="313.78" y1="397.9" x2="334.9" y2="390.29" style="fill: none; stroke: rgb(255, 255, 255); stroke-linecap: round; stroke-linejoin: round; transform-origin: 324.34px 394.095px;" id="elhcyo2itigsf" class="animable"></line><line x1="313.61" y1="401.04" x2="334.73" y2="393.44" style="fill: none; stroke: rgb(255, 255, 255); stroke-linecap: round; stroke-linejoin: round; transform-origin: 324.17px 397.24px;" id="elcjcunzr96nf" class="animable"></line><line x1="313.87" y1="404.02" x2="334.99" y2="396.42" style="fill: none; stroke: rgb(255, 255, 255); stroke-linecap: round; stroke-linejoin: round; transform-origin: 324.43px 400.22px;" id="el462zmpbiu1m" class="animable"></line><line x1="314.29" y1="406.75" x2="335.41" y2="399.14" style="fill: none; stroke: rgb(255, 255, 255); stroke-linecap: round; stroke-linejoin: round; transform-origin: 324.85px 402.945px;" id="elnm87s3holl" class="animable"></line><path d="M262.71,425.35c1.32.13,28.16-8.14,52.08-16.09-.2-6.33-.46-13.95-.59-14.32-.21-.63-1.05-4.65-5.91-9.93-2.74-3-7.68-4.87-11.48-6-13.94,12.57-41.37,35.5-41.19,37.33C255.86,418.73,260.35,425.11,262.71,425.35Z" style="fill: rgb(255, 255, 255); stroke: rgb(38, 50, 56); stroke-linecap: round; stroke-linejoin: round; transform-origin: 285.205px 402.181px;" id="elgky6jg911v" class="animable"></path><path d="M314.79,392.79a142.37,142.37,0,0,1,14-5.66" style="fill: none; stroke: rgb(255, 255, 255); stroke-linecap: round; stroke-linejoin: round; transform-origin: 321.79px 389.96px;" id="el8nncbyx8ql" class="animable"></path><path d="M263.52,423.45s25.41-18.75,51.27-30.66" style="fill: none; stroke: rgb(38, 50, 56); stroke-linecap: round; stroke-linejoin: round; transform-origin: 289.155px 408.12px;" id="elelmhcvdbthi" class="animable"></path><path d="M351.41,337.46s-11,4-14.21,5.82-8.14,4-8.84,5.35-3.26,5.36-4.89,7.69-6.52,3.49-6.52,5.12,2.79,1.86,5.82,1.4,6.29-1.87,7.92-3.5l1.63-1.63s-5.36,15.37-5.59,16.77,1.86,2.32,3.49,2.32,3.72-3,4.19-3.72,8.38-1.4,10.71-2.33a14.21,14.21,0,0,0,6.52-5.35c1.63-2.56,5.35-7.69,6.28-10.48l1.63-4.89S356.29,340.49,351.41,337.46Z" style="fill: rgb(255, 255, 255); stroke: rgb(38, 50, 56); stroke-linecap: round; stroke-linejoin: round; transform-origin: 338.25px 357.13px;" id="el1090nt71mo1e" class="animable"></path><path d="M365.84,263.43s5.35,16.06,7,21.88a37.48,37.48,0,0,0,8.62,14.44,6.79,6.79,0,0,1,2.32,4.65s-5.35,3-6.51,5.82a92.2,92.2,0,0,0-2.8,10l-23,17.23s7.21,10,8.38,14.67a53,53,0,0,1,1.39,8.84s30.5-18.39,36.55-20.72,12.81-5.12,16.53-10.47,4.66-10.71,5.82-14,2.8-1.4,1.63-8.15-4-12.57-4.89-15.6-1.86-15.83-6.05-21.88-4.66-7.22-5.35-9.78-8.85-29.1-12.11-34.45a8.91,8.91,0,0,0-11.87-3.49" style="fill: rgb(38, 50, 56); stroke: rgb(38, 50, 56); stroke-linecap: round; stroke-linejoin: round; transform-origin: 386.821px 291.184px;" id="eltdcywsun6s" class="animable"></path><path d="M380.8,295.3s-10.64-14.89-11.7-20.73" style="fill: none; stroke: rgb(255, 255, 255); stroke-linecap: round; stroke-linejoin: round; transform-origin: 374.95px 284.935px;" id="elg7rd86x84f" class="animable"></path><path d="M385.39,303.7s-4.19,1.87,8.39-3.26,16.29,3,16.29,3" style="fill: none; stroke: rgb(255, 255, 255); stroke-linecap: round; stroke-linejoin: round; transform-origin: 397.395px 301.387px;" id="elzjy40d37j7g" class="animable"></path><path d="M388.19,300.44s6.28-5.35,13.73-4.42" style="fill: none; stroke: rgb(255, 255, 255); stroke-linecap: round; stroke-linejoin: round; transform-origin: 395.055px 298.176px;" id="el18fz9qqst71" class="animable"></path><path d="M296.71,214.81s4.11,1.36,4.62,2.56-2.56,7-3.08,7.69a29.42,29.42,0,0,1-2.39,2.4Z" style="fill: rgb(255, 255, 255); stroke: rgb(38, 50, 56); stroke-linecap: round; stroke-linejoin: round; transform-origin: 298.623px 221.135px;" id="elj5dddcmtb1m" class="animable"></path><path d="M279.28,220.11s-3.93-9.75-3.59-10.43,6.49-4.45,7.69-4.79,12.82,2.74,13.5,3.08.35,13.33.35,13.33l-1.37,6.16s7,2.9,7,3.42-1,9.23-1,9.23l-6.15,3.76-18.12-19.32Z" style="fill: rgb(255, 255, 255); stroke: rgb(38, 50, 56); stroke-linecap: round; stroke-linejoin: round; transform-origin: 289.265px 224.367px;" id="elbgr2htaf0pe" class="animable"></path><path d="M282.35,254.29l2.23-6.49s-12.31-17.1-12.14-18,4.1-11.11,5.3-13,6-6.16,7.52-5.64,1.37,1.71,1.37,1.71,3.93-.35,4.27.68.34,1-.68,2a35.33,35.33,0,0,1-3.93,2.91s6-.52,7-.69,1.19,1.71-.52,3.25a16.4,16.4,0,0,1-4.61,2.57l-.69,2.56s4.79-1,6.67-2.39,2.91,1,2.39,2.22-5.13,4.27-5.64,4.79-.85,6.66-.85,6.66,6.49,2.22,6.83,7.35-4.61,15.73-4.61,15.73Z" style="fill: rgb(255, 255, 255); stroke: rgb(38, 50, 56); stroke-linecap: round; stroke-linejoin: round; transform-origin: 284.663px 235.813px;" id="el6kyeyib7h9c" class="animable"></path><path d="M287.48,226.26s-2.73,6.5-2.9,7.86" style="fill: none; stroke: rgb(38, 50, 56); stroke-linecap: round; stroke-linejoin: round; transform-origin: 286.03px 230.19px;" id="el0yp6te7pew3" class="animable"></path><path d="M286.29,218.57s-2.23.17-2.4,1.19-3.42,12.65-3.42,12.65" style="fill: none; stroke: rgb(38, 50, 56); stroke-linecap: round; stroke-linejoin: round; transform-origin: 283.38px 225.49px;" id="elunxlu8sh1xq" class="animable"></path><path d="M286.63,212.93s-5,2-5.13,2.9-5.3,12.31-5.3,12.31" style="fill: none; stroke: rgb(38, 50, 56); stroke-linecap: round; stroke-linejoin: round; transform-origin: 281.415px 220.535px;" id="elfs4vleyf3f6" class="animable"></path><path d="M280,250l11.34,6.38,9.45,6.86s-6.85,19.85-8.27,26.23-8,23.64-8.74,25.53-5.44,3.78-9.69,4.72-12.76,1.42-14.89-.7-8-9-8.75-13.71,4-12.29,5.44-15.36,15.6-18,16.31-19.62,1.42-4.49,2.6-7.09S280,250,280,250Z" style="fill: rgb(38, 50, 56); stroke: rgb(38, 50, 56); stroke-linecap: round; stroke-linejoin: round; transform-origin: 275.58px 285.26px;" id="elw6y6xj4mxya" class="animable"></path><path d="M355.2,444.43s-.91,12.39-6.05,17.23" style="fill: none; stroke: rgb(38, 50, 56); stroke-linecap: round; stroke-linejoin: round; transform-origin: 352.175px 453.045px;" id="eloieha0hzzz" class="animable"></path></g><defs>     <filter id="active" height="200%">         <feMorphology in="SourceAlpha" result="DILATED" operator="dilate" radius="2"></feMorphology>                <feFlood flood-color="#32DFEC" flood-opacity="1" result="PINK"></feFlood>        <feComposite in="PINK" in2="DILATED" operator="in" result="OUTLINE"></feComposite>        <feMerge>            <feMergeNode in="OUTLINE"></feMergeNode>            <feMergeNode in="SourceGraphic"></feMergeNode>        </feMerge>    </filter>    <filter id="hover" height="200%">        <feMorphology in="SourceAlpha" result="DILATED" operator="dilate" radius="2"></feMorphology>                <feFlood flood-color="#ff0000" flood-opacity="0.5" result="PINK"></feFlood>        <feComposite in="PINK" in2="DILATED" operator="in" result="OUTLINE"></feComposite>        <feMerge>            <feMergeNode in="OUTLINE"></feMergeNode>            <feMergeNode in="SourceGraphic"></feMergeNode>        </feMerge>            <feColorMatrix type="matrix" values="0   0   0   0   0                0   1   0   0   0                0   0   0   0   0                0   0   0   1   0 "></feColorMatrix>    </filter></defs></svg>