<svg
  class="animated"
  key="freepik_stories-creativity"
  xmlns="http://www.w3.org/2000/svg"
  viewBox="0 0 500 500"
  version="1.1"
  xmlns:xlink="http://www.w3.org/1999/xlink"
  xmlns:svgjs="http://svgjs.com/svgjs"
>
 
  <g
    key="freepik--background-simple--inject-15"
    class="animable"
    style="transform-origin: 244.876px 212.387px"
  >
    <path
      d="M93.26,238.44c59.62-31.28,51-110,87.88-143.7,85.64-64.7,292-12.66,245.06,119.91-19.34,49.14-115.92,61.52-145.07,78.79-46.32,20.26-90.53,53.64-139.82,62C64.35,374.69,21.8,268.32,93.26,238.44Z"
      style="fill: rgb(25, 118, 210); transform-origin: 244.876px 212.387px"
      key="el9iy7mxksl6c"
      class="animable"
    ></path>
    <g key="eld35wnn7xr6w">
      <path
        d="M93.26,238.44c59.62-31.28,51-110,87.88-143.7,85.64-64.7,292-12.66,245.06,119.91-19.34,49.14-115.92,61.52-145.07,78.79-46.32,20.26-90.53,53.64-139.82,62C64.35,374.69,21.8,268.32,93.26,238.44Z"
        style="
          fill: rgb(255, 255, 255);
          opacity: 0.9;
          transform-origin: 244.876px 212.387px;
        "
        class="animable"
      ></path>
    </g>
  </g>
  <g
    key="freepik--Shadow--inject-15"
    class="animable"
    style="transform-origin: 250px 416.24px"
  >
    <ellipse
      key="freepik--path--inject-15"
      cx="250"
      cy="416.24"
      rx="193.89"
      ry="11.32"
      style="fill: rgb(245, 245, 245); transform-origin: 250px 416.24px"
      class="animable"
    ></ellipse>
  </g>
  <g
    key="freepik--Painting--inject-15"
    class="animable"
    style="transform-origin: 221.465px 205.52px"
  >
    <path
      d="M352.47,311.74h-252a12.54,12.54,0,0,1-12.41-12L81.56,111.3a11.55,11.55,0,0,1,11.59-12h252a12.55,12.55,0,0,1,12.41,12l6.5,188.44A11.56,11.56,0,0,1,352.47,311.74Z"
      style="fill: rgb(255, 255, 255); transform-origin: 222.81px 205.52px"
      key="elt921uesva7r"
      class="animable"
    ></path>
    <path
      d="M79.38,164.19l1,0-.2-5.83-1,0ZM79,152.7l1,0-.64-18.51-1,0Z"
      style="fill: rgb(25, 118, 210); transform-origin: 79.37px 149.19px"
      key="elubmkxlptyul"
      class="animable"
    ></path>
    <path
      d="M352.49,312.24h-252a13,13,0,0,1-12.93-12.5L81.06,111.3A12,12,0,0,1,93.13,98.8h252a13,13,0,0,1,12.93,12.5l6.5,188.44A12,12,0,0,1,352.49,312.24ZM93.16,99.8a11,11,0,0,0-11.1,11.5l6.5,188.44a12,12,0,0,0,11.89,11.5h252a11.06,11.06,0,0,0,11.11-11.5l-6.5-188.44a12,12,0,0,0-11.9-11.5Z"
      style="fill: rgb(25, 118, 210); transform-origin: 222.81px 205.52px"
      key="el4s0qh6bvbci"
      class="animable"
    ></path>
    <path
      d="M240.34,137.81,205.66,248.24,231,253.19a4.34,4.34,0,0,0,4.79-2.38,80.8,80.8,0,0,1,20.43-26.62,48.73,48.73,0,0,0,16.46-29.44C276.64,170.52,262.59,147,240.34,137.81Z"
      style="fill: rgb(25, 118, 210); transform-origin: 239.503px 195.544px"
      key="els345zpadtie"
      class="animable"
    ></path>
    <path
      d="M218.72,279.4a10.79,10.79,0,0,0,12.83-8.83h0a11.68,11.68,0,0,0-9.28-13.14l-18.37-3.58-6.71,21.35Z"
      style="fill: rgb(25, 118, 210); transform-origin: 214.431px 266.736px"
      key="el8dz6wj3qwkr"
      class="animable"
    ></path>
    <g key="el5d5davihm5d">
      <g
        style="opacity: 0.2; transform-origin: 223.941px 209.135px"
        class="animable"
      >
        <path
          d="M216.77,124.2c-56.64,14.82-57.53,38.52-38.43,83.26a232.37,232.37,0,0,1,8.82,24.19c13.29,44.08,31.17-43.38,40.66-80.31a24.48,24.48,0,0,1,.9-2.91c3.58-9.32,11.19-19,.37-23.47A19.38,19.38,0,0,0,216.77,124.2Z"
          style="fill: rgb(25, 118, 210); transform-origin: 200.913px 183.659px"
          key="el6qguntsp32f"
          class="animable"
        ></path>
        <path
          d="M187.12,265.12c-6.1-2.2-11.64-5.3-7.36-10.78a13.58,13.58,0,0,1,4.25-3.46c7.74-4.22,10.63-1.52,12.06,6.93A6.64,6.64,0,0,1,187.12,265.12Z"
          style="fill: rgb(25, 118, 210); transform-origin: 187.206px 257.243px"
          key="el8fuwlmdc835"
          class="animable"
        ></path>
        <path
          d="M275.06,273.88c-15.75,17.7-33.93,32.06-47.25,8.59a55.06,55.06,0,0,1-6.34-20.15c-4.36-33.48,8.87-39.24,40.1-30.94C280.47,236.4,287.73,259.64,275.06,273.88Z"
          style="fill: rgb(25, 118, 210); transform-origin: 251.029px 261.365px"
          key="elhyplsty3kfm"
          class="animable"
        ></path>
        <path
          d="M138.14,128c11.81,3.81,22.62,9.4,14.79,20.19a25.93,25.93,0,0,1-7.89,6.91c-14.52,8.61-20.22,3.61-23.52-12.48A12.71,12.71,0,0,1,138.14,128Z"
          style="fill: rgb(25, 118, 210); transform-origin: 138.419px 143.28px"
          key="elnsh549z6ju"
          class="animable"
        ></path>
        <path
          d="M319.75,252.36c-2,0-3.8-1.41-5-2.64a19.21,19.21,0,0,1-3.68-5.47c-1.57-3.53-.52-6.63,2.75-8.1,3.1-1.38,8.16-1.41,10.92,1,1.22,1.05,2.49,3,1.59,6.31h0l-.14.51a18.32,18.32,0,0,1-2.45,6.11,5.15,5.15,0,0,1-3.5,2.27Zm-1-16.17a11.21,11.21,0,0,0-4.45.88c-2.76,1.24-3.61,3.78-2.27,6.8a18.23,18.23,0,0,0,3.48,5.17c1.12,1.17,2.84,2.51,4.63,2.29a4.21,4.21,0,0,0,2.83-1.87,17.7,17.7,0,0,0,2.3-5.8l.14-.51c.61-2.26.19-4-1.25-5.28A8.36,8.36,0,0,0,318.72,236.19Z"
          style="fill: rgb(25, 118, 210); transform-origin: 318.494px 243.783px"
          key="elwrpt9x4ugx"
          class="animable"
        ></path>
      </g>
    </g>
    <path
      d="M204.58,243.43l-13.51-2.63a5.35,5.35,0,0,1-4.22-4.54,90.14,90.14,0,0,0-11-32.95,52.27,52.27,0,0,1-5.5-36.62c5.83-26.6,30.74-42.94,57.94-38a53.61,53.61,0,0,1,10.78,3.16l.49.2-.16.5Zm14.13-114.51A47.8,47.8,0,0,0,171.44,167a51.11,51.11,0,0,0,5.39,35.82A91.34,91.34,0,0,1,188,236.16a4.17,4.17,0,0,0,3.29,3.54l12.55,2.44,34.38-109.48a52.58,52.58,0,0,0-10.05-2.89h0A53.39,53.39,0,0,0,218.71,128.92Z"
      style="fill: rgb(25, 118, 210); transform-origin: 204.364px 185.621px"
      key="elam0r0pebbuc"
      class="animable"
    ></path>
    <polygon
      points="240.99 127.5 239.92 127.13 245.03 110.86 246.09 111.23 240.99 127.5"
      style="fill: rgb(25, 118, 210); transform-origin: 243.005px 119.18px"
      key="elfgn3f5fhi5f"
      class="animable"
    ></polygon>
    <polygon
      points="245.22 130.15 244.66 129.17 248.16 127.24 248.73 128.22 245.22 130.15"
      style="fill: rgb(25, 118, 210); transform-origin: 246.695px 128.695px"
      key="elpgy41kjkdvd"
      class="animable"
    ></polygon>
    <polygon
      points="191.5 285.08 190.43 284.71 193.93 273.57 195 273.94 191.5 285.08"
      style="fill: rgb(25, 118, 210); transform-origin: 192.715px 279.325px"
      key="el0tgd0z6ia2m"
      class="animable"
    ></polygon>
    <path
      d="M196.11,270.39l-1.69-.33a12.19,12.19,0,0,1-7.65-5,11.87,11.87,0,0,1-2.09-8.81h0A11.31,11.31,0,0,1,198.15,247l5,1Zm-10.33-13.91a10.74,10.74,0,0,0,1.9,8A11.09,11.09,0,0,0,194.6,269l.73.14,6.37-20.28-3.72-.73a10.24,10.24,0,0,0-12.2,8.39Z"
      style="fill: rgb(25, 118, 210); transform-origin: 193.841px 258.576px"
      key="el7lcu9z8pu1d"
      class="animable"
    ></path>
  </g>
  <g
    key="freepik--Character--inject-15"
    class="animable"
    style="transform-origin: 372.1px 265.89px"
  >
    <path
      d="M360.84,221.83c-.22,4.48-2.66,19.5-1.33,22.5s5.11,11.34,17.22,11.11S387,236.78,387,236.78Z"
      style="fill: rgb(38, 50, 56); transform-origin: 373.108px 238.637px"
      key="elaix3dfkf78l"
      class="animable"
    ></path>
    <g key="el8zjh6gy9vy3">
      <path
        d="M360.84,221.83c-.22,4.48-2.66,19.5-1.33,22.5s5.11,11.34,17.22,11.11S387,236.78,387,236.78Z"
        style="opacity: 0.2; transform-origin: 373.108px 238.637px"
        class="animable"
      ></path>
    </g>
    <path
      d="M399,177.3c.4,2.48.91,4.81,1.41,7.2s1.12,4.72,1.72,7.06,1.26,4.69,2,7c.34,1.16.7,2.32,1.07,3.48s.68,2.22,1.24,3.67a43.85,43.85,0,0,0,3.65,6.89c1.34,2.11,2.75,4.13,4.22,6.08s3,3.85,4.53,5.72,3.14,3.68,4.84,5.46l3.33-2.63c-1.24-2-2.53-4-3.75-6s-2.48-4-3.65-6.05-2.32-4.06-3.36-6.09a42.09,42.09,0,0,1-2.62-6c-.26-.81-.54-2.07-.83-3.19l-.83-3.44-1.59-6.89c-.52-2.3-1-4.61-1.48-6.91s-1-4.63-1.42-6.85Z"
      style="fill: rgb(255, 195, 189); transform-origin: 413.005px 202.835px"
      key="elkdjblzwc8eb"
      class="animable"
    ></path>
    <path
      d="M425.8,226l7.09,4.61-6.79,2s-5.21-3.27-4.24-6.62Z"
      style="fill: rgb(255, 195, 189); transform-origin: 427.315px 229.3px"
      key="elp4v4ott0p8"
      class="animable"
    ></path>
    <polygon
      points="434.89 234.66 429.84 236.88 426.1 232.54 432.89 230.56 434.89 234.66"
      style="fill: rgb(255, 195, 189); transform-origin: 430.495px 233.72px"
      key="elfl5eb3vt9ra"
      class="animable"
    ></polygon>
    <path
      d="M389.65,408.22a10.09,10.09,0,0,0,2.21-.3.2.2,0,0,0,.07-.36c-.29-.19-2.83-1.83-3.81-1.39a.68.68,0,0,0-.39.56,1.13,1.13,0,0,0,.33,1A2.35,2.35,0,0,0,389.65,408.22Zm1.65-.59c-1.45.3-2.55.25-3-.14a.77.77,0,0,1-.2-.71.27.27,0,0,1,.17-.25C388.8,406.29,390.27,407,391.3,407.63Z"
      style="fill: rgb(25, 118, 210); transform-origin: 389.866px 407.16px"
      key="eldsxrc4da1w"
      class="animable"
    ></path>
    <path
      d="M391.82,407.92l.1,0a.22.22,0,0,0,.1-.18c0-.1,0-2.51-.92-3.32a1.05,1.05,0,0,0-.84-.26.68.68,0,0,0-.67.55c-.19.95,1.33,2.75,2.13,3.21Zm-1.43-3.39a.61.61,0,0,1,.44.17,4.53,4.53,0,0,1,.78,2.64c-.8-.64-1.75-2-1.63-2.57,0-.09.07-.21.32-.24Z"
      style="fill: rgb(25, 118, 210); transform-origin: 390.797px 406.035px"
      key="el5lndsgk0spr"
      class="animable"
    ></path>
    <path
      d="M335.73,403.27a.2.2,0,0,0,.18-.08.21.21,0,0,0,0-.23c-.23-.35-2.2-3.36-3.38-3.5h-.08a.64.64,0,0,0-.55.29,1.09,1.09,0,0,0-.17,1c.38,1.16,2.64,2.06,3.95,2.5Zm-3.23-3.42c.65.08,1.91,1.61,2.76,2.84-1.77-.66-2.93-1.41-3.14-2.06a.7.7,0,0,1,.11-.66.24.24,0,0,1,.22-.12Z"
      style="fill: rgb(25, 118, 210); transform-origin: 333.81px 401.365px"
      key="elw72mz53iokr"
      class="animable"
    ></path>
    <path
      d="M335.73,403.27h0a.21.21,0,0,0,.16-.11c0-.09,1-2.15.51-3.43a1.42,1.42,0,0,0-.79-.84c-.5-.23-.78-.06-.92.12-.6.74.22,3.29.86,4.18A.22.22,0,0,0,335.73,403.27Zm-.46-4.09a1.06,1.06,0,0,1,.22.07,1,1,0,0,1,.58.62,4.56,4.56,0,0,1-.36,2.77c-.57-1-1-2.94-.67-3.38C335.06,399.23,335.11,399.16,335.27,399.18Z"
      style="fill: rgb(25, 118, 210); transform-origin: 335.508px 401.024px"
      key="elkw2a6ihe0d"
      class="animable"
    ></path>
    <path
      d="M391.22,147.33c-1,5-3.16,15.81.31,19.13,0,0-1.36,5-10.59,5-10.16,0-4.86-5-4.86-5,5.55-1.32,5.4-5.44,4.44-9.3Z"
      style="fill: rgb(255, 195, 189); transform-origin: 383.114px 159.395px"
      key="elbo4e4q2wpnc"
      class="animable"
    ></path>
    <path
      d="M378.32,136.09a.29.29,0,0,0,.18,0,.39.39,0,0,0,.22-.51,3.91,3.91,0,0,0-2.69-2.43.39.39,0,0,0-.15.77h0a3.18,3.18,0,0,1,2.1,2A.39.39,0,0,0,378.32,136.09Z"
      style="fill: rgb(38, 50, 56); transform-origin: 377.156px 134.624px"
      key="el0mrp8frko2w"
      class="animable"
    ></path>
    <path
      d="M374.94,140.17a17.86,17.86,0,0,1-3.25,3.72,2.91,2.91,0,0,0,2.27.94Z"
      style="fill: rgb(237, 132, 126); transform-origin: 373.315px 142.501px"
      key="elnsm3qiv0r6f"
      class="animable"
    ></path>
    <path
      d="M375.77,139.15c-.14.67-.61,1.13-1,1s-.67-.7-.53-1.36.6-1.13,1-1S375.9,138.49,375.77,139.15Z"
      style="fill: rgb(38, 50, 56); transform-origin: 375.004px 138.97px"
      key="elfw0eaq6ro28"
      class="animable"
    ></path>
    <path
      d="M375.42,137.87l-1.5-.79S374.48,138.49,375.42,137.87Z"
      style="fill: rgb(38, 50, 56); transform-origin: 374.67px 137.554px"
      key="el95rwk789kg8"
      class="animable"
    ></path>
    <polygon
      points="344.14 407.5 336.28 404.61 342.44 386.21 350.3 389.1 344.14 407.5"
      style="fill: rgb(255, 195, 189); transform-origin: 343.29px 396.855px"
      key="el6r24hk327q3"
      class="animable"
    ></polygon>
    <polygon
      points="401.56 407.72 393.18 407.72 393.84 388.33 402.22 388.33 401.56 407.72"
      style="fill: rgb(255, 195, 189); transform-origin: 397.7px 398.025px"
      key="el89ejs6z365s"
      class="animable"
    ></polygon>
    <path
      d="M392.52,406.75h9.41a.67.67,0,0,1,.67.58l1.07,7.44a1.34,1.34,0,0,1-1.34,1.49c-3.28-.05-4.86-.25-9-.25-2.55,0-6.27.27-9.78.27s-3.71-3.48-2.24-3.79c6.56-1.42,7.6-3.36,9.81-5.22A2.17,2.17,0,0,1,392.52,406.75Z"
      style="fill: rgb(38, 50, 56); transform-origin: 392.063px 411.515px"
      key="elhl85hy661pe"
      class="animable"
    ></path>
    <path
      d="M336.71,402.5l8.17,4.66a.67.67,0,0,1,.3.83l-2.76,7a1.35,1.35,0,0,1-1.9.63c-2.82-1.68-4.1-2.63-7.7-4.68-2.21-1.26-6.92-3.64-10-5.38s-1.49-4.85-.07-4.4c6.41,2,9.61,1.61,12.46,1.09A2.2,2.2,0,0,1,336.71,402.5Z"
      style="fill: rgb(38, 50, 56); transform-origin: 333.139px 408.456px"
      key="el4n9w6uytlns"
      class="animable"
    ></path>
    <g key="el0u2nmofwg3t">
      <polygon
        points="342.44 386.21 339.14 396.07 347.13 398.59 350.31 389.1 342.44 386.21"
        style="opacity: 0.2; transform-origin: 344.725px 392.4px"
        class="animable"
      ></polygon>
    </g>
    <g key="elr4fqnwv1gb">
      <polygon
        points="402.22 388.33 393.84 388.33 393.5 398.33 401.88 398.33 402.22 388.33"
        style="opacity: 0.2; transform-origin: 397.86px 393.33px"
        class="animable"
      ></polygon>
    </g>
    <path
      d="M357.31,176.82c-1.61,3.76-3.37,7.63-5.14,11.37-.91,1.86-1.85,3.71-2.82,5.52s-2,3.57-3.05,5.23c-.52.85-1.08,1.62-1.63,2.4a2.35,2.35,0,0,1-.67.72,2.08,2.08,0,0,1-1.3.14,8.65,8.65,0,0,1-2.22-.64,41.43,41.43,0,0,1-9.74-6.57l-3.22,2.77a34.07,34.07,0,0,0,2.07,2.72c.72.87,1.46,1.72,2.27,2.53a27.72,27.72,0,0,0,5.55,4.49,15.23,15.23,0,0,0,3.76,1.63,9.61,9.61,0,0,0,5,0,8.92,8.92,0,0,0,4.46-2.95c.76-.91,1.52-1.83,2.18-2.76A86.84,86.84,0,0,0,359.77,192a128.55,128.55,0,0,0,5.48-12Z"
      style="fill: rgb(255, 195, 189); transform-origin: 346.385px 193.14px"
      key="elviyq8lwdiw"
      class="animable"
    ></path>
    <path
      d="M328,204.35h0a1.23,1.23,0,0,1-1.49-.86l-7.39-25.83,3.71-1,6.07,26.17A1.25,1.25,0,0,1,328,204.35Z"
      style="fill: rgb(25, 118, 210); transform-origin: 324.029px 190.524px"
      key="el5oszdjhcfhe"
      class="animable"
    ></path>
    <path
      d="M330.51,175.38l-18.72,4.84a36.89,36.89,0,0,1-2.48-12.44L328,162.94A37.24,37.24,0,0,0,330.51,175.38Z"
      style="fill: rgb(25, 118, 210); transform-origin: 319.91px 171.58px"
      key="elpfzx1cby3m"
      class="animable"
    ></path>
    <g key="eluspxi4xzio">
      <path
        d="M330.51,175.38l-16.13,4.17a36.9,36.9,0,0,1-2.49-12.44L328,162.94A37.24,37.24,0,0,0,330.51,175.38Z"
        style="
          fill: rgb(255, 255, 255);
          opacity: 0.3;
          transform-origin: 321.2px 171.245px;
        "
        class="animable"
      ></path>
    </g>
    <g key="elgprz1yc6of9">
      <rect
        x="311.9"
        y="175.55"
        wkeyth="19.33"
        height="7.67"
        rx="1.68"
        style="
          fill: rgb(25, 118, 210);
          transform-origin: 321.565px 179.385px;
          transform: rotate(-14.51deg);
        "
        class="animable"
      ></rect>
    </g>
    <path
      d="M331.92,196.16l-2.48-5.87-5.69,3.87s2.8,4.31,6.14,4.83Z"
      style="fill: rgb(255, 195, 189); transform-origin: 327.835px 194.64px"
      key="el0bxpdujvm8l"
      class="animable"
    ></path>
    <polygon
      points="325.51 187.16 320.41 190.21 323.75 194.16 329.44 190.28 325.51 187.16"
      style="fill: rgb(255, 195, 189); transform-origin: 324.925px 190.66px"
      key="el6urx676bfuw"
      class="animable"
    ></polygon>
    <path
      d="M398.47,141.55c-2.2,8-3,11.46-7.94,14.76-7.48,5-16.85.52-17.08-8-.22-7.66,3.42-19.49,12.05-21A11.33,11.33,0,0,1,398.47,141.55Z"
      style="fill: rgb(255, 195, 189); transform-origin: 386.172px 142.76px"
      key="elsatg8crrw7"
      class="animable"
    ></path>
    <path
      d="M395.89,122c-1.27,2-1.3,4.51-.29,7.17-2.76-2.32-7.36-11.11-8.74-13.67a19.6,19.6,0,0,0-.45,8.44c-2.3-.45-5.46-2.41-9.56-8.09-.41,3.78.66,8.06,2.45,12a9.93,9.93,0,0,1-3.74-.81c-.49,1.85,3.93,5.1,3.93,5.1s-2.65,3.55,0,10.56c2,4.19,2.65,13,7.63,14,2,.41,4.36-1,6.47-2.81a4.82,4.82,0,0,1-.46,1.65c1.23-.92,2.54-2.75,2.61-3.75h0a7,7,0,0,1-.44,2.42,13,13,0,0,0,3.17-4.9,8,8,0,0,1,.31,2.57,12.29,12.29,0,0,0,2.7-6.17,8.78,8.78,0,0,1,1.25,3.55c2.11-3.5,2.78-7.29,1.45-10a4.69,4.69,0,0,0,.8-1.56C406.36,132.9,399.49,131.48,395.89,122Z"
      style="fill: rgb(38, 50, 56); transform-origin: 390.341px 136.136px"
      key="el79j61pcj41"
      class="animable"
    ></path>
    <path
      d="M378.47,139.81a8.08,8.08,0,0,0-1,4.52c.15,2.06,1.7,2.11,2.9.71s2.3-3.84,1.56-5.52S379.43,138.18,378.47,139.81Z"
      style="fill: rgb(255, 195, 189); transform-origin: 379.809px 142.205px"
      key="el2i43pf04fiu"
      class="animable"
    ></path>
    <path
      d="M374.91,219.16s4.86,57.49,9.91,89.89c4.07,26.17,7.28,87.34,7.28,87.34h11.43s4.39-55.95,2.32-81.83c-5.23-65.5,6.11-74.23-5.9-95.4Z"
      style="fill: rgb(25, 118, 210); transform-origin: 390.657px 307.775px"
      key="elm0z4nwyh2rq"
      class="animable"
    ></path>
    <g key="eldkn58yvepb">
      <path
        d="M374.91,219.16s4.86,57.49,9.91,89.89c4.07,26.17,7.28,87.34,7.28,87.34h11.43s4.39-55.95,2.32-81.83c-5.23-65.5,6.11-74.23-5.9-95.4Z"
        style="
          fill: rgb(255, 255, 255);
          opacity: 0.6;
          transform-origin: 390.657px 307.775px;
        "
        class="animable"
      ></path>
    </g>
    <g key="elmlhorxc5fup">
      <path
        d="M386.41,238.58c-3,4.32-7,9.28-8.31,14.59,1,9.7,2.11,20.43,3.35,30.75C384.63,275.32,390.11,258.13,386.41,238.58Z"
        style="
          fill: rgb(25, 118, 210);
          opacity: 0.4;
          transform-origin: 382.873px 261.25px;
        "
        class="animable"
      ></path>
    </g>
    <path
      d="M365.93,219.16S357,283.54,353.22,308.8c-4,26.28-14.9,84.62-14.9,84.62l10.9,3.1s20.16-56.38,24.2-82.18c4.4-28.12,22.63-95.18,22.63-95.18Z"
      style="fill: rgb(25, 118, 210); transform-origin: 367.185px 307.84px"
      key="elcb826w7b628"
      class="animable"
    ></path>
    <g key="el14wpzw9dken">
      <path
        d="M365.93,219.16S357,283.54,353.22,308.8c-4,26.28-14.9,84.62-14.9,84.62l10.9,3.1s20.16-56.38,24.2-82.18c4.4-28.12,22.63-95.18,22.63-95.18Z"
        style="
          fill: rgb(255, 255, 255);
          opacity: 0.6;
          transform-origin: 367.185px 307.84px;
        "
        class="animable"
      ></path>
    </g>
    <polygon
      points="336.68 393.26 350.6 397.47 352.89 392.3 337.99 387.79 336.68 393.26"
      style="fill: rgb(38, 50, 56); transform-origin: 344.785px 392.63px"
      key="el4y887w0womg"
      class="animable"
    ></polygon>
    <polygon
      points="390.54 396.62 405.09 396.62 405.85 391.52 390.46 391 390.54 396.62"
      style="fill: rgb(38, 50, 56); transform-origin: 398.155px 393.81px"
      key="eltdw2quwwsr"
      class="animable"
    ></polygon>
    <path
      d="M400.46,217.16l1.53,3.05c.12.24-.16.48-.55.48H365.76c-.31,0-.56-.15-.58-.35l-.31-3c0-.21.25-.39.58-.39H399.9A.63.63,0,0,1,400.46,217.16Z"
      style="fill: rgb(25, 118, 210); transform-origin: 383.444px 218.817px"
      key="elj2ldpdba5hd"
      class="animable"
    ></path>
    <path
      d="M395.83,221h.92c.19,0,.33-.1.31-.21l-.43-4c0-.12-.17-.21-.36-.21h-.92c-.18,0-.32.09-.31.21l.43,4C395.49,220.92,395.65,221,395.83,221Z"
      style="fill: rgb(25, 118, 210); transform-origin: 396.051px 218.79px"
      key="el4nvwp2td6cl"
      class="animable"
    ></path>
    <g key="el975ynlbr0cn">
      <path
        d="M395.83,221h.92c.19,0,.33-.1.31-.21l-.43-4c0-.12-.17-.21-.36-.21h-.92c-.18,0-.32.09-.31.21l.43,4C395.49,220.92,395.65,221,395.83,221Z"
        style="
          fill: rgb(255, 255, 255);
          opacity: 0.6;
          transform-origin: 396.051px 218.79px;
        "
        class="animable"
      ></path>
    </g>
    <path
      d="M373.47,221h.92c.18,0,.32-.1.31-.21l-.43-4c0-.12-.18-.21-.36-.21H373c-.19,0-.33.09-.31.21l.43,4C373.12,220.92,373.28,221,373.47,221Z"
      style="fill: rgb(25, 118, 210); transform-origin: 373.694px 218.79px"
      key="elcqoawk25efc"
      class="animable"
    ></path>
    <g key="elloes1sdm4y">
      <path
        d="M373.47,221h.92c.18,0,.32-.1.31-.21l-.43-4c0-.12-.18-.21-.36-.21H373c-.19,0-.33.09-.31.21l.43,4C373.12,220.92,373.28,221,373.47,221Z"
        style="
          fill: rgb(255, 255, 255);
          opacity: 0.6;
          transform-origin: 373.694px 218.79px;
        "
        class="animable"
      ></path>
    </g>
    <path
      d="M402,166.3c10.42,4.58,7.58,23.64,11.27,27.86,6.19,7.11,2.57,35.07,2.57,35.07-6.89-6.15-13.08-23.94-18.07-34.59C397.79,194.64,396.13,163.71,402,166.3Z"
      style="fill: rgb(38, 50, 56); transform-origin: 407.23px 197.688px"
      key="el0gs1vo5andx"
      class="animable"
    ></path>
    <g key="eld50gdah4239">
      <path
        d="M408.15,189.42,406.3,214A81.12,81.12,0,0,0,412,224.63C410.93,214.71,410.21,198.19,408.15,189.42Z"
        style="opacity: 0.2; transform-origin: 409.15px 207.025px"
        class="animable"
      ></path>
    </g>
    <path
      d="M379.19,164.92c-10,.75-11.49-.86-15.73.8-4.94,1.95-2.53,33.43-2.53,66.17,0,14.88,32.36,32,32.36,32s8.73-8,8.73-17.56c5.82,0,7.71-5.66,6.6-17.1-1-10.32,1.53-44-.17-50.81s-4.53-14.09-9.52-13.09S392,164,379.19,164.92Z"
      style="fill: rgb(38, 50, 56); transform-origin: 384.698px 214.295px"
      key="elqmal55tyj7"
      class="animable"
    ></path>
    <g key="elp198uuiexdo">
      <path
        d="M371.73,165.13c1.64,1.19,11.59,4.7,17.42,4.91s6.67-3.37,6.67-3.37Z"
        style="opacity: 0.2; transform-origin: 383.775px 167.589px"
        class="animable"
      ></path>
    </g>
    <path
      d="M371.09,165.83c-2-.57,1.06-2.22,1.46-3.55s-.46-4.34,1.75-3.5,15.32-1.17,19.82,1.11,5.11,4.83,2.22,6.94S383,169.25,371.09,165.83Z"
      style="fill: rgb(38, 50, 56); transform-origin: 384.26px 163.523px"
      key="eluvhxoaf48ef"
      class="animable"
    ></path>
    <g key="elnngrd23e9kl">
      <path
        d="M366.51,190.29c-1-6.55-3.75-1.65-6.12,4.57.09,6.65.27,14.06.4,21.82C364,209.92,368,199.78,366.51,190.29Z"
        style="opacity: 0.2; transform-origin: 363.611px 201.931px"
        class="animable"
      ></path>
    </g>
    <path
      d="M364.87,165.31c-6.51.93-11.95,19.38-15.64,23.61-6.19,7.1.5,31.77.5,31.77,6.89-6.15,12.47-15.4,17.46-26.05C367.19,194.64,371.24,164.39,364.87,165.31Z"
      style="fill: rgb(38, 50, 56); transform-origin: 357.531px 192.99px"
      key="elsar9oxeqno"
      class="animable"
    ></path>
    <g key="elp9aewce8pa">
      <path
        d="M400.62,189.78s1.22,46.22,1.4,56.55a5.89,5.89,0,0,0,4-1.34Z"
        style="opacity: 0.2; transform-origin: 403.32px 218.058px"
        class="animable"
      ></path>
    </g>
  </g>
  <defs>
    <filter key="active" height="200%">
      <feMorphology
        in="SourceAlpha"
        result="DILATED"
        operator="dilate"
        radius="2"
      ></feMorphology>
      <feFlood flood-color="#32DFEC" flood-opacity="1" result="PINK"></feFlood>
      <feComposite
        in="PINK"
        in2="DILATED"
        operator="in"
        result="OUTLINE"
      ></feComposite>
      <feMerge>
        <feMergeNode in="OUTLINE"></feMergeNode>
        <feMergeNode in="SourceGraphic"></feMergeNode>
      </feMerge>
    </filter>
    <filter key="hover" height="200%">
      <feMorphology
        in="SourceAlpha"
        result="DILATED"
        operator="dilate"
        radius="2"
      ></feMorphology>
      <feFlood
        flood-color="#ff0000"
        flood-opacity="0.5"
        result="PINK"
      ></feFlood>
      <feComposite
        in="PINK"
        in2="DILATED"
        operator="in"
        result="OUTLINE"
      ></feComposite>
      <feMerge>
        <feMergeNode in="OUTLINE"></feMergeNode>
        <feMergeNode in="SourceGraphic"></feMergeNode>
      </feMerge>
      <feColorMatrix
        type="matrix"
        values="0   0   0   0   0                0   1   0   0   0                0   0   0   0   0                0   0   0   1   0 "
      ></feColorMatrix>
    </filter>
  </defs>
</svg>
